<?xml version="1.0" encoding="UTF-8" standalone="no"?>
<!-- Created with Inkscape (http://www.inkscape.org/) -->

<svg
   xmlns:dc="http://purl.org/dc/elements/1.1/"
   xmlns:cc="http://creativecommons.org/ns#"
   xmlns:rdf="http://www.w3.org/1999/02/22-rdf-syntax-ns#"
   xmlns:svg="http://www.w3.org/2000/svg"
   xmlns="http://www.w3.org/2000/svg"
   xmlns:sodipodi="http://sodipodi.sourceforge.net/DTD/sodipodi-0.dtd"
   xmlns:inkscape="http://www.inkscape.org/namespaces/inkscape"
   width="300"
   height="300"
   viewBox="0 0 79.374998 79.375002"
   version="1.1"
   id="svg1234"
   inkscape:version="0.92.4 (5da689c313, 2019-01-14)"
   sodipodi:docname="na0.svg">
  <defs
     id="defs1228" />
  <sodipodi:namedview
     id="base"
     pagecolor="#ffffff"
     bordercolor="#666666"
     borderopacity="1.0"
     inkscape:pageopacity="0.0"
     inkscape:pageshadow="2"
     inkscape:zoom="0.49497475"
     inkscape:cx="162.50084"
     inkscape:cy="-92.36796"
     inkscape:document-units="px"
     inkscape:current-layer="layer1"
     showgrid="false"
     units="px" />
  <metadata
     id="metadata1231">
    <rdf:RDF>
      <cc:Work
         rdf:about="">
        <dc:format>image/svg+xml</dc:format>
        <dc:type
           rdf:resource="http://purl.org/dc/dcmitype/StillImage" />
        <dc:title></dc:title>
        <dc:creator>
          <cc:Agent>
            <dc:title>Sandie Skeen</dc:title>
          </cc:Agent>
        </dc:creator>
        <dc:rights>
          <cc:Agent>
            <dc:title>Copyright - All rights reserved - Tous droits réservés</dc:title>
          </cc:Agent>
        </dc:rights>
        <dc:description>Toulouse, France</dc:description>
      </cc:Work>
    </rdf:RDF>
  </metadata>
  <g
     inkscape:label="Calque 1"
     inkscape:groupmode="layer"
     id="layer1"
     transform="translate(0,-217.62499)">
    <g
       id="g3875-786-7"
       transform="translate(-1124.2379,477.54816)">
      <rect
         ry="6.8791666"
         rx="6.8791666"
         y="-259.27255"
         x="1124.8885"
         height="78.073769"
         width="78.073769"
         id="rect5205-0-1-9-2-4-3-8-4-9-0-6-7-7-5-6-2-2-8-9-5-6-2-5-8-7-1-980-3-2-6-0-3-55-5"
         style="opacity:1;fill:#ffffff;fill-opacity:1;stroke:#8bf0ec;stroke-width:1.30122089;stroke-miterlimit:4;stroke-dasharray:none;stroke-dashoffset:0;stroke-opacity:1" />
      <rect
         inkscape:export-ydpi="43.548504"
         inkscape:export-xdpi="43.548504"
         inkscape:export-filename="C:\Users\sandi\AndroidStudioProjects\Mnemosis\app\src\main\res\drawable\dos.png"
         transform="rotate(-90)"
         ry="4.7624993"
         rx="4.7624993"
         y="1129.3967"
         x="185.70691"
         height="69.057289"
         width="69.057289"
         id="rect5169-4-0-4-9-7-5-2-3-6-7-2-3-4-7-1-8-9-3-36-4-4-8-1-6-8-6-4-1-4-7-6-5-4-2-5-4-8-657-0"
         style="display:inline;opacity:1;fill:#8bf0ec;fill-opacity:1;stroke:none;stroke-width:2.30172825;stroke-miterlimit:4;stroke-dasharray:none;stroke-dashoffset:0;stroke-opacity:1" />
    </g>
    <path
       style="display:inline;opacity:1;fill:#5cb85c;fill-opacity:1;fill-rule:evenodd;stroke:#ffffff;stroke-width:0.26458332;stroke-linecap:butt;stroke-linejoin:miter;stroke-miterlimit:4;stroke-dasharray:none;stroke-opacity:1"
       d="m 58.128301,220.43322 c -6.0955,6.23787 -30.3798,17.0855 -30.1823,35.23266 0.3933,11.44178 0.2206,17.50219 0,23.10345 -0.4675,-1.1275 -0.9639,-2.18398 -1.5018,-3.12958 -2.8941,3.85567 2.31,12.03976 1.65241,18.55214 0.41739,-0.0344 0.55999,-0.0225 1.11109,-0.055 1.9697,-21.81034 2.0318,-26.04892 3.4905,-35.09719 1.538,-8.01428 5.1498,-9.91695 8.9891,-14.67559 2.1448,-2.39895 3.3545,-4.40619 4.9411,-6.57095 l 1.6838,-2.26071 c 0.3692,-0.42929 1.6947,-0.83831 1.5148,0.28244 l -0.6737,1.55459 c -1.0475,2.40287 -0.1801,5.10064 0,6.07507 0.8904,1.82607 0.976,3.42961 0.5571,4.91223 1.7137,0.30157 3.3736,0.38708 5.0372,0.48859 1.4669,-0.44168 2.7306,-0.8833 3.8782,-1.32497 -0.066,-0.0963 -0.1296,-0.19309 -0.1826,-0.2903 -1.5285,-3.14282 1.755,-6.68798 -0.7062,-10.14362 -1.6791,-2.35765 -4.2495,-4.4351 -8.4148,-4.94416 2.1415,-2.31106 8.5726,-8.66931 8.8061,-11.70922 z m -45.0158,4.94258 c 8.3601,19.29289 6.8309,48.38012 7.1709,68.3809 l 1.903,0.004 c 2.522,-66.63185 3.0305,-50.20125 -9.0739,-68.3845 z m -7.1673004,23.00986 c 2.2191,18.95322 8.0130004,30.76562 8.2945004,45.30302 l 1.3846,0.003 c 0.081,-49.98121 -4.2364,-40.4778 -9.6791004,-45.30613 z"
       id="path5025-8-6-8-1-7-9-2-8"
       inkscape:connector-curvature="0" />
    <path
       style="fill:#f7fb56;fill-opacity:1;fill-rule:evenodd;stroke:#ffffff;stroke-width:0.26458332;stroke-linecap:butt;stroke-linejoin:miter;stroke-miterlimit:4;stroke-dasharray:none;stroke-opacity:1"
       d="m 54.947101,273.04536 1.9692,7.26979 c 0.6566,2.06505 2.3378,1.95183 2.5621,-0.0874 l 0.3089,-7.28858 z"
       id="path4906-9-1-1-3-2-4-4-7-3-0-6-8-7-6-2-5"
       inkscape:connector-curvature="0"
       sodipodi:nodetypes="ccccc" />
    <path
       style="display:inline;opacity:1;fill:#ce9aff;fill-opacity:1;fill-rule:evenodd;stroke:#ffffff;stroke-width:0.26458332;stroke-linecap:butt;stroke-linejoin:miter;stroke-miterlimit:4;stroke-dasharray:none;stroke-opacity:1"
       d="m 58.625801,247.52045 c -1.1476,0.44169 -2.4113,0.88331 -3.8782,1.32495 -1.6636,-0.10147 -3.3235,-0.18698 -5.0372,-0.48852 -1.4196,5.02407 -8.6514,8.65557 -10.1567,14.81415 -1.4494,9.08177 2.544,9.83731 2.8675,17.29049 1.1996,-0.88111 2.9263,-1.41822 4.0393,-3.24937 1.4898,2.50557 2.9521,2.07412 4.3766,3.53181 3.3996,-3.30668 8.6854,-4.53117 10.9402,-10.87853 4.1871,4.81685 6.3937,2.92574 11.6522,7.40791 -4.1225,-11.44799 1.0659,-17.51509 -8.9599,-25.35166 -1.1603,-0.8913 -4.5886,-2.55606 -5.8438,-4.40123 z"
       id="path6037-4-5-0-3-1-0-2-4-2-9-4-9-7-5-0-4-6-8-0-5-5"
       inkscape:connector-curvature="0" />
  </g>
</svg>
