<?xml version="1.0" encoding="UTF-8" standalone="no"?>
<!-- Created with Inkscape (http://www.inkscape.org/) -->

<svg
   xmlns:dc="http://purl.org/dc/elements/1.1/"
   xmlns:cc="http://creativecommons.org/ns#"
   xmlns:rdf="http://www.w3.org/1999/02/22-rdf-syntax-ns#"
   xmlns:svg="http://www.w3.org/2000/svg"
   xmlns="http://www.w3.org/2000/svg"
   xmlns:sodipodi="http://sodipodi.sourceforge.net/DTD/sodipodi-0.dtd"
   xmlns:inkscape="http://www.inkscape.org/namespaces/inkscape"
   width="300"
   height="300"
   viewBox="0 0 79.374998 79.375002"
   version="1.1"
   id="svg1234"
   inkscape:version="0.92.4 (5da689c313, 2019-01-14)"
   sodipodi:docname="na1.svg">
  <defs
     id="defs1228" />
  <sodipodi:namedview
     id="base"
     pagecolor="#ffffff"
     bordercolor="#666666"
     borderopacity="1.0"
     inkscape:pageopacity="0.0"
     inkscape:pageshadow="2"
     inkscape:zoom="0.35000001"
     inkscape:cx="-1147.9999"
     inkscape:cy="-123.43464"
     inkscape:document-units="px"
     inkscape:current-layer="layer1"
     showgrid="false"
     units="px" />
  <metadata
     id="metadata1231">
    <rdf:RDF>
      <cc:Work
         rdf:about="">
        <dc:format>image/svg+xml</dc:format>
        <dc:type
           rdf:resource="http://purl.org/dc/dcmitype/StillImage" />
        <dc:title></dc:title>
        <dc:rights>
          <cc:Agent>
            <dc:title>Copyright - All rights reserved - Tous droits réservés</dc:title>
          </cc:Agent>
        </dc:rights>
        <dc:description>Toulouse, France</dc:description>
        <dc:creator>
          <cc:Agent>
            <dc:title>Sandie Skeen</dc:title>
          </cc:Agent>
        </dc:creator>
      </cc:Work>
    </rdf:RDF>
  </metadata>
  <g
     inkscape:label="Calque 1"
     inkscape:groupmode="layer"
     id="layer1"
     transform="translate(0,-217.62499)">
    <g
       id="g3875-02-4-2-0"
       transform="translate(-1124.2379,477.54816)">
      <rect
         ry="6.8791666"
         rx="6.8791666"
         y="-259.27255"
         x="1124.8885"
         height="78.073769"
         width="78.073769"
         id="rect5205-0-1-9-2-4-3-8-4-9-0-6-7-7-5-6-2-2-8-9-5-6-2-5-8-7-1-980-3-2-6-0-3-2-9-4-6"
         style="opacity:1;fill:#ffffff;fill-opacity:1;stroke:#8bf0ec;stroke-width:1.30122089;stroke-miterlimit:4;stroke-dasharray:none;stroke-dashoffset:0;stroke-opacity:1" />
      <rect
         inkscape:export-ydpi="43.548504"
         inkscape:export-xdpi="43.548504"
         inkscape:export-filename="C:\Users\sandi\AndroidStudioProjects\Mnemosis\app\src\main\res\drawable\dos.png"
         transform="rotate(-90)"
         ry="4.7624993"
         rx="4.7624993"
         y="1129.3967"
         x="185.70691"
         height="69.057289"
         width="69.057289"
         id="rect5169-4-0-4-9-7-5-2-3-6-7-2-3-4-7-1-8-9-3-36-4-4-8-1-6-8-6-4-1-4-7-6-5-4-2-5-4-8-06-9-8-5"
         style="display:inline;opacity:1;fill:#8bf0ec;fill-opacity:1;stroke:none;stroke-width:2.30172825;stroke-miterlimit:4;stroke-dasharray:none;stroke-dashoffset:0;stroke-opacity:1" />
    </g>
    <g
       id="g2888"
       transform="translate(300.11493,208.76624)">
      <path
         inkscape:export-ydpi="43.548344"
         inkscape:export-xdpi="43.548344"
         inkscape:export-filename="C:\Users\Sid\AndroidStudioProjects\Mnemosismemorygame\app\src\main\res\drawable\z_na13.png"
         sodipodi:nodetypes="sscsscscssssccssscccssssszccccccssccccsscccssccccsccsccsscsssss"
         inkscape:connector-curvature="0"
         id="path5126-5-2-3-1-4-6"
         d="m -285.37908,14.79321 c 0.36384,-0.4779 1.23105,-0.5078 1.56628,0.1266 1.56811,2.9679 2.13106,1.5451 3.41856,6.2399 0.28786,0.8581 1.31055,0.7656 2.33282,0.7373 0.69339,-0.019 1.42897,0.1659 1.83227,-0.061 0.88587,-0.4979 1.0346,-1.0073 1.3059,-1.7633 0.63852,-1.877 1.25428,-2.287 2.81466,-3.3041 0.73101,-0.4765 0.8056,-0.7445 1.25433,-1.1626 0.51037,-0.4312 1.07744,-0.2536 1.33082,0.1377 0.33486,0.5173 0.58197,1.0675 0.67307,1.7744 0.31287,2.43 -1.01103,4.4835 -1.75666,5.0539 -0.81382,0.6227 -1.79287,0.8858 -2.31755,1.3995 -0.37942,0.3715 -0.71626,0.8473 -0.89727,1.2409 -0.28857,0.7584 -0.5049,1.5803 -0.57655,2.4475 -0.15545,1.9945 -0.69249,3.0465 -1.5038,4.7726 -0.27717,0.5897 -0.17043,0.9488 -0.0612,1.1625 0.38834,0.76 7.26144,0.5745 10.15707,0.1224 3.89614,-0.6084 6.48448,-1.5345 11.68673,-1.8356 4.58378,-0.2864 9.77345,0.759 13.58451,4.422399 0.91729,0.8615 2.98913,1.643301 3.69407,3.356101 0.5233,1.353899 -0.74311,2.386301 -1.73707,3.663399 -0.86374,1.109901 -1.60943,2.413299 -2.43248,3.599299 -1.22002,1.758001 -2.39033,3.368101 -2.58487,4.5998 -0.29224,1.851001 0.21051,2.366701 0.60111,2.768002 1.59921,1.6426 6.1504,5.134999 6.68017,6.042898 0.60126,1.030701 -0.56729,11.743902 -0.30597,14.562601 0.26141,2.818601 0.58069,4.265401 0.53279,6.929501 -0.79598,0.263498 -2.93838,0.8729 -3.38319,0 0.20396,-1.3281 0.42007,-1.998501 0.46416,-4.2985 l 0.30593,-7.526002 c -0.35032,-6.247199 -2.52831,-7.378599 -6.04703,-10.427099 0.55315,3.035001 1.72633,4.404399 1.76763,5.3628 -0.0351,1.3457 -2.54523,5.273201 -3.47409,7.649601 -0.82778,2.1179 -2.22495,5.164598 -2.64831,6.286799 -0.46338,1.228201 -0.62713,1.977099 -0.91785,2.937 -1.17881,0.587999 -3.20684,0.988099 -3.36696,0.126201 l 1.04191,-2.0842 c 1.32076,-2.718401 2.64227,-5.212702 3.96231,-8.918501 1.0307,-3.289401 1.09545,-5.121 0.13721,-7.663199 -0.80201,-2.127699 -1.90793,-5.006501 -2.29364,-6.7794 -0.45827,-2.106602 -1.55342,-5.343501 -2.54017,-5.396801 -2.58812,0.2096 -3.79784,1.762 -11.81958,1.385699 -1.16896,0.02 -1.76581,0.876602 -1.94747,1.713802 -1.61444,8.682299 -1.22794,10.244198 -1.66321,12.3098 -0.96847,4.5958 -0.8479,9.704499 -0.7263,13.952099 0.0181,0.6321 0.0562,1.5392 0.14292,2.1849 -0.45243,0.6512 -1.94217,0.814699 -2.29638,0.071 0.1014,-0.807702 0.28625,-2.159101 0.30516,-2.804901 l 0.19945,-6.234801 c 0.16264,-3.229398 0.13874,-4.8455 -0.0612,-6.118698 -0.68069,-4.335 -0.90819,-5.3291 -0.92459,-8.7762 -1.65066,6.038098 -2.9031,8.6771 -3.4711,11.414098 -0.46734,3.2644 -1.36765,8.078002 -1.65439,11.232401 -0.0673,0.7399 -0.11661,1.172401 -0.17413,1.539799 -0.95614,0.396901 -2.27782,0.226102 -2.70917,-0.296998 1.11696,-3.131201 3.27469,-11.463102 3.26523,-16.767 -0.003,-1.805601 1.32673,-8.025202 0.68727,-10.405502 -2.10191,-7.823998 -6.66462,-10.262596 -6.14584,-18.361097 0.0473,-0.642601 0.20469,-3.232 0.19403,-3.8667 -0.0386,-2.2903 -0.51012,-3.5527 -0.75774,-5.3368 -0.18475,-1.3316 0.0508,-3.2896 -0.1616,-3.8228 -0.49629,-1.2458 -3.5831,-1.703 -3.92611,-5.5189 -0.0986,-1.0974 0.54966,-2.7319 1.34507,-3.7952 z"
         style="display:inline;fill:#ceb452;fill-opacity:1;fill-rule:evenodd;stroke:none;stroke-width:0.28222224px;stroke-linecap:butt;stroke-linejoin:miter;stroke-opacity:1" />
      <path
         sodipodi:nodetypes="sssss"
         inkscape:connector-curvature="0"
         id="path2564-8"
         d="m -267.41729,39.0363 c 0,0.371552 -0.48735,0.672753 -1.08854,0.672753 -0.60118,0 -1.07757,-0.301363 -1.08854,-0.672753 -0.009,-0.307912 0.46917,-0.772756 1.08854,-0.672752 0.5935,0.09583 1.08854,0.301202 1.08854,0.672752 z"
         style="opacity:0.98999999;fill:#ffffff;fill-opacity:1;stroke:none;stroke-width:0.05142786;stroke-miterlimit:4;stroke-dasharray:none;stroke-dashoffset:0;stroke-opacity:1" />
      <path
         sodipodi:nodetypes="sssss"
         inkscape:connector-curvature="0"
         id="path2564-8-2"
         d="m -260.40585,35.78388 c 0,0.345715 -0.45347,0.625973 -1.01284,0.625973 -0.55939,0 -1.00265,-0.280408 -1.01285,-0.625973 -0.008,-0.286502 0.43655,-0.719022 1.01285,-0.625973 0.55222,0.08916 1.01284,0.280258 1.01284,0.625973 z"
         style="opacity:0.98999999;fill:#ffffff;fill-opacity:1;stroke:none;stroke-width:0.04785185;stroke-miterlimit:4;stroke-dasharray:none;stroke-dashoffset:0;stroke-opacity:1" />
      <path
         sodipodi:nodetypes="sssss"
         inkscape:connector-curvature="0"
         id="path2564-8-0"
         d="m -256.90666,40.193659 c 0,0.403479 -0.52924,0.730562 -1.18208,0.730562 -0.65284,0 -1.17016,-0.327259 -1.18208,-0.730562 -0.01,-0.334371 0.5095,-0.83916 1.18208,-0.730563 0.6445,0.104062 1.18208,0.327084 1.18208,0.730563 z"
         style="opacity:0.98999999;fill:#ffffff;fill-opacity:1;stroke:none;stroke-width:0.05584709;stroke-miterlimit:4;stroke-dasharray:none;stroke-dashoffset:0;stroke-opacity:1" />
      <path
         sodipodi:nodetypes="sssss"
         inkscape:connector-curvature="0"
         id="path2564-8-27"
         d="m -253.37178,34.110403 c 0,0.288352 -0.37823,0.522108 -0.84479,0.522108 -0.46657,0 -0.83628,-0.233881 -0.84479,-0.522108 -0.007,-0.238964 0.36411,-0.599718 0.84479,-0.522108 0.46059,0.07437 0.84479,0.233755 0.84479,0.522108 z"
         style="opacity:0.98999999;fill:#ffffff;fill-opacity:1;stroke:none;stroke-width:0.039912;stroke-miterlimit:4;stroke-dasharray:none;stroke-dashoffset:0;stroke-opacity:1" />
      <path
         sodipodi:nodetypes="sssss"
         inkscape:connector-curvature="0"
         id="path2564-8-5"
         d="m -244.56037,35.831128 c 0,0.371284 -0.48701,0.672269 -1.08776,0.672269 -0.60075,0 -1.0768,-0.301147 -1.08776,-0.672269 -0.009,-0.307691 0.46884,-0.772201 1.08776,-0.672269 0.59307,0.09576 1.08776,0.300985 1.08776,0.672269 z"
         style="opacity:0.98999999;fill:#ffffff;fill-opacity:1;stroke:none;stroke-width:0.05139092;stroke-miterlimit:4;stroke-dasharray:none;stroke-dashoffset:0;stroke-opacity:1" />
      <path
         sodipodi:nodetypes="sssss"
         inkscape:connector-curvature="0"
         id="path2564-8-54"
         d="m -248.58122,40.385795 c 0,0.355587 -0.46642,0.643847 -1.04177,0.643847 -0.57535,0 -1.03127,-0.288415 -1.04177,-0.643847 -0.009,-0.294683 0.44902,-0.739555 1.04177,-0.643848 0.568,0.09171 1.04177,0.28826 1.04177,0.643848 z"
         style="opacity:0.98999999;fill:#ffffff;fill-opacity:1;stroke:none;stroke-width:0.04921825;stroke-miterlimit:4;stroke-dasharray:none;stroke-dashoffset:0;stroke-opacity:1" />
      <path
         sodipodi:nodetypes="sssss"
         inkscape:connector-curvature="0"
         id="path2564-8-52"
         d="m -241.93957,40.234057 c 0,0.419443 -0.55017,0.759468 -1.22884,0.759468 -0.67867,0 -1.21647,-0.340208 -1.22885,-0.759468 -0.0102,-0.3476 0.52965,-0.872361 1.22885,-0.759467 0.66999,0.108179 1.22884,0.340025 1.22884,0.759467 z"
         style="opacity:0.98999999;fill:#ffffff;fill-opacity:1;stroke:none;stroke-width:0.05805671;stroke-miterlimit:4;stroke-dasharray:none;stroke-dashoffset:0;stroke-opacity:1" />
      <path
         sodipodi:nodetypes="sssss"
         inkscape:connector-curvature="0"
         id="path2564-8-9"
         d="m -272.20926,37.569813 c 0,-0.381023 -0.49978,-0.689903 -1.11629,-0.689903 -0.61651,0 -1.10503,0.309046 -1.11628,0.689903 -0.009,0.315761 0.48113,0.792455 1.11628,0.689901 0.60863,-0.09827 1.11629,-0.308879 1.11629,-0.689901 z"
         style="opacity:0.98999999;fill:#ffffff;fill-opacity:1;stroke:none;stroke-width:0.05273885;stroke-miterlimit:4;stroke-dasharray:none;stroke-dashoffset:0;stroke-opacity:1" />
      <path
         sodipodi:nodetypes="sssss"
         inkscape:connector-curvature="0"
         id="path2564-8-2-1"
         d="m -265.6275,43.33078 c 0,-0.345715 -0.45347,-0.625973 -1.01284,-0.625973 -0.55939,0 -1.00265,0.280408 -1.01285,0.625973 -0.008,0.286502 0.43655,0.719022 1.01285,0.625973 0.55222,-0.08916 1.01284,-0.280258 1.01284,-0.625973 z"
         style="opacity:0.98999999;fill:#ffffff;fill-opacity:1;stroke:none;stroke-width:0.04785185;stroke-miterlimit:4;stroke-dasharray:none;stroke-dashoffset:0;stroke-opacity:1" />
      <path
         sodipodi:nodetypes="sssss"
         inkscape:connector-curvature="0"
         id="path2564-8-0-8"
         d="m -262.12831,38.921001 c 0,-0.403479 -0.52924,-0.730562 -1.18208,-0.730562 -0.65284,0 -1.17016,0.327259 -1.18208,0.730562 -0.01,0.334371 0.5095,0.83916 1.18208,0.730563 0.6445,-0.104062 1.18208,-0.327084 1.18208,-0.730563 z"
         style="opacity:0.98999999;fill:#ffffff;fill-opacity:1;stroke:none;stroke-width:0.05584709;stroke-miterlimit:4;stroke-dasharray:none;stroke-dashoffset:0;stroke-opacity:1" />
      <path
         sodipodi:nodetypes="sssss"
         inkscape:connector-curvature="0"
         id="path2564-8-27-0"
         d="m -258.59343,43.507548 c 0,-0.288352 -0.37823,-0.522108 -0.84479,-0.522108 -0.46657,0 -0.83628,0.233881 -0.84479,0.522108 -0.007,0.238964 0.36411,0.599718 0.84479,0.522108 0.46059,-0.07437 0.84479,-0.233755 0.84479,-0.522108 z"
         style="opacity:0.98999999;fill:#ffffff;fill-opacity:1;stroke:none;stroke-width:0.039912;stroke-miterlimit:4;stroke-dasharray:none;stroke-dashoffset:0;stroke-opacity:1" />
      <path
         sodipodi:nodetypes="sssss"
         inkscape:connector-curvature="0"
         id="path2564-8-5-7"
         d="m -251.46582,42.254544 c 0,-0.371284 -0.48701,-0.672269 -1.08776,-0.672269 -0.60075,0 -1.0768,0.301147 -1.08776,0.672269 -0.009,0.307691 0.46884,0.772201 1.08776,0.672269 0.59307,-0.09576 1.08776,-0.300985 1.08776,-0.672269 z"
         style="opacity:0.98999999;fill:#ffffff;fill-opacity:1;stroke:none;stroke-width:0.05139092;stroke-miterlimit:4;stroke-dasharray:none;stroke-dashoffset:0;stroke-opacity:1" />
      <path
         sodipodi:nodetypes="sssss"
         inkscape:connector-curvature="0"
         id="path2564-8-54-1"
         d="m -253.80287,38.728865 c 0,-0.355587 -0.46642,-0.643847 -1.04177,-0.643847 -0.57535,0 -1.03127,0.288415 -1.04177,0.643847 -0.009,0.294683 0.44902,0.739555 1.04177,0.643848 0.568,-0.09171 1.04177,-0.28826 1.04177,-0.643848 z"
         style="opacity:0.98999999;fill:#ffffff;fill-opacity:1;stroke:none;stroke-width:0.04921825;stroke-miterlimit:4;stroke-dasharray:none;stroke-dashoffset:0;stroke-opacity:1" />
      <path
         sodipodi:nodetypes="sssss"
         inkscape:connector-curvature="0"
         id="path2564-8-52-8"
         d="m -249.16369,36.824531 c 0,-0.317168 -0.41602,-0.574283 -0.9292,-0.574283 -0.51319,0 -0.91985,0.257253 -0.92921,0.574283 -0.008,0.262842 0.4005,0.659648 0.92921,0.574281 0.50662,-0.0818 0.9292,-0.257114 0.9292,-0.574281 z"
         style="opacity:0.98999999;fill:#ffffff;fill-opacity:1;stroke:none;stroke-width:0.04390039;stroke-miterlimit:4;stroke-dasharray:none;stroke-dashoffset:0;stroke-opacity:1" />
    </g>
  </g>
</svg>
