<?xml version="1.0" encoding="UTF-8" standalone="no"?>
<!-- Created with Inkscape (http://www.inkscape.org/) -->

<svg
   xmlns:dc="http://purl.org/dc/elements/1.1/"
   xmlns:cc="http://creativecommons.org/ns#"
   xmlns:rdf="http://www.w3.org/1999/02/22-rdf-syntax-ns#"
   xmlns:svg="http://www.w3.org/2000/svg"
   xmlns="http://www.w3.org/2000/svg"
   xmlns:sodipodi="http://sodipodi.sourceforge.net/DTD/sodipodi-0.dtd"
   xmlns:inkscape="http://www.inkscape.org/namespaces/inkscape"
   width="300"
   height="300"
   viewBox="0 0 79.374998 79.375002"
   version="1.1"
   id="svg1234"
   inkscape:version="0.92.4 (5da689c313, 2019-01-14)"
   sodipodi:docname="na10.svg">
  <defs
     id="defs1228" />
  <sodipodi:namedview
     id="base"
     pagecolor="#ffffff"
     bordercolor="#666666"
     borderopacity="1.0"
     inkscape:pageopacity="0.0"
     inkscape:pageshadow="2"
     inkscape:zoom="0.7"
     inkscape:cx="-221.51357"
     inkscape:cy="156.68078"
     inkscape:document-units="px"
     inkscape:current-layer="layer1"
     showgrid="false"
     units="px" />
  <metadata
     id="metadata1231">
    <rdf:RDF>
      <cc:Work
         rdf:about="">
        <dc:format>image/svg+xml</dc:format>
        <dc:type
           rdf:resource="http://purl.org/dc/dcmitype/StillImage" />
        <dc:title></dc:title>
        <dc:creator>
          <cc:Agent>
            <dc:title>Sandie Skeen</dc:title>
          </cc:Agent>
        </dc:creator>
        <dc:rights>
          <cc:Agent>
            <dc:title>Copyright - All rights reserved - Tous droits réservés</dc:title>
          </cc:Agent>
        </dc:rights>
        <dc:description>Toulouse, France</dc:description>
      </cc:Work>
    </rdf:RDF>
  </metadata>
  <g
     inkscape:label="Calque 1"
     inkscape:groupmode="layer"
     id="layer1"
     transform="translate(0,-217.62499)">
    <g
       id="g3875-11-1-0-7-8"
       transform="translate(-1124.2379,477.54816)">
      <rect
         ry="6.8791666"
         rx="6.8791666"
         y="-259.27255"
         x="1124.8885"
         height="78.073769"
         width="78.073769"
         id="rect5205-0-1-9-2-4-3-8-4-9-0-6-7-7-5-6-2-2-8-9-5-6-2-5-8-7-1-980-3-2-6-0-3-5-9-9-0-30"
         style="opacity:1;fill:#ffffff;fill-opacity:1;stroke:#8bf0ec;stroke-width:1.30122089;stroke-miterlimit:4;stroke-dasharray:none;stroke-dashoffset:0;stroke-opacity:1" />
      <rect
         inkscape:export-ydpi="43.548504"
         inkscape:export-xdpi="43.548504"
         inkscape:export-filename="C:\Users\sandi\AndroidStudioProjects\Mnemosis\app\src\main\res\drawable\dos.png"
         transform="rotate(-90)"
         ry="4.7624993"
         rx="4.7624993"
         y="1129.3967"
         x="185.70691"
         height="69.057289"
         width="69.057289"
         id="rect5169-4-0-4-9-7-5-2-3-6-7-2-3-4-7-1-8-9-3-36-4-4-8-1-6-8-6-4-1-4-7-6-5-4-2-5-4-8-8-2-6-6-4"
         style="display:inline;opacity:1;fill:#8bf0ec;fill-opacity:1;stroke:none;stroke-width:2.30172825;stroke-miterlimit:4;stroke-dasharray:none;stroke-dashoffset:0;stroke-opacity:1" />
    </g>
    <path
       style="color:#000000;font-style:normal;font-variant:normal;font-weight:normal;font-stretch:normal;font-size:medium;line-height:normal;font-family:sans-serif;text-indent:0;text-align:start;text-decoration:none;text-decoration-line:none;text-decoration-style:solid;text-decoration-color:#000000;letter-spacing:normal;word-spacing:normal;text-transform:none;writing-mode:lr-tb;direction:ltr;baseline-shift:baseline;text-anchor:start;white-space:normal;clip-rule:nonzero;display:inline;overflow:visible;visibility:visible;opacity:1;isolation:auto;mix-blend-mode:normal;color-interpolation:sRGB;color-interpolation-filters:linearRGB;solid-color:#000000;solid-opacity:1;fill:#3ed03e;fill-opacity:1;fill-rule:evenodd;stroke:#ffffff;stroke-width:0.2603631;stroke-linecap:butt;stroke-linejoin:miter;stroke-miterlimit:4;stroke-dasharray:none;stroke-dashoffset:0;stroke-opacity:1;color-rendering:auto;image-rendering:auto;shape-rendering:auto;text-rendering:auto;enable-background:accumulate"
       d="m 35.112822,222.62627 -0.02551,0.1342 -0.025,0.1332 -0.003,0.015 c -1.169818,1.0353 -2.427168,2.3902 -3.162498,3.8272 -0.378712,0.74 -0.621541,1.5054 -0.615821,2.2614 0.005,0.6782 0.294799,1.3075 0.755671,1.8647 -0.0766,0.2345 -0.134141,0.4604 -0.165282,0.6372 -0.01069,0.061 -0.01939,0.1039 -0.0289,0.1536 -0.0911,-0.049 -0.187881,-0.097 -0.403251,-0.2594 -7.94e-4,-6.1e-4 -7.94e-4,-4e-4 -0.0021,0 l -0.101698,-0.082 h -0.13222 -0.0021 -5.29e-4 c -1.391491,0 -3.214291,-0.2878 -4.93672,-0.5024 -1.72214,-0.2146 -3.33902,-0.3811 -4.47093,-0.032 l -0.73023,0.2253 0.61124,0.4612 c 1.23605,0.9285 3.25894,1.7348 5.204211,2.2924 0.972918,0.279 1.9236,0.4917 2.744488,0.6148 0.59168,0.089 1.023922,0.077 1.42589,0.047 -0.19467,0.606 -0.303749,1.2464 -0.42156,1.5607 -0.0401,0.1068 -0.0807,0.1737 -0.11493,0.21 -0.0382,0.041 -0.0602,0.056 -0.135768,0.071 -0.124132,0.026 -0.478912,-0.013 -1.047052,-0.2736 l -0.02601,-0.012 h -0.003 l -0.0366,-0.016 -0.0737,-0.01 h -0.005 c -3.451009,-0.2325 -6.906709,-0.757 -10.426989,-0.8187 h -5.03e-4 l -1.09332,-0.023 0.83398,0.7094 c 1.98545,1.6897 5.17989,2.4502 7.86428,3.255 0.006,0 0.008,0.001 0.0132,0 0,0 5.03e-4,0 5.03e-4,0 6.35e-4,2e-4 9.79e-4,3.9e-4 0.002,5e-4 l 0.002,0.001 c 0.003,0 0.007,0 0.007,0 1.4e-4,1e-4 0.0361,0.01 0.0381,0.01 h 9.79e-4 c 1.025119,0.5099 2.225038,0.3198 2.914328,0.2863 0.147061,-0.01 0.25169,-6.1e-4 0.333082,0.01 -0.0412,0.1036 -0.1343,0.2778 -0.294942,0.5116 h -0.006 l -0.02241,0.041 -0.008,0.016 h -0.003 l -0.003,0.01 c -0.172239,0.3782 -0.269799,0.7699 -0.344779,1.104 -0.051,0.2276 -0.087,0.3591 -0.12459,0.4983 -0.007,-0.01 -0.007,-0.01 -0.01471,-0.016 -0.10527,-0.1344 -0.240631,-0.3273 -0.39919,-0.5837 l -0.0956,-0.1531 -0.12967,-0.02 h -0.003 l -0.0539,-0.01 c -4.318954,-0.5707 -8.801684,-0.1505 -13.095474,0.147 h -0.0376 l -0.0433,0.013 c -0.52841,0.084 -0.88852,0.1631 -1.14163,0.2766 -0.1227,0.055 -0.27558,0.1382 -0.36257,0.3076 -0.054,0.105 -0.0673,0.227 -0.0371,0.3423 l 5.29e-4,5e-4 c 0.0273,0.103 0.0827,0.1819 0.13882,0.2385 0.191,0.1926 0.44532,0.2678 0.74245,0.3544 0.30671,0.09 0.68394,0.1716 1.10298,0.2528 0.83853,0.1625 1.84738,0.3167 2.73229,0.4546 0.88359,0.1376 1.67393,0.2706 1.94966,0.3529 2.2e-4,0 5.55e-4,3.9e-4 0.002,5e-4 l 0.0478,0.017 h 0.0666 5.29e-4 c 1.25765,-0.012 2.90658,0.584 4.48719,0.9352 0.79038,0.1756 1.57499,0.2904 2.313769,0.2039 0.39312,-0.046 0.70789,-0.239 1.004339,-0.4516 -0.0333,0.1006 -0.0753,0.1844 -0.0966,0.3026 -0.0862,0.4773 -0.14768,0.9597 -0.228838,1.2876 l -5.29e-4,5.3e-4 c -0.0347,0.1403 -0.0749,0.2353 -0.102212,0.2909 -0.0241,-0.014 -0.0431,-0.023 -0.0778,-0.053 -0.118451,-0.1025 -0.294711,-0.2991 -0.506481,-0.593 l -5.29e-4,-5.3e-4 -0.11493,-0.1551 -0.193738,-0.01 h -0.0021 -0.003 c -4.07985,-0.081 -8.07372,0.9672 -12.06416,1.1111 0,0 -5.29e-4,0 -5.29e-4,0 -0.71582,-0.018 -1.28337,0.033 -1.70456,0.1424 -0.21253,0.055 -0.392831,0.1244 -0.543611,0.2223 -0.15384,0.1 -0.30638,0.2552 -0.34223,0.4769 -0.0376,0.2325 0.0775,0.4352 0.21764,0.5686 0.13065,0.1243 0.29576,0.2173 0.495301,0.2959 0.3932,0.1549 0.9482,0.2638 1.67355,0.3229 0.002,2e-4 0.003,7.9e-4 0.005,0 h 9.79e-4 0.006 c -0.025,0 -0.0585,-0.019 -0.0559,-0.018 0.003,0 0.0429,0.02 0.0712,0.02 h -0.0224 c 3.822329,0.6609 7.870629,1.2352 11.857689,0.834 h 0.002 0.009 l 0.003,-5.3e-4 0.141371,-0.017 0.0951,-0.096 c 0.21172,-0.2148 0.33591,-0.29229 0.438341,-0.358 -6.1e-5,0 5.29e-4,0 5.29e-4,0 -0.006,0.15311 -0.0395,0.3696 -0.091,0.5985 -0.102719,0.4567 -0.280109,0.9773 -0.420039,1.2962 -1.479002,-0.7707 -3.265902,-0.8137 -5.093872,-0.6305 -1.9355,0.194 -3.92177,0.59901 -5.59373,0.63 h -0.007 -0.0111 l -0.005,5.3e-4 c -0.890481,0.07 -2.80682,0.3048 -3.997491,0.6362 -0.29732,0.083 -0.55099,0.1705 -0.75516,0.2853 -0.0985,0.055 -0.20414,0.1242 -0.28782,0.2344 -0.0976,0.1285 -0.15401,0.316 -0.0864,0.505 0.0591,0.1652 0.18481,0.2671 0.29392,0.3356 0.11264,0.071 0.24521,0.1277 0.40225,0.1805 0.31127,0.1047 0.74085,0.2013 1.327741,0.295 3.17e-4,0 7.4e-4,-1e-4 0.001,0 6.88e-4,1e-4 9e-4,5.3e-4 0.002,5.3e-4 3.97654,0.7087 8.20141,1.3106 12.35554,0.9209 l -0.028,0.027 0.502421,-0.057 0.0926,-0.086 v -5.3e-4 h 0.002 c 0.27382,-0.2431 0.40449,-0.3144 0.54006,-0.3987 -0.009,0.096 -0.006,0.1516 -0.0284,0.2787 -0.0608,0.3453 -0.0881,0.7297 -0.0997,1.1035 -0.52112,-0.3779 -1.090909,-0.6595 -1.73559,-0.7033 -0.863389,-0.059 -1.77043,0.1205 -2.682959,0.3794 -1.82327,0.5172 -3.70474,1.3638 -5.161491,1.5326 h -0.009 l -0.0626,0.013 -0.0666,0.026 c -0.58616,0.2639 -2.02123,0.5544 -3.23928,0.8767 -0.611761,0.1619 -1.177021,0.3331 -1.608461,0.5579 -0.21432,0.1117 -0.40748,0.239 -0.54971,0.419 -0.15284,0.1934 -0.22675,0.4602 -0.14493,0.7211 0,0 0,5.3e-4 0,5.3e-4 l 0.0742,0.2502 0.26036,0.023 c 3.881601,0.364 7.941911,0.2667 11.786511,-0.3697 -2.70794,0.5007 -5.23954,1.7829 -7.68426,2.4897 -0.91152,0.2497 -2.41899,0.8662 -3.245391,1.3898 -0.20368,0.12911 -0.37863,0.25121 -0.50496,0.4175 -0.0628,0.083 -0.14053,0.2175 -0.12764,0.39 v 0 c 0.0154,0.1929 0.14153,0.3338 0.27817,0.4064 0.21585,0.1145 0.45968,0.11931 0.78109,0.1073 0.328371,-0.012 0.757651,-0.061 1.323681,-0.1511 3.21102,-0.50119 6.50368,-0.6851 9.7875,-0.96869 -3.37394,1.60399 -7.11541,2.84389 -10.54012,4.4816 l -0.785151,0.36969 0.720571,0.3066 v 0 l 0.0789,0.034 c 1.15809,0.4946 2.76464,0.393 4.43532,0.16941 1.66856,-0.22341 3.40475,-0.5934 4.72721,-0.75921 h 0.0142 0.0122 c 1.28895,-0.1139 2.88568,-0.53619 4.17801,-1.0695 0.651181,-0.2686 1.22271,-0.5645 1.646091,-0.88119 0.141928,-0.10621 0.241959,-0.22261 0.345279,-0.33871 0.0705,0.11841 0.14121,0.2394 0.213069,0.3458 0.184351,0.273 0.329832,0.53551 0.352411,0.62401 0.01471,0.058 0.01209,0.035 0.008,0.045 h 5.29e-4 c -0.003,0.01 0.0021,-5.3e-4 -0.003,0 -0.005,0.01 -0.0204,0.018 -0.0564,0.038 -0.121809,0.068 -0.52905,0.17819 -1.191469,0.21809 h -0.0849 l -0.0789,0.043 c -3.243572,1.58189 -6.378382,3.31008 -9.225032,5.24799 l -5.3e-4,5.2e-4 -0.44953,0.3112 0.64582,0.4795 v -0.074 c 0.47945,0.26639 1.06929,0.33739 1.73305,0.2736 0.75473,-0.072 1.60764,-0.2824 2.48616,-0.54061 1.75425,-0.51549 3.62701,-1.2357 4.840611,-1.5093 0,0 5.29e-4,0 5.29e-4,0 0.01119,0 0.0146,0 0.005,0 v -5.3e-4 c 1.348988,-0.10959 2.370248,-0.87799 3.0608,-1.22089 0.349999,-0.1738 0.57985,-0.21231 0.702778,-0.16731 0.12446,0.045 0.336352,0.23991 0.54818,0.84561 l 0.0376,0.118 0.100182,0.068 h 0.003 l 0.01061,0.01 c 0.350531,0.2341 0.55362,0.439 0.631071,0.5599 0.0454,0.071 0.0592,0.109 0.0611,0.1215 0.0021,0.013 0.0021,0.015 -0.01468,0.054 -0.008,0.019 -0.117052,0.1514 -0.298501,0.26651 -0.183282,0.11639 -0.44079,0.2402 -0.74142,0.36 -0.605902,0.24149 -1.37858,0.4821 -2.111902,0.77049 -0.679177,0.26701 -1.307147,0.58681 -1.773719,1.02211 -5.29e-4,5.3e-4 -0.0021,5.3e-4 -0.0021,0.001 l -0.0168,0.01 -0.0265,0.013 c -0.78903,0.3816 -2.237132,1.2134 -3.034352,1.8688 -0.1996,0.164 -0.36396,0.31669 -0.47801,0.4932 -0.0545,0.085 -0.12229,0.211 -0.11746,0.3708 v 5.3e-4 c 0.007,0.1905 0.1215,0.34869 0.27561,0.42969 0.23231,0.12191 0.48522,0.098 0.7994,0.054 0.3183,-0.045 0.73694,-0.1402 1.27944,-0.29141 h 0.008 c 1.45264,-0.3102 3.276989,-0.8641 4.919441,-1.3847 1.566799,-0.49669 2.904188,-0.9339 3.59982,-1.1137 0.19916,0.14231 0.379,0.29041 0.41089,0.3341 0.0276,0.038 0.0294,0.047 0.032,0.053 1.8e-4,0 -0.004,0.01 -0.028,0.029 -0.0305,0.03 -0.0775,0.069 -0.140859,0.10731 -0.133779,0.081 -0.33782,0.17169 -0.576659,0.26189 -0.480002,0.18111 -1.103651,0.3704 -1.698972,0.61731 -0.5451,0.2261 -1.056709,0.51689 -1.433018,0.9301 0,0 -5.29e-4,0 -5.29e-4,0 v 5.3e-4 c -0.006,0.01 -0.0145,0.01 -0.0204,0.017 -5.29e-4,-5.3e-4 -0.004,-0.01 -0.004,-0.01 -0.007,0 -0.006,0 -0.008,0.01 -0.003,0 -0.007,0 -0.007,0 h -5.29e-4 v 5.3e-4 c -0.66398,0.3993 -2.37458,1.4191 -3.416761,2.2303 -0.262339,0.2042 -0.483031,0.3934 -0.646329,0.5777 -0.0796,0.09 -0.15466,0.1859 -0.207481,0.3016 -0.0559,0.1225 -0.0952,0.3051 -0.006,0.4846 v 5.3e-4 c 0.0902,0.18 0.26326,0.2604 0.403762,0.2914 0.129939,0.029 0.268488,0.032 0.426148,0.02 0.303591,-0.024 0.711491,-0.1126 1.24283,-0.2528 h 0.0366 l 0.0132,-0.01 h -0.006 l 0.0173,-0.01 c 1.33861,-0.3812 3.182419,-0.9385 4.79842,-1.5011 0.807961,-0.2813 1.558671,-0.5635 2.1658,-0.8284 0.44159,-0.1927 0.716672,-0.3668 0.963131,-0.5441 0.218599,0.2952 0.44717,0.5893 0.64633,0.8609 0.2599,0.3544 0.45984,0.6999 0.509539,0.894 0.0263,0.1025 0.01979,0.153 0.008,0.1871 -0.0154,0.042 -0.0281,0.068 -0.13222,0.1292 v 5.3e-4 c -0.188802,0.1115 -0.712211,0.2416 -1.58659,0.2507 h -0.0676 l -0.0641,0.025 c -0.55413,0.2067 -1.942759,0.5098 -3.095879,0.835 -0.576141,0.1625 -1.100299,0.3295 -1.485389,0.5284 -0.188741,0.097 -0.36485,0.2055 -0.49022,0.3793 -0.0681,0.094 -0.120761,0.2171 -0.12205,0.358 -0.0011,0.1127 0.0507,0.207 0.103738,0.297 1.72e-4,2.7e-4 -1.59e-4,8e-4 0,0 v 0.047 l 0.148492,0.1841 h 0.189688 c 1.324901,-0.01 3.013181,-0.061 4.57313,-0.1734 1.398611,-0.1008 2.59027,-0.2613 3.439641,-0.475 1.296279,3.2117 0.85598,6.702 -0.0132,10.0377 v 0 l -0.109331,0.4363 0.445461,0.051 h 5.29e-4 c 0.512159,0.056 0.925909,0.071 1.285031,0.021 0.361849,-0.05 0.67523,-0.1764 0.920938,-0.3977 l 5.29e-4,-5.3e-4 0.138832,-0.1276 -0.0122,-0.179 v -5.3e-4 0 c -0.1226,-2.8411 -0.29558,-5.1424 -0.664118,-7.7214 -0.0718,-0.5585 -0.01389,-1.002 0.283758,-1.37 0.29582,-0.3657 0.893511,-0.7032 2.034082,-0.8762 h 0.01011 l 0.02551,-0.01 0.110858,-0.022 v -0.012 c 0.882481,-0.2429 2.11483,-0.6147 2.773992,-0.9677 0.1588,-0.085 0.32715,-0.1745 0.439359,-0.3555 0.0782,-0.1259 0.11058,-0.308 0.02191,-0.477 -0.078,-0.1483 -0.21164,-0.2179 -0.302559,-0.2532 -0.186632,-0.072 -0.404331,-0.095 -0.70788,-0.1048 -0.29288,-0.01 -0.678402,0 -1.153332,0.03 -0.0762,-0.016 -0.152908,-0.029 -0.228309,-0.04 -1.39951,-0.1988 -2.689449,0.4157 -3.5917,0.7023 -0.447259,0.1421 -0.811091,0.175 -0.94026,0.1297 -0.0857,-0.03 -0.115081,-0.048 -0.18052,-0.1546 -0.0591,-0.097 -0.12365,-0.2809 -0.160179,-0.5548 l -5.29e-4,-10e-4 -0.0122,-0.081 -0.02141,-0.035 v 0 l -0.01881,-0.031 c -0.046,-0.076 -0.0633,-0.1233 -0.0676,-0.1485 -0.004,-0.025 -0.0021,-0.033 0.009,-0.064 0.01159,-0.031 0.0829,-0.1295 0.243081,-0.2263 0.32213,-0.1946 0.965949,-0.3922 1.690831,-0.5634 0.726048,-0.1715 1.546658,-0.3313 2.294948,-0.5355 0.74042,-0.202 1.415772,-0.4359 1.888151,-0.8258 -0.0021,0 -0.004,0 -0.007,0 l 0.01881,-0.013 c -0.004,0 -0.008,0.01 -0.0122,0.01 0.164111,-0.094 0.30924,-0.1825 0.424609,-0.2807 0.119081,-0.1013 0.23627,-0.2258 0.2853,-0.4023 0.0599,-0.2157 -0.0268,-0.4301 -0.180538,-0.5583 -0.123272,-0.1029 -0.265512,-0.1512 -0.402752,-0.1841 -0.55463,-0.133 -1.419249,-0.094 -2.43786,0 -1.02035,0.095 -2.168491,0.264 -3.166549,0.4597 -0.92129,0.1806 -1.664132,0.3715 -2.143422,0.5879 -0.02299,-0.01 -0.0527,-0.019 -0.0895,-0.039 -0.0957,-0.052 -0.229661,-0.1438 -0.365119,-0.2553 -0.270561,-0.2228 -0.565373,-0.5442 -0.724631,-0.8116 -0.0794,-0.1333 -0.12546,-0.2611 -0.134252,-0.3245 -0.006,-0.042 -0.004,-0.061 -0.004,-0.065 7.94e-4,0 5.29e-4,0 0.0122,-0.017 -0.003,0 0.0778,-0.065 0.25273,-0.097 0.174829,-0.032 0.449059,-0.041 0.820759,0 l 0.0011,5.3e-4 0.109839,0.01 0.109332,-0.038 5.29e-4,-5.3e-4 c 1.06725,-0.3967 2.647238,-0.7999 4.079859,-1.2631 0.72028,-0.2329 1.403789,-0.4801 1.97766,-0.7623 0.571651,-0.2812 1.05142,-0.5918 1.33283,-1.0176 l 5.3e-4,-5.3e-4 0.36867,-0.5558 -0.670258,-0.049 h -5.3e-4 c -1.726289,-0.11159 -3.887459,0.026 -5.850027,0.32601 -1.813182,0.27719 -3.339621,0.70089 -4.329552,1.23669 -0.178559,-0.2271 -0.368519,-0.44919 -0.539038,-0.64069 -0.198752,-0.2233 -0.358582,-0.41941 -0.425122,-0.5314 0.0325,-0.01 0.0624,-0.019 0.108821,-0.027 0.137149,-0.025 0.335719,-0.044 0.597,-0.046 0.1397,-10e-4 0.299331,0 0.47852,0.01 h 0.003 0.004 0.0621 l 0.0381,-0.012 h 0.0021 l 0.01781,-0.01 c 4.013729,-1.1787 8.26798,-2.3204 11.734139,-4.2782 l 0.934169,-0.5309 -1.05469,-0.1932 h -5.29e-4 c -3.09164,-0.5768 -6.45328,0.082 -9.47629,0.4154 -1.177131,0.025 -2.55774,0.371 -3.708151,0.7958 -0.576009,0.2128 -1.09096,0.4435 -1.499119,0.6779 -0.229762,0.1319 -0.34821,0.2678 -0.46936,0.3997 -0.146759,-0.1814 -0.296961,-0.3634 -0.430221,-0.5253 -0.20348,-0.2473 -0.36304,-0.5016 -0.388509,-0.5772 0.004,0 0.0011,-7.9e-4 0.005,0 0.106291,-0.046 0.531921,-0.1158 1.215882,-0.081 v -0.001 l 0.0549,0.01 0.0717,-0.021 c 3.79368,-1.0838 7.856651,-1.6274 11.820591,-2.446 l 0.945851,-0.1962 -0.816192,-0.5162 c -1.00239,-0.6366 -2.527779,-0.8039 -4.148,-0.8736 -1.61835,-0.07 -3.334448,-0.017 -4.644329,-0.083 h -0.004 -0.007 -0.01371 v 0 c -0.654711,-0.077 -1.381821,-0.062 -2.12054,0.01 0.0751,-0.035 0.15775,-0.062 0.227819,-0.1028 l 0.004,0.01 0.0819,-0.041 0.0209,-0.01 c 2.627471,-0.9253 6.44304,-0.9568 8.858959,-2.088 l 1.086712,-0.5105 -1.179271,-0.2268 c -4.435269,-0.8525 -9.220989,-0.675 -13.68991,-0.12 h -0.01 l -0.0778,0.014 -0.0605,0.033 c -0.426792,0.231 -0.752462,0.4156 -0.981441,0.52781 -0.112701,0.055 -0.203361,0.092 -0.2624,0.1099 -0.008,0 -0.01169,0 -0.01881,0 -0.01,-0.017 -0.0108,-0.014 -0.02291,-0.049 -0.0478,-0.13751 -0.104288,-0.43101 -0.165769,-0.83401 v 0 l -0.01371,-0.075 -0.0132,-0.024 v 10e-4 l -0.01371,-0.027 c -0.0394,-0.078 -0.0551,-0.1335 -0.0611,-0.1663 0.0113,-0.01 0.0158,-0.01 0.0513,-0.02 0.177472,-0.054 0.715521,-0.057 1.30995,-0.01 0.5974,0.052 1.28896,0.1356 1.953241,0.1617 0.611629,0.024 1.193951,-0.01 1.69286,-0.1866 h 0.0407 0.0021 0.0021 0.003 0.005 c 1.347531,-0.1944 3.307191,-0.249 5.09945,-0.4104 0.89771,-0.081 1.755269,-0.1892 2.487689,-0.3621 0.730761,-0.1725 1.351981,-0.3998 1.76762,-0.8039 l 5.3e-4,-5.3e-4 0.4841,-0.47249 -0.65345,-0.1846 h -5.29e-4 c -4.324342,-1.19211 -9.10708,-1.7867 -13.75247,-1.5494 l -0.143909,0.01 -0.104752,0.099 c -0.226171,0.2072 -0.411839,0.2898 -0.448,0.2975 0,0 -5.29e-4,0 -5.29e-4,0 -0.0011,0 -0.01939,-0.034 -0.0361,-0.084 -0.01831,-0.055 -0.0366,-0.1279 -0.0483,-0.2106 -0.02389,-0.1695 -0.0306,-0.3849 -0.0127,-0.6051 0.0353,-0.4339 0.15708,-0.9055 0.269012,-1.163 l 0.0295,0.01 c 0,0 5.29e-4,0 5.29e-4,0 l 0.0021,5.3e-4 c 3.608959,0.8329 7.5496,0.6306 11.236299,0.7297 0.972301,0.1 2.237401,0.027 2.96976,-0.1922 0.177101,-0.053 0.35723,-0.1144 0.501401,-0.2598 0.0842,-0.085 0.162611,-0.2172 0.156628,-0.3825 v -5.3e-4 -5.3e-4 c -0.007,-0.1616 -0.0909,-0.2857 -0.174418,-0.3666 -0.150821,-0.1462 -0.34653,-0.2282 -0.60311,-0.3128 -0.25931,-0.086 -0.5978,-0.17 -1.03891,-0.2552 l -0.003,-5.3e-4 c -3.65837,-0.8071 -7.161779,-2.1151 -11.033911,-2.6271 h -0.009 -0.01881 -0.004 -0.008 l 0.01011,5.3e-4 c -0.4434,-0.034 -0.8465,0.053 -1.177729,0.1638 -0.160661,0.053 -0.302731,0.1113 -0.428692,0.1647 0.0227,-0.069 0.0296,-0.107 0.0681,-0.2064 l 5.29e-4,-0.001 0.0204,-0.051 0.006,-0.067 v 0 c 0.0105,-0.1828 0.0477,-0.2474 0.124079,-0.3214 0.0688,-0.067 0.19362,-0.1313 0.388501,-0.1698 0.387019,-0.077 1.029729,-0.033 1.744239,0.074 1.412679,0.2105 3.12351,0.6503 4.423619,0.452 0.75542,-0.026 2.547932,0.1588 4.04427,0.2325 0.747901,0.037 1.424972,0.051 1.927302,-0.02 0.24601,-0.035 0.476988,-0.084 0.667689,-0.2345 0.106641,-0.084 0.20479,-0.2141 0.22579,-0.3839 0.02019,-0.1639 -0.0353,-0.3097 -0.10578,-0.4216 l -5.29e-4,-5.3e-4 -0.0748,-0.118 -0.1373,-0.046 -0.0011,-5.3e-4 c -3.547639,-1.0976 -7.323101,-1.7232 -10.868128,-2.6717 l -0.0011,-5.3e-4 c -0.0011,-2.6e-4 -0.0021,-2.6e-4 -0.003,-5.3e-4 l -0.10119,-0.031 -0.101711,0.029 c 0,0 -5.3e-4,0 -5.3e-4,0 l -0.0021,5.3e-4 c -0.609939,0.1587 -1.031719,0.2213 -1.249439,0.2167 -0.0895,0 -0.124929,-0.016 -0.142391,-0.022 2.64e-4,-0.019 5.29e-4,-0.039 0.003,-0.069 0.007,-0.077 0.0236,-0.1834 0.0575,-0.3031 0.0709,-0.2514 0.190649,-0.5864 0.308161,-0.9703 h 5.29e-4 l 0.0173,-0.054 v -0.063 0 0 c -0.006,-0.2345 0.0411,-0.337 0.0977,-0.4063 0.0559,-0.068 0.131709,-0.1161 0.30054,-0.1464 0.327289,-0.059 0.946978,0.025 1.639469,0.1942 1.34819,0.3292 3.003669,0.9282 4.322959,0.8019 0.003,-2e-4 0.006,2.6e-4 0.008,0 v 0 c 5.29e-4,1e-4 5.29e-4,5.3e-4 0.0021,5.3e-4 0.0011,2e-4 1.19e-4,-2e-4 0.0011,0 2.65e-4,0 0.0011,5.3e-4 0.0021,5.3e-4 0.0123,0 0.01101,10e-4 0.01471,10e-4 7.94e-4,-1e-4 0.003,1e-4 0.003,0 0.0021,2.7e-4 0.005,8e-4 0.006,0.001 v 5.3e-4 c 5.29e-4,0 5.29e-4,0 0.003,0 0,0 5.29e-4,0 5.29e-4,0 0.898819,0.1726 2.65716,0.3736 3.78391,0.3519 0.284451,-0.01 0.527859,-0.023 0.7338,-0.073 0.0991,-0.024 0.21209,-0.059 0.31681,-0.1383 0.136419,-0.1036 0.235619,-0.2894 0.190701,-0.4964 -0.0371,-0.1704 -0.149932,-0.2791 -0.234442,-0.3493 -0.0917,-0.076 -0.2018,-0.1452 -0.33714,-0.2167 h -5.29e-4 c -0.267521,-0.1411 -0.645991,-0.2989 -1.166551,-0.4846 l -0.0295,-0.013 h -0.02389 c -1.35945,-0.3178 -2.782329,-1.0784 -4.266499,-1.6898 -1.388059,-0.5718 -2.857539,-0.9722 -4.39362,-0.7211 0.0524,-0.2087 0.10437,-0.422 0.149,-0.5919 0.0708,-0.2699 0.157639,-0.4856 0.215609,-0.5609 0.0477,-0.062 0.077,-0.09 0.12052,-0.1088 0.0436,-0.019 0.11384,-0.032 0.241541,-0.029 0.236109,0.01 0.658429,0.1129 1.26419,0.3753 l 0.0249,0.011 h 0.003 l 0.0503,0.021 h 0.0783 c 1.181928,0.01 2.862328,0.2007 4.439388,0.2746 1.574181,0.074 3.05435,0.07 3.97461,-0.534 l 0.51666,-0.3346 -0.525309,-0.3239 c -2.51864,-1.5529 -7.025071,-2.2627 -9.216451,-2.5752 0.0637,-0.2792 0.123899,-0.5564 0.186129,-0.7668 0.0837,-0.2831 0.18959,-0.4888 0.270521,-0.5655 0.11376,-0.1078 0.201591,-0.1509 0.505992,-0.1185 0.293867,0.031 0.758388,0.1782 1.389787,0.4852 0,0 5.29e-4,0 5.29e-4,0 l 0.0021,8.9e-4 5.29e-4,5.1e-4 0.0519,0.031 0.0773,0.01 c 0.914019,0.098 2.585379,0.4964 4.101219,0.7537 0.75782,0.1286 1.48073,0.2237 2.08596,0.2232 0.302791,-2.9e-4 0.57958,-0.025 0.82533,-0.091 h 5.29e-4 c 0.245859,-0.066 0.48422,-0.1826 0.640729,-0.4037 l 0.300032,-0.4206 -0.485132,-0.1734 h -5.29e-4 c -2.787828,-0.98646 -5.262206,-3.01946 -8.509088,-3.47726 l -0.0702,-0.01 c -0.01288,-0.17449 0.01191,-0.50969 0.106791,-0.87159 0.10291,-0.39251 0.26843,-0.81331 0.4475,-1.11871 0.0879,-0.1498 0.18197,-0.26889 0.262398,-0.3468 0.039,-0.038 0.0761,-0.065 0.104241,-0.082 0.0282,-0.017 0.0537,-0.023 0.0397,-0.021 l 0.0453,-0.01 0.0519,-0.023 5.29e-4,-6.1e-4 c 0.772181,-0.3482 1.254231,-0.8764 1.506241,-1.4787 0.250809,-0.5996 0.28548,-1.2493 0.27002,-1.8907 -0.0308,-1.2804 -0.231899,-2.5637 0.212559,-3.4381 l 0.01421,-0.028 0.0864,-0.1587 -0.0417,-0.071 0.009,-0.01 -0.0351,-0.053 c 0.006,-0.044 0.019,-0.1187 0.0269,-0.209 v 0 c 0.007,-0.091 0.01479,-0.2362 -0.0534,-0.3895 v -5e-4 c -0.0771,-0.1743 -0.237781,-0.2986 -0.42918,-0.3428 l -0.0011,-5.1e-4 z m 0.87771,0.8156 -5.29e-4,0.011 h 5.29e-4 z m -0.24765,0.176 c 7.94e-4,2.9e-4 2.65e-4,2e-4 0.0021,5e-4 l -0.0021,0.01 z m -0.14391,22.2483 c 0.0021,0 0.005,-2.7e-4 0.008,0 0.0011,2e-4 0.003,2.6e-4 0.004,5.3e-4 l -0.0021,0.015 c -0.0021,0 -0.007,-0.012 -0.009,-0.016 z m -0.02029,0.02 h 0.0011 l -0.01119,0.1 h -0.0168 c -0.0011,-2.7e-4 -0.003,-5.3e-4 -0.003,-5.3e-4 l -0.0289,-0.016 c 0,0 0.0378,-0.053 0.0585,-0.081 z m -7.933449,0.2685 c 1.08e-4,7.9e-4 0.0127,0.079 0.0173,0.1079 l 5.3e-4,0.017 c -0.0011,0 -0.045,-0.1109 -0.0473,-0.1165 0.006,0 0.0127,0 0.0127,0 h 0.004 0.003 z m -0.0823,0.049 h 5.3e-4 c -0.0011,0 -0.0021,0 -0.003,0 -0.003,0 -0.006,0.011 -0.01,0.016 2.65e-4,-8e-4 0.0021,0 0.0021,0 -2.1e-5,1e-4 0.005,-0.01 0.008,-0.011 7.93e-4,-0.001 0.0021,0 0.003,0 z m 0.0249,0.046 c 0.0307,0.014 0.0626,0.028 0.0702,0.032 1.98e-4,-7.9e-4 -0.0241,-0.01 -0.0702,-0.032 z m -0.21612,9.9299 c 0.003,10e-4 -0.0011,-8e-4 0.0021,0 0,0 0,5.3e-4 0,5.3e-4 h -0.0011 z m -1.361299,1.2479 c -0.005,0 -0.0108,0.01 -0.0183,0.012 0.003,0 0.008,-0.01 0.0101,-0.01 0.009,-0.01 0.004,-10e-4 0.008,0 z m 0.0269,0.011 c 1.8e-4,5.3e-4 3.17e-4,0 5.02e-4,0 l -5.02e-4,0.01 c -1.2e-4,-2.7e-4 -3.97e-4,-5.3e-4 -5.03e-4,-10e-4 z m -0.0468,0.1002 c 0.003,10e-4 0.009,0 0.0127,0 0,0 -5.03e-4,10e-4 -5.03e-4,10e-4 -0.004,-10e-4 -0.007,0 -0.0122,0 z m 0.0753,10e-4 c 5.29e-4,-10e-5 9.79e-4,1.1e-4 0.002,0 -3.97e-4,1.1e-4 -0.002,5.3e-4 -0.002,5.3e-4 z m -0.0645,0.07 c 0.023,0.045 0.0482,0.099 0.0671,0.1612 0.0447,0.14859 0.0779,0.34799 0.091,0.54569 0.0132,0.1985 0.007,0.39851 -0.0163,0.5522 -9.79e-4,0.01 -0.004,0.01 -0.006,0.018 -0.0481,-0.057 -0.0719,-0.062 -0.14238,-0.1871 v -5.3e-4 l -0.10374,-0.1846 -0.21561,-0.013 h -0.006 l 0.008,5.3e-4 c -0.93907,-0.06 -1.855119,0.017 -2.752109,0.17949 -0.0148,0 -0.0294,0 -0.0443,0.01 0.0147,0 0.0295,-0.01 0.0443,-0.01 0.8701,-0.1451 1.72938,-0.31729 2.57261,-0.5187 h 5.02e-4 l 0.16375,-0.04 0.0768,-0.13119 h 0.004 l 0.009,-0.017 c 0.0762,-0.1402 0.14869,-0.2455 0.20698,-0.3178 0.0229,-0.028 0.0245,-0.026 0.0427,-0.044 z m 0.736341,3.9711 c 0.0307,0.1241 0.0626,0.25569 0.0992,0.4704 l 0.01421,0.086 0.0473,0.067 c 0.0461,0.071 0.0566,0.098 0.0879,0.15049 -0.273532,-0.097 -0.635881,-0.1771 -1.005341,-0.23849 0.30095,-0.18691 0.582259,-0.37491 0.75668,-0.53551 z m -15.421942,1.7874 5.03e-4,0.01 h -5.03e-4 z m 47.3683,0.13939 0.0168,0.031 c -2.705042,0.053 -4.813911,1.85189 -4.989632,3.8154 -0.438888,2.7628 0.607542,5.39969 0.892982,7.934 1.7e-4,0 2.65e-4,0 5.29e-4,0.01 l 0.0011,0.015 h 0.0021 0.0011 v 0 c 0.80609,4.9562 0.2555,10.0271 -1.604899,14.8432 -1.3e-4,5.3e-4 -2.65e-4,7.9e-4 -5.29e-4,0 -0.0011,0 -0.003,0.01 -0.005,0.01 -0.0021,0.01 -0.004,0 -0.009,0.025 l -0.004,0.014 c -0.120981,0.1629 -0.22338,0.3437 -0.283731,0.5497 -0.0779,0.2658 -0.11837,0.5471 -0.104781,0.8045 v 5.3e-4 5.2e-4 c 0.007,0.12611 0.02611,0.2602 0.0869,0.3911 0.0667,0.14351 0.202981,0.29731 0.414451,0.3346 0.198419,0.035 0.374481,-0.045 0.50854,-0.13829 0.132969,-0.093 0.259191,-0.221 0.395629,-0.39011 l 0.0864,-0.10729 v -0.14191 0 0 c -0.01209,-0.47589 0.149868,-0.88569 0.498848,-1.18579 0.34789,-0.29911 0.905862,-0.4977 1.748822,-0.4399 h 5.29e-4 l 0.0503,0.01 0.0621,-0.015 c 0.29945,-0.065 0.987869,-0.13801 1.578451,-0.26291 0.29387,-0.062 0.575508,-0.13319 0.81112,-0.2599 v -5.2e-4 c 0.1202,-0.065 0.23862,-0.1529 0.326459,-0.2817 0.0994,-0.1457 0.139371,-0.3363 0.0845,-0.5217 l -0.009,-0.031 h -0.003 l -0.0417,-0.1328 -0.17952,-0.087 h -0.005 c -1.0559,-0.501 -2.396538,-1.0674 -3.500139,-1.32671 0.01299,-0.23939 0.065,-0.41829 0.22933,-0.53599 0.234461,-0.168 0.666009,-0.2806 1.258081,-0.2283 h 0.01169 0.0422 0.0021 c 0.47275,-0.013 1.066919,-0.1245 1.47369,-0.3661 0.0996,-0.059 0.21173,-0.139 0.291891,-0.268 0.0955,-0.1536 0.11756,-0.3579 0.02389,-0.538 -0.0753,-0.1451 -0.199001,-0.2512 -0.342231,-0.328 -0.13966,-0.075 -0.303009,-0.1287 -0.496819,-0.1841 h -0.008 l -0.0305,-0.011 h -0.008 c -0.693809,-0.1614 -1.26401,-0.4395 -1.550479,-0.7348 -0.149482,-0.1541 -0.23054,-0.2991 -0.25785,-0.4501 -0.0271,-0.1495 -0.004,-0.3162 0.100719,-0.536 l 0.0879,-0.1881 -0.092,-0.1744 c -0.0671,-0.1262 -0.0797,-0.1988 -0.0788,-0.2314 0.0011,-0.039 0.005,-0.05 0.0458,-0.1032 0.0548,-0.071 0.279339,-0.2224 0.54564,-0.3458 0.27015,-0.1253 0.59378,-0.2505 0.883801,-0.4363 0.293928,-0.1884 0.582998,-0.4787 0.620918,-0.8991 l 0.02601,-0.2227 -0.175429,-0.1226 -0.0011,-0.001 -0.008,-0.01 c -0.456129,-0.3351 -1.048139,-0.5172 -1.41523,-0.7287 -0.18316,-0.1056 -0.30889,-0.225 -0.3468,-0.2929 -0.025,-0.045 -0.0342,-0.072 -0.0346,-0.1129 -5.3e-4,-0.04 0.01249,-0.101 0.0473,-0.1902 l 0.005,-0.01 0.01831,-0.064 v -0.01 c -0.0021,0.01 -0.003,0.017 -0.005,0.025 l 0.005,-0.035 v 0.01 c 0.163901,-0.6266 -0.0538,-1.2561 -0.158639,-1.7625 -0.0536,-0.2592 -0.0837,-0.4935 -0.0671,-0.654 0.01249,-0.1192 0.0618,-0.1863 0.136271,-0.2665 0.44718,0.077 0.999289,0.094 1.452859,0 0.135001,-0.029 0.264332,-0.065 0.38544,-0.1291 0.0582,-0.031 0.129981,-0.076 0.192751,-0.1485 h 5.29e-4 c 0.0715,-0.083 0.123349,-0.1988 0.120021,-0.3326 -0.003,-0.1221 -0.0492,-0.2303 -0.11593,-0.3122 -0.0634,-0.078 -0.137872,-0.1293 -0.202912,-0.1699 h -5.29e-4 c -0.131082,-0.082 -0.293941,-0.1471 -0.493792,-0.2146 l -5.29e-4,-5.3e-4 c -1.466731,-0.6571 -2.303021,-1.7282 -2.193269,-2.8116 v -5.2e-4 l 0.0122,-0.13021 -0.0498,-0.081 v 0 l -0.01831,-0.03 c -0.077,-0.1285 -0.0725,-0.1918 -0.0686,-0.2105 v -5.3e-4 c 0.008,-0.039 -0.009,-0.023 0.0585,-0.06 0.0457,-0.025 0.16564,-0.056 0.317828,-0.052 0.150191,0 0.33433,0.039 0.527852,0.12 l 0.181549,0.071 0.133731,-0.071 h 0.003 l 0.0285,-0.016 c 0.18863,-0.1035 0.349592,-0.241 0.436311,-0.4332 0.0908,-0.2014 0.0698,-0.4149 5.3e-4,-0.5864 -0.12922,-0.3193 -0.39234,-0.5464 -0.655471,-0.7678 -0.26656,-0.2244 -0.559541,-0.4452 -0.781611,-0.6448 -0.107109,-0.096 -0.196358,-0.1961 -0.258829,-0.2777 -0.0625,-0.082 -0.0966,-0.1656 -0.0926,-0.1454 l -0.005,-0.025 -0.0168,-0.05 c -0.192929,-0.4991 -0.1406,-1.01041 0.1012,-1.54031 0.236961,-0.51949 0.669901,-1.0352 1.187889,-1.462 0.0717,-0.035 0.137491,-0.062 0.186632,-0.077 0.0457,-0.014 0.0717,-0.017 0.0783,-0.019 0.005,0.01 0.0021,0 0.007,0.015 0.01191,0.029 0.02529,0.07 0.0366,0.1169 0.02371,0.098 0.0454,0.2273 0.0631,0.3626 0.0351,0.2696 0.0511,0.6373 0.306131,0.925 0.141248,0.1594 0.35383,0.2573 0.588378,0.2568 0.19214,-5.3e-4 0.3733,-0.076 0.558339,-0.1602 0.0021,-1e-4 0.003,10e-5 0.004,0 h 5.3e-4 c 0.0021,-1e-4 0.006,-5.3e-4 0.006,-5.3e-4 1.08e-4,0 0.01421,-0.01 0.0274,-0.011 5.29e-4,-9e-5 5.29e-4,1.1e-4 0.0011,0 h 0.005 l 0.0011,-5.2e-4 h 5.29e-4 c 0.0011,-2e-4 0.0021,-8e-4 0.004,-0.001 0.501218,-0.073 0.871299,-0.305 1.094329,-0.6062 0.22555,-0.3045 0.315101,-0.6383 0.397161,-0.89041 0.0809,-0.24829 0.180899,-0.42799 0.22782,-0.46579 0.0302,-0.024 0.0649,-0.043 0.145439,-0.048 0.0743,-0.01 0.197331,0.01 0.356459,0.048 l 0.0158,0.016 h 0.0804 c 0.561721,0.1248 1.34498,0.3323 1.968492,0.5899 0.315129,0.1302 0.5886,0.2752 0.758719,0.4058 0.0668,0.051 0.0662,0.08 0.0829,0.1113 -0.0686,0.053 -0.131688,0.1071 -0.230348,0.1623 -0.212371,0.11881 -0.44862,0.2361 -0.643271,0.3615 -0.0924,0.06 -0.19231,0.1266 -0.276641,0.2309 -0.0445,0.055 -0.0981,0.1384 -0.115969,0.2492 -0.02191,0.13151 0.01709,0.2605 0.0926,0.3595 h 5.29e-4 v 5.3e-4 c 0.1187,0.1548 0.28782,0.2083 0.42613,0.2416 0.140391,0.034 0.316889,0.055 0.530879,0.072 0.705281,0.1915 1.4771,0.2815 2.065121,0.4551 0.299659,0.088 0.548309,0.1985 0.71194,0.327 0.160441,0.1259 0.24021,0.2551 0.285279,0.4556 h -0.0895 l 0.199861,0.2182 c 0.13412,0.1464 0.208661,0.2883 0.229851,0.3641 0.01109,0.04 0.0108,0.056 0.01061,0.064 0.007,-0.01 0.01201,0.012 -0.113911,0.015 -0.122989,0 -0.344599,-0.032 -0.634108,-0.1455 h -0.003 l -0.0127,-0.01 h -0.01209 -0.007 c -0.391761,-0.11879 -1.01137,-0.20449 -1.4737,-0.1759 l 0.0011,-5.2e-4 c -0.117009,0.01 -0.232259,0.022 -0.345779,0.064 -0.0531,0.02 -0.131021,0.053 -0.202411,0.1221 l -5.29e-4,5.2e-4 c -0.0788,0.076 -0.143492,0.18971 -0.145442,0.32801 v 5.2e-4 c -0.0011,0.11341 0.0371,0.2137 0.0905,0.29081 0.0506,0.073 0.109411,0.12329 0.15662,0.16229 0.0986,0.081 0.22714,0.1582 0.38036,0.2395 5e-5,0 0.005,0 0.008,0.01 h 0.0021 c 0,0 5.29e-4,5.2e-4 5.29e-4,5.2e-4 0.003,0 0.006,0 0.008,0.01 0,0 5.29e-4,5.3e-4 5.29e-4,5.3e-4 0.0021,7.9e-4 0.003,0 0.005,0 0.646801,0.43559 1.54055,0.6193 2.181561,0.8746 0.32303,0.12859 0.57944,0.2832 0.688531,0.4073 0.0643,0.073 0.0937,0.1226 0.10527,0.1806 0.01159,0.058 0.006,0.13809 -0.0356,0.271 l -0.0534,0.16939 h 0.0366 l 0.008,0.037 h 5.29e-4 c 0.02141,0.09 0.034,0.2613 0.02389,0.41439 -0.007,0.10421 -0.0297,0.16981 -0.0488,0.23851 -0.0449,-0.042 -0.091,-0.082 -0.154081,-0.16581 l 0.0011,5.3e-4 c -0.22629,-0.3047 -0.639379,-0.67809 -1.024671,-0.8894 v -10e-4 c -0.096,-0.053 -0.200059,-0.1 -0.320378,-0.1225 h -5.29e-4 c -0.14024,-0.026 -0.351571,-0.013 -0.498859,0.1556 -0.13666,0.1568 -0.13762,0.3531 -0.114932,0.4912 0.02151,0.1301 0.0707,0.2624 0.135292,0.4109 v 0.017 l 0.01471,0.02 v 5.3e-4 l 0.006,0.01 0.004,0.01 h 5.29e-4 c 0.003,0.01 0.005,0.01 0.006,0.01 2.65e-4,5.3e-4 0.0021,0 0.0021,0 0,0 0.0011,0 0.0021,0 l 0.02029,0.034 h 0.006 c 0.0935,0.2238 0.23328,0.4194 0.36867,0.6179 -0.152392,-0.1039 -0.31855,-0.1991 -0.498861,-0.2843 v -0.039 l -0.162229,-0.064 c -0.982451,-0.3965 -2.14534,-0.3977 -3.14266,-0.1104 -0.99245,0.2859 -1.86925,0.8793 -2.124591,1.787 0,0 0,5.3e-4 0,5.3e-4 -0.336151,0.7282 -0.577591,1.5498 -0.53752,2.3839 0.0409,0.8511 0.387551,1.7087 1.17062,2.3825 l 0.0402,0.044 h 0.006 l -0.027,-0.027 0.0163,0.012 0.0011,5.3e-4 c 0.83457,0.5895 1.927289,0.7723 2.968239,0.6789 1.038051,-0.093 2.044139,-0.4617 2.737879,-1.0817 2.00469,-1.594 2.146052,-3.8489 2.51006,-5.6842 l 0.0021,-0.01 0.0021,-0.01 0.008,-0.022 v -0.037 -0.013 -5.3e-4 c 0.333028,-3.1355 -1.057331,-6.5225 -4.40685,-8.6525 l -0.01881,-0.02 h -0.006 l -5.29e-4,-5.3e-4 -0.0122,-0.01 c -0.003,0 -0.0021,0 -0.006,-0.01 l 0.01831,0.011 -0.01831,-0.013 h -0.006 c -1.376932,-0.8121 -3.115522,-1.353 -4.925542,-1.3714 h -5.29e-4 z m -28.275349,0.3224 c -0.0768,0.021 -0.184571,0.041 -0.256799,0.062 -0.361442,0.1069 -0.592082,0.2041 -0.801431,0.2995 -0.02281,-0.027 -0.0515,-0.059 -0.0636,-0.076 -0.009,-0.013 -0.01349,-0.023 -0.0204,-0.035 0.0423,-0.024 0.186169,-0.086 0.385461,-0.1307 0.20597,-0.046 0.470749,-0.087 0.756679,-0.11999 z m 27.919389,3.02571 -0.01471,0.01 c 0.0021,-8e-4 0.003,-8e-4 0.005,0 0.0021,-8e-4 0.003,-0.001 0.006,0 0.0021,-2e-4 0.003,-5.3e-4 0.004,-5.3e-4 z m -23.925959,4.40229 0.0778,0.05 c -2.64e-4,2.7e-4 -7.93e-4,0 -0.0011,0 -1.51e-4,1.1e-4 -0.0021,0 -0.0021,0 0,0 -5.29e-4,5.3e-4 -5.29e-4,5.3e-4 -7.93e-4,5.3e-4 -0.0266,0.015 -0.0397,0.022 -5.3e-4,-10e-4 -0.0021,0 -0.0021,0 -0.01659,-0.03 -0.02569,-0.054 -0.0325,-0.074 z m 29.109311,2.9356 h 5.29e-4 c 0.0578,0 0.0881,0.011 0.0992,0.015 0.01,0 0.004,7.9e-4 0.004,0 -0.004,0 0.0021,-0.011 0.006,0.055 0.0021,0.036 -0.0314,0.15701 -0.0428,0.22681 -0.035,-0.103 -0.0741,-0.19991 -0.117451,-0.29441 0.014,-2.6e-4 0.0406,0 0.0508,0 z m 1.828638,1.4732 h -5.29e-4 c 0.0822,-0.013 0.131461,0 0.163219,0.02 0.0524,0.027 0.12742,0.1242 0.146981,0.3072 0.0191,0.1788 -0.0276,0.4223 -0.12714,0.5934 -0.10328,0.1776 -0.22951,0.2825 -0.427149,0.3173 -0.134871,0.01 -0.247941,0.01 -0.352922,0.032 -0.0583,0.013 -0.13275,0.037 -0.205949,0.088 -0.0388,0.027 -0.104169,0.079 -0.14596,0.1689 -0.042,0.091 -0.0486,0.192 -0.0254,0.2817 v 5.3e-4 l 5.29e-4,5.3e-4 c 0.0382,0.1431 0.144949,0.2252 0.157139,0.2354 h 5.29e-4 v 5.2e-4 c 0.0358,0.03 0.0723,0.055 0.11035,0.078 l 0.197299,0.11891 v -0.01 h 0.006 c 0.0553,0.031 0.109199,0.067 0.15307,0.099 l -0.0356,0.025 -0.0417,0.071 -5.29e-4,10e-4 c -0.0597,0.106 -0.220821,0.27329 -0.361551,0.42769 -0.0127,-0.1582 -0.0249,-0.3155 -0.0722,-0.4851 -0.0669,-0.2398 -0.15793,-0.4885 -0.272571,-0.69819 -0.0575,-0.105 -0.124251,-0.2066 -0.21358,-0.294 -0.0974,-0.095 -0.27546,-0.20981 -0.49581,-0.1612 -0.20823,0.046 -0.32262,0.20909 -0.384419,0.3453 -0.0113,-0.047 0.005,-0.092 -0.0173,-0.1388 -0.0869,-0.1855 -0.261101,-0.3067 -0.453109,-0.35341 -0.17535,-0.043 -0.363421,-0.036 -0.579199,0 h -0.01881 -0.006 l -0.0524,0.011 -0.0758,0.045 c -0.0528,0.033 -0.201411,0.098 -0.321911,0.151 0.0011,-0.049 0.0369,-0.098 0.025,-0.1439 -0.0541,-0.2076 -0.193011,-0.3318 -0.291402,-0.4297 -0.106508,-0.106 -0.225478,-0.2153 -0.340188,-0.3346 -0.0347,-0.043 -0.0514,-0.075 -0.0646,-0.1027 0.0305,-0.01 0.106929,-0.026 0.216131,-0.015 0.1236,0.013 0.270488,0.053 0.407339,0.1362 l 0.0488,0.035 0.0722,0.013 h -0.007 c 0.53145,0.1254 0.968488,0.1191 1.317569,-0.031 0.206359,-0.088 0.354089,-0.2327 0.470371,-0.3956 0.0268,0.093 0.0733,0.187 0.157639,0.267 0.178279,0.169 0.421971,0.1834 0.631589,0.1449 0.20483,-0.038 0.43002,-0.1248 0.715492,-0.2624 h 0.008 l 0.01371,-0.01 h 0.006 0.003 c 0.1652,-0.098 0.280389,-0.1393 0.362579,-0.152 z m -4.449559,0.3407 h 0.003 c 0,0 0.003,8e-4 0.004,0.001 -0.0021,-1e-4 -0.003,-2.6e-4 -0.005,-5.3e-4 -2.65e-4,0 -0.0011,-5.3e-4 -0.0021,-5.3e-4 z m 0.0814,0.04 h 0.008 l 0.0011,10e-4 c 0.0021,0 0.004,0.01 0.008,0.011 0.0021,0 0.003,0.01 0.006,0.01 -0.006,-0.01 -0.01191,-0.013 -0.02241,-0.025 z m 0.033,0.046 c 0.0011,0 0.0021,0 0.003,0.01 2.62e-4,0 5.29e-4,0 0.0011,0.01 -0.0021,-0.01 -0.0021,-0.01 -0.004,-0.014 z m -29.507479,0.12919 0.01881,0.001 c 0.01209,0.035 0.02519,0.073 0.02551,0.074 -4e-5,0 -0.02471,-0.042 -0.0443,-0.075 z m 0.0518,0 h 0.0681 c -0.02209,0.024 -0.0455,0.046 -0.0666,0.07 -7.94e-4,-2.6e-4 -0.009,0 -0.009,0 0,0 0.006,0 0.007,0 -2.64e-4,5.3e-4 -7.94e-4,5.3e-4 -0.0011,0 -5.29e-4,-5.2e-4 -0.006,-0.01 -0.006,-0.01 4e-5,-5.3e-4 0.003,-0.036 0.007,-0.072 z m 31.42411,1.89021 h 0.0011 c -2.65e-4,7.9e-4 -5.29e-4,0 -0.0011,0 -0.003,0.082 0.003,0.12169 -0.007,0.2222 -0.0231,0.22429 -0.068,0.47209 -0.12714,0.62449 -0.02381,0.061 -0.0467,0.097 -0.0666,0.1266 -0.0108,-0.01 -0.01201,-0.01 -0.0265,-0.023 -0.02371,-0.023 -0.0533,-0.056 -0.0824,-0.088 -5.1e-5,-0.01 -7.94e-4,-0.018 0.0021,-0.034 0.007,-0.058 0.0274,-0.1423 0.0626,-0.2385 0.0613,-0.1678 0.158562,-0.3805 0.24511,-0.5904 3.2e-5,-0.001 -5e-5,0 0,0 z m -0.15509,1.01089 c 0.003,8e-4 0.0417,0.013 0.0417,0.013 0,0 0.0177,0.013 0.0269,0.019 -0.01,0.016 -0.02019,0.034 -0.0295,0.045 -0.0319,0.04 -0.059,0.051 -0.0523,0.049 l -0.02551,-0.1235 c 0.01601,0 0.037,0 0.0458,0 0.008,0 -0.006,0 -0.007,-0.01 z"
       id="path4376-2-4-7-0-2"
       inkscape:connector-curvature="0" />
  </g>
</svg>
