<?xml version="1.0" encoding="UTF-8" standalone="no"?>
<!-- Created with Inkscape (http://www.inkscape.org/) -->

<svg
   xmlns:dc="http://purl.org/dc/elements/1.1/"
   xmlns:cc="http://creativecommons.org/ns#"
   xmlns:rdf="http://www.w3.org/1999/02/22-rdf-syntax-ns#"
   xmlns:svg="http://www.w3.org/2000/svg"
   xmlns="http://www.w3.org/2000/svg"
   xmlns:sodipodi="http://sodipodi.sourceforge.net/DTD/sodipodi-0.dtd"
   xmlns:inkscape="http://www.inkscape.org/namespaces/inkscape"
   width="300"
   height="300"
   viewBox="0 0 79.374998 79.375002"
   version="1.1"
   id="svg1234"
   inkscape:version="0.92.4 (5da689c313, 2019-01-14)"
   sodipodi:docname="na11.svg">
  <defs
     id="defs1228" />
  <sodipodi:namedview
     id="base"
     pagecolor="#ffffff"
     bordercolor="#666666"
     borderopacity="1.0"
     inkscape:pageopacity="0.0"
     inkscape:pageshadow="2"
     inkscape:zoom="0.9899495"
     inkscape:cx="36.545145"
     inkscape:cy="123.3222"
     inkscape:document-units="px"
     inkscape:current-layer="layer1"
     showgrid="false"
     units="px" />
  <metadata
     id="metadata1231">
    <rdf:RDF>
      <cc:Work
         rdf:about="">
        <dc:format>image/svg+xml</dc:format>
        <dc:type
           rdf:resource="http://purl.org/dc/dcmitype/StillImage" />
        <dc:title></dc:title>
        <dc:creator>
          <cc:Agent>
            <dc:title>Sandie Skeen</dc:title>
          </cc:Agent>
        </dc:creator>
        <dc:rights>
          <cc:Agent>
            <dc:title>Copyright - All rights reserved - Tous droits réservés</dc:title>
          </cc:Agent>
        </dc:rights>
        <dc:description>Toulouse, France</dc:description>
      </cc:Work>
    </rdf:RDF>
  </metadata>
  <g
     inkscape:label="Calque 1"
     inkscape:groupmode="layer"
     id="layer1"
     transform="translate(0,-217.62499)">
    <g
       id="g3875-2-4-9"
       transform="translate(-1124.2379,477.54816)">
      <rect
         ry="6.8791666"
         rx="6.8791666"
         y="-259.27255"
         x="1124.8885"
         height="78.073769"
         width="78.073769"
         id="rect5205-0-1-9-2-4-3-8-4-9-0-6-7-7-5-6-2-2-8-9-5-6-2-5-8-7-1-980-3-2-6-0-3-1-5-2"
         style="opacity:1;fill:#ffffff;fill-opacity:1;stroke:#8bf0ec;stroke-width:1.30122089;stroke-miterlimit:4;stroke-dasharray:none;stroke-dashoffset:0;stroke-opacity:1" />
      <rect
         inkscape:export-ydpi="43.548504"
         inkscape:export-xdpi="43.548504"
         inkscape:export-filename="C:\Users\sandi\AndroidStudioProjects\Mnemosis\app\src\main\res\drawable\dos.png"
         transform="rotate(-90)"
         ry="4.7624993"
         rx="4.7624993"
         y="1129.3967"
         x="185.70691"
         height="69.057289"
         width="69.057289"
         id="rect5169-4-0-4-9-7-5-2-3-6-7-2-3-4-7-1-8-9-3-36-4-4-8-1-6-8-6-4-1-4-7-6-5-4-2-5-4-8-73-9-6"
         style="display:inline;opacity:1;fill:#8bf0ec;fill-opacity:1;stroke:none;stroke-width:2.30172825;stroke-miterlimit:4;stroke-dasharray:none;stroke-dashoffset:0;stroke-opacity:1" />
    </g>
    <path
       inkscape:connector-curvature="0"
       style="display:inline;fill:#abc837;fill-opacity:1;stroke:#ffffff;stroke-width:0.26458332;stroke-linecap:butt;stroke-linejoin:miter;stroke-miterlimit:4;stroke-dasharray:none;stroke-opacity:1"
       d="m 45.602887,238.35024 c -0.857099,0 -1.705801,0.084 -2.516799,0.2591 -4.494202,0.9678 -7.729601,5.4587 -6.079601,8.54181 0.033,0.077 0.054,0.14009 0.076,0.20519 l 0.01799,0.019 0.071,0.6396 c -0.014,0.1057 -0.038,0.2174 -0.073,0.3478 -0.227002,3.398 7.423999,6.4829 12.729991,3.1837 3.831608,-2.3825 6.679109,-7.2568 5.769009,-9.6236 -0.495401,-1.4135 -5.366009,-3.5968 -9.994,-3.5731 z m -27.823699,7.2058 c -0.4945,-0.02 -0.9471,0.064 -1.3349,0.269 l -1.0052,0.4945 c -0.013,0.011 -0.025,0.02 -0.04,0.026 -0.1299,0.037 -0.1794,0.052 -0.3542,0.083 -2.14853,0.3392 -4.74148,7.6498 -1.4741,12.706 2.4827,3.842 8.3124,5.6265 10.435999,4.5533 2.143801,-1.2236 3.794801,-7.4367 1.921401,-11.4788 -1.580601,-3.41051 -5.4785,-6.54471 -8.1487,-6.65251 z m 45.698899,6.5669 c -5.1449,-0.073 -9.824599,3.3938 -9.121,6.601 0.041,0.094 0.057,0.187 0.04,0.2789 -0.042,0.065 -0.075,0.1335 -0.110901,0.201 l -0.246099,0.7109 h -0.01199 c -0.7053,3.2907 4.0375,8.5188 10.203299,7.9501 4.850001,-0.4474 10.0353,-3.9435 10.6343,-6.8344 0.492401,-2.7738 -4.7934,-8.2397 -10.354199,-8.8424 -0.345799,-0.037 -0.690501,-0.058 -1.033499,-0.063 z m -17.712899,7.0504 c -0.6036,-0.021 -1.1995,0.094 -1.7697,0.368 -0.01299,0.01 -0.025,0.01 -0.038,0.011 h -10e-5 l -1.242,0.1909 c -4.108309,0.7704 -5.587701,6.5311 -4.195601,10.9726 1.9314,5.0164 8.056491,8.1641 11.149201,7.1431 2.51039,-1.1451 4.870399,-7.8017 2.91049,-12.492 -1.4376,-3.4403 -4.197691,-6.1042 -6.81329,-6.1973 z"
       id="path1009-0-6-2-9-5-3-3-8-1-3-9-7-3-7-7-3-7-4-5-1-2-3-9-2-6-4-6-8-7" />
    <path
       inkscape:connector-curvature="0"
       style="display:inline;fill:#739e46;fill-opacity:1;stroke:#ffffff;stroke-width:0.26458332;stroke-linecap:butt;stroke-linejoin:miter;stroke-miterlimit:4;stroke-dasharray:none;stroke-opacity:1"
       d="m 56.198486,228.43934 c -19.011199,1.2859 -23.297298,3.0654 -37.312298,10.4104 -0.8388,0.3522 -0.8264,0.9053 -3.2153,0.6963 -3.70634,-0.5094 -8.6432404,-3.7951 -11.1929304,-5.6493 1.0003603,1.5081 1.2846802,3.3381 3.0746199,4.5248 2.2646802,1.2756 4.5397305,2.5807 6.8239105,3.888 0.4758,0.3156 1.4696,3.63801 1.0626,4.01 l 1.0052,-0.4945 c -0.3126,0.244 -1.2605,-2.9446 -0.4093,-2.8087 1.1045,0.1764 13.465198,6.587 13.882499,7.8401 1.595599,4.7503 2.0852,10.6979 1.670201,14.0999 -1.1792,11.5762 -0.685101,17.441 5.824,24.4043 -0.4412,-3.1347 0.3917,-6.5374 0.523198,-8.3236 1.039302,-16.7984 -8.843698,-29.3499 -6.226799,-29.4143 1.790501,0.10671 7.747801,3.2669 9.463302,4.37541 0.6477,0.45879 1.020299,1.90029 1.542999,3.74879 l 1.241899,-0.1909 h 2.01e-4 c -0.632201,0.1555 -1.885302,-2.7966 -0.977,-2.8574 1.1382,-0.068 6.204,1.8741 11.048298,3.2151 2.62e-4,10e-5 -5.29e-4,0 -5.29e-4,0 h 0.01201 l 0.2461,-0.711 c -8.0054,-1.91019 -19.691101,-6.8094 -20.710901,-8.7497 -0.560199,-0.8873 2.0686,-1.8421 3.596,-2.4387 l -0.071,-0.6396 -0.01799,-0.019 c 0,0.01 0.01,0.018 0.01,0.026 -1.715501,0.7803 -3.484002,1.7643 -4.912302,1.8167 -1.6871,0.07 -9.770399,-4.0559 -14.782399,-8.0194 -0.5554,-0.4794 -0.1326,-0.8697 0.5154,-0.9465 0.4511,-0.047 0.8055,-0.087 1.2119,-0.1312 6.6339,-0.7171 7.726599,-1.0518 14.533601,-1.9538 4.411898,-0.7404 6.986,-1.5382 11.746098,-3.9064 5.0224,-2.9119 7.311702,-4.6228 10.794301,-5.8021 z"
       id="path1171-8-4-0-4-7-8-5-3-7-7-4-1-7-7-3" />
  </g>
</svg>
