<?xml version="1.0" encoding="UTF-8" standalone="no"?>
<!-- Created with Inkscape (http://www.inkscape.org/) -->

<svg
   xmlns:dc="http://purl.org/dc/elements/1.1/"
   xmlns:cc="http://creativecommons.org/ns#"
   xmlns:rdf="http://www.w3.org/1999/02/22-rdf-syntax-ns#"
   xmlns:svg="http://www.w3.org/2000/svg"
   xmlns="http://www.w3.org/2000/svg"
   xmlns:sodipodi="http://sodipodi.sourceforge.net/DTD/sodipodi-0.dtd"
   xmlns:inkscape="http://www.inkscape.org/namespaces/inkscape"
   width="300"
   height="300"
   viewBox="0 0 79.374998 79.375002"
   version="1.1"
   id="svg1234"
   inkscape:version="0.92.4 (5da689c313, 2019-01-14)"
   sodipodi:docname="na13.svg">
  <defs
     id="defs1228" />
  <sodipodi:namedview
     id="base"
     pagecolor="#ffffff"
     bordercolor="#666666"
     borderopacity="1.0"
     inkscape:pageopacity="0.0"
     inkscape:pageshadow="2"
     inkscape:zoom="0.49497475"
     inkscape:cx="-237.14309"
     inkscape:cy="57.648218"
     inkscape:document-units="px"
     inkscape:current-layer="layer1"
     showgrid="false"
     units="px" />
  <metadata
     id="metadata1231">
    <rdf:RDF>
      <cc:Work
         rdf:about="">
        <dc:format>image/svg+xml</dc:format>
        <dc:type
           rdf:resource="http://purl.org/dc/dcmitype/StillImage" />
        <dc:title></dc:title>
        <dc:creator>
          <cc:Agent>
            <dc:title>Sandie Skeen</dc:title>
          </cc:Agent>
        </dc:creator>
        <dc:rights>
          <cc:Agent>
            <dc:title>Copyright - All rights reserved - Tous droits réservés</dc:title>
          </cc:Agent>
        </dc:rights>
        <dc:description>Toulouse, France</dc:description>
      </cc:Work>
    </rdf:RDF>
  </metadata>
  <g
     inkscape:label="Calque 1"
     inkscape:groupmode="layer"
     id="layer1"
     transform="translate(0,-217.62499)">
    <g
       id="g3875-11-1"
       transform="translate(-1124.2379,477.54816)">
      <rect
         ry="6.8791666"
         rx="6.8791666"
         y="-259.27255"
         x="1124.8885"
         height="78.073769"
         width="78.073769"
         id="rect5205-0-1-9-2-4-3-8-4-9-0-6-7-7-5-6-2-2-8-9-5-6-2-5-8-7-1-980-3-2-6-0-3-5-9"
         style="opacity:1;fill:#ffffff;fill-opacity:1;stroke:#8bf0ec;stroke-width:1.30122089;stroke-miterlimit:4;stroke-dasharray:none;stroke-dashoffset:0;stroke-opacity:1" />
      <rect
         inkscape:export-ydpi="43.548504"
         inkscape:export-xdpi="43.548504"
         inkscape:export-filename="C:\Users\sandi\AndroidStudioProjects\Mnemosis\app\src\main\res\drawable\dos.png"
         transform="rotate(-90)"
         ry="4.7624993"
         rx="4.7624993"
         y="1129.3967"
         x="185.70691"
         height="69.057289"
         width="69.057289"
         id="rect5169-4-0-4-9-7-5-2-3-6-7-2-3-4-7-1-8-9-3-36-4-4-8-1-6-8-6-4-1-4-7-6-5-4-2-5-4-8-8-2"
         style="display:inline;opacity:1;fill:#8bf0ec;fill-opacity:1;stroke:none;stroke-width:2.30172825;stroke-miterlimit:4;stroke-dasharray:none;stroke-dashoffset:0;stroke-opacity:1" />
    </g>
    <path
       style="display:inline;opacity:1;fill:#aea272;fill-opacity:1;stroke:#ffffff;stroke-width:0.26458332;stroke-miterlimit:4;stroke-dasharray:none;stroke-dashoffset:0;stroke-opacity:1"
       d="m 35.127741,257.51117 c 0,0 -0.2203,1.2125 -0.330801,1.8428 l -0.147799,0.202 c 0.053,0 0.1069,-0.01 0.161298,-0.01 l 1.105802,1.4594 -2.9006,2.5316 c -0.141301,0.1003 -0.7624,0.3201 -1.081001,0.293 h -0.0011 c -0.048,0 -0.089,-0.014 -0.120401,-0.031 -0.646898,-0.2371 -1.288799,-0.434 -1.922899,-0.5963 -0.199099,-0.075 -0.4015,-0.1432 -0.609799,-0.1975 -0.4764,-0.1239 -0.982501,-0.1726 -1.4919,-0.2134 -0.403501,-0.053 -0.801101,-0.091 -1.1927,-0.1137 -0.220201,-0.03 -0.439301,-0.065 -0.656801,-0.1028 0,0 0.01,0 0.01,0 l -2.2624,-0.053 h -0.077 c 0.01,0.01 0.01,0.011 0.016,0.016 -0.4882,0.1151 -0.992,0.2922 -1.4831,0.4201 -0.6888,0.1795 -1.3536,0.1163 -2.0702,0.5602 -0.4526,0.2804 -0.8731,0.8345 -1.3058,1.265 -0.4246,0.4227 -0.968,0.7024 -1.2661,1.293 -0.2638,0.5229 -0.2229,1.0554 -0.2697,1.5818 -0.056,0.2311 -0.09,0.4619 -0.1049,0.6945 -0.089,0.4582 -0.1874,0.9226 -0.1556,1.3126 0.069,0.84 0.5145,1.3376 0.7793,1.9983 0.01,0.02 0.015,0.041 0.023,0.062 8.956198,0.8351 13.017298,3.0423 18.560099,9.6387 0.093,-0.019 0.1865,-0.04 0.282099,-0.069 0.563901,-0.172 1.1591,-0.6017 1.7395,-0.9157 0.568101,-0.3072 1.176801,-0.3604 1.705301,-0.9472 0.3659,-0.4058 0.7318,-0.9097 0.996299,-1.4335 0.264401,-0.5239 0.271402,-1.3136 0.380902,-1.849 0.158099,-0.7736 0.048,-1.1547 -0.042,-1.7942 -0.092,-0.6532 -0.1011,-1.3872 -0.297701,-1.943 -0.289499,-0.8183 -0.844899,-1.322 -1.273299,-1.9751 -0.433801,-0.6615 -0.808001,-1.4084 -1.313601,-1.9684 -0.475401,-0.5264 -1.040299,-0.9095 -1.593699,-1.3115 -0.6897,-0.66 -1.4532,-1.2745 -2.284101,-1.8232 -0.01299,-0.01 -0.02601,-0.018 -0.039,-0.027 -0.01701,-0.012 -0.034,-0.024 -0.052,-0.035 0,0 0,0 -0.01,-0.01 v -5.3e-4 c -0.188402,-0.1131 -0.1535,-0.5313 -0.01,-0.6868 l 2.6376,-2.2959 6.353101,5.1061 c 0.182499,0.047 0.4051,0.3151 0.3855,0.5131 0,0.028 -0.01,0.055 -0.024,0.079 -0.424701,0.9461 -0.747799,1.9135 -0.978799,2.8789 -0.2467,0.6344 -0.512302,1.2599 -0.626301,1.9565 -0.121999,0.7446 -0.032,1.5758 -0.039,2.3668 -0.01,0.781 -0.201102,1.5049 0,2.3497 0.135699,0.5737 0.526399,1.1951 0.802499,1.7942 0.270399,0.5867 0.384099,0.9668 0.935901,1.5317 0.381899,0.3909 0.814998,1.051 1.3208,1.3483 0.505899,0.2974 1.085998,0.5229 1.6134,0.6661 0.762,0.2071 1.303599,-0.078 1.947698,-0.1277 0.6579,-0.05 1.390301,-0.011 1.957501,-0.1715 0.085,-0.024 0.165399,-0.052 0.243899,-0.083 2.143101,-8.4962 4.5833,-13.2213 10.4112,-18.1989 0,-0.01 -0.01,-0.02 -0.01,-0.031 -0.135202,-0.699 -0.03,-1.3593 -0.426802,-2.1027 -0.184399,-0.345 -0.5172,-0.6824 -0.840298,-1.0191 -0.138602,-0.1878 -0.292402,-0.3631 -0.465101,-0.5271 -0.324299,-0.4173 -0.578601,-0.8867 -1.083601,-1.1834 -0.570399,-0.3352 -1.178499,-0.2766 -1.7643,-0.402 -0.5969,-0.1278 -1.250399,-0.3659 -1.782799,-0.3566 l -5.29e-4,5.3e-4 c -0.842799,0.015 -1.367499,0.4281 -2.043801,0.6501 -0.687998,0.2259 -1.456399,0.3773 -2.048499,0.694 -0.740101,0.3959 -1.2544,0.9755 -1.853099,1.4862 -0.316601,0.2311 -0.6305,0.4783 -0.940502,0.7416 -0.4055,0.3096 -0.802999,0.6245 -1.135798,0.986 -0.146002,0.1586 -0.279802,0.3251 -0.406701,0.4961 -0.445101,0.4796 -0.8782,0.9926 -1.293501,1.542 -0.01201,0.022 -0.036,0.043 -0.058,0.064 v 0 c -0.226499,0.2078 -0.913601,0.3734 -1.094499,0.3654 l -6.691601,-5.3878 -2.2024,-2.7937 z"
       id="path1232-7-0-9"
       inkscape:connector-curvature="0" />
    <path
       inkscape:connector-curvature="0"
       style="display:inline;opacity:1;fill:#f5f4ac;fill-opacity:1;stroke:#ffffff;stroke-width:0.26458332;stroke-miterlimit:4;stroke-dasharray:none;stroke-dashoffset:0;stroke-opacity:1"
       d="m 61.456539,264.29586 c -5.8279,4.97761 -8.2677,9.7028 -10.410798,18.19891 0.062,-0.024 0.1236,-0.049 0.183499,-0.075 0.4792,0.34311 0.9711,0.67181 1.48,0.97411 6.516499,3.8222 13.8108,3.8109 17.157099,-0.35291 0.2398,-0.26149 0.689001,-0.095 0.939501,0.05 0.1822,0.1055 0.606399,-0.2787 0.727599,-0.4879 l 0.2217,-0.3767 c 0.122401,-0.2084 0.2551,-0.7678 0.073,-0.8733 -0.2353,-0.12721 -0.602401,-0.4576 -0.472401,-0.83251 1.6416,-5.14319 -1.571199,-11.30469 -8.069799,-15.1237 -0.582001,-0.33739 -1.1806,-0.64229 -1.789499,-0.9198 -0.01299,-0.06 -0.027,-0.12079 -0.04,-0.18089 z"
       id="path1246-2-5-6" />
    <path
       inkscape:connector-curvature="0"
       style="display:inline;opacity:1;fill:#f5f4ac;fill-opacity:1;stroke:#ffffff;stroke-width:0.26458332;stroke-miterlimit:4;stroke-dasharray:none;stroke-dashoffset:0;stroke-opacity:1"
       d="m 17.768241,271.72747 c 0.018,0.047 0.035,0.093 0.053,0.1401 -0.3619,0.563 -0.699701,1.1437 -1.0077,1.742 -3.3961,6.7292 -2.7617,13.64979 1.402999,17.08519 0.312201,0.24481 0.1832,0.72081 0.054,0.95501 -0.095,0.1881 0.3174,0.58659 0.5333,0.6956 l 0.390099,0.1969 c 0.2159,0.10879 0.7804,0.2034 0.8765,0.016 0.1334,-0.257 0.4184,-0.6409 0.7617,-0.5509 5.0678,1.689 11.207201,-2.2506 14.616699,-8.9923 0.263901,-0.5293 0.499102,-1.0715 0.716201,-1.619 0.054,-0.01 0.108701,-0.019 0.1633,-0.03 -5.542899,-6.5964 -9.6038,-8.8036 -18.560099,-9.6387 z"
       id="path1019-8-7-0-7" />
    <path
       style="display:inline;opacity:1;fill:#7aa74a;fill-opacity:1;stroke:#ffffff;stroke-width:0.26458332;stroke-miterlimit:4;stroke-dasharray:none;stroke-dashoffset:0;stroke-opacity:1"
       d="m 40.08704,221.95987 h -5.29e-4 z m 0,0 v 0.001 c -1.9011,-0.018 -2.0027,2.7251 -3.6938,3.6504 -1.8087,0.9897 -4.247999,-1.6173 -5.642999,-0.7281 -1.3951,0.8891 0.5188,4.7091 -0.2052,5.6622 -0.7239,0.9532 -3.8265,-0.3111 -4.505701,1.0309 -0.9891,1.9542 3.3132,7.6066 2.8345,8.4109 -0.478399,0.8044 -2.4314,-0.6227 -3.3295,0.9234 -0.8982,1.5461 4.3719,6.505 4.003899,7.4202 -0.368099,0.9152 -1.133599,0.3259 -1.4067,1.1803 -0.363997,1.3492 2.792,3.4931 4.139801,4.5703 1.3125,1.0489 1.7732,2.2075 1.91,3.4013 0,0.2589 1.99e-4,0.4514 0.01,0.6139 -0.027,0.089 -0.047,0.183 -0.069,0.2755 -0.375502,-0.3111 -0.693801,-0.6906 -0.921401,-1.1788 -0.432501,-0.9282 -1.168501,-2.9951 -2.254599,-3.2065 -0.699202,-0.1139 -0.4698,0.4071 -1.2387,0.3199 -0.768901,-0.087 -3.0084,-3.9274 -4.380601,-3.9465 -1.3723,-0.019 -0.8437,1.2877 -1.5607,1.2831 -0.7169,-0.01 -3.7214,-3.5915 -5.4172,-3.6835 -1.1644,-0.063 -1.0607,1.7318 -1.9518,1.7989 -0.8912,0.067 -3.1853,-1.8964 -4.2075,-1.5002 -1.0222,0.3961 0.2423,2.2609 -0.9633,2.8205 -1.2440004,0.5773 -3.5985002,-0.3658 -3.7569002,1.0144 0,0.022 0,0.044 -0.01,0.066 0,0.022 -0.01,0.043 -0.01,0.065 -0.1271,1.3881 2.2954998,1.6755 3.3590002,2.8474 1.0309,1.1358 -0.5425,2.2691 0.3473,3.1579 0.8898,0.8888 3.4596,0.1795 4.2912,0.6904 0.8316,0.5108 0.3714,2.1601 1.4883,2.6846 1.6266,0.7639 5.1964,-1.129 5.8771,-0.7736 0.5824,0.304 0.112,1.0601 0.7798,1.6924 h 0.077 l 2.2635,0.053 c 1.245299,-0.5445 2.5771,-1.479 3.0494,-1.2872 0.7468,0.3031 0.424101,0.6821 1.109999,0.925 1.072502,0.3447 2.185201,-1.2459 2.781699,-1.909 0.296402,-0.3293 0.649402,-0.5289 1.040302,-0.6397 0.228799,-0.065 0.4713,-0.098 0.7224,-0.1101 l 0.147799,-0.202 c 0.052,-0.703 1.7379,-3.5093 3.2034,-3.6399 1.577999,-0.2428 5.1479,-0.4697 5.266399,-1.8888 0.036,-0.9219 -0.852998,-0.8034 -0.8822,-1.8319 -0.029,-1.0285 6.388701,-2.6547 6.089102,-4.5424 -0.299601,-1.8876 -2.5416,-1.6576 -2.707902,-2.6458 -0.166198,-0.9882 5.606902,-3.767 5.360401,-6.0736 -0.169199,-1.5839 -3.398999,-2.1248 -3.7377,-3.3812 -0.339,-1.2562 2.6627,-3.6744 1.695,-5.2374 -0.9677,-1.5629 -4.0415,-0.5289 -5.3501,-2.4076 -1.350298,-1.9383 -0.213299,-4.8298 -2.7549,-5.5759 -0.041,-0.012 -0.081,-0.02 -0.120399,-0.032 -0.04,-0.011 -0.079,-0.025 -0.120401,-0.037 -0.2388,-0.066 -0.454099,-0.098 -0.6506,-0.1 z"
       id="path1242-9-4-5"
       inkscape:connector-curvature="0"
       sodipodi:nodetypes="cccccccccccccccccccccccccccccccccccccccccccccccccccccccccc" />
  </g>
</svg>
