<?xml version="1.0" encoding="UTF-8" standalone="no"?>
<!-- Created with Inkscape (http://www.inkscape.org/) -->

<svg
   xmlns:dc="http://purl.org/dc/elements/1.1/"
   xmlns:cc="http://creativecommons.org/ns#"
   xmlns:rdf="http://www.w3.org/1999/02/22-rdf-syntax-ns#"
   xmlns:svg="http://www.w3.org/2000/svg"
   xmlns="http://www.w3.org/2000/svg"
   xmlns:sodipodi="http://sodipodi.sourceforge.net/DTD/sodipodi-0.dtd"
   xmlns:inkscape="http://www.inkscape.org/namespaces/inkscape"
   width="300"
   height="300"
   viewBox="0 0 79.374998 79.375002"
   version="1.1"
   id="svg1234"
   inkscape:version="0.92.4 (5da689c313, 2019-01-14)"
   sodipodi:docname="na14.svg">
  <defs
     id="defs1228" />
  <sodipodi:namedview
     id="base"
     pagecolor="#ffffff"
     bordercolor="#666666"
     borderopacity="1.0"
     inkscape:pageopacity="0.0"
     inkscape:pageshadow="2"
     inkscape:zoom="0.49497475"
     inkscape:cx="-138.15586"
     inkscape:cy="163.29159"
     inkscape:document-units="px"
     inkscape:current-layer="layer1"
     showgrid="false"
     units="px" />
  <metadata
     id="metadata1231">
    <rdf:RDF>
      <cc:Work
         rdf:about="">
        <dc:format>image/svg+xml</dc:format>
        <dc:type
           rdf:resource="http://purl.org/dc/dcmitype/StillImage" />
        <dc:title></dc:title>
        <dc:creator>
          <cc:Agent>
            <dc:title>Sandie Skeen</dc:title>
          </cc:Agent>
        </dc:creator>
        <dc:rights>
          <cc:Agent>
            <dc:title>Copyright - All rights reserved - Tous droits réservés</dc:title>
          </cc:Agent>
        </dc:rights>
        <dc:description>Toulouse, France</dc:description>
      </cc:Work>
    </rdf:RDF>
  </metadata>
  <g
     inkscape:label="Calque 1"
     inkscape:groupmode="layer"
     id="layer1"
     transform="translate(0,-217.62499)">
    <g
       id="g2195"
       transform="translate(-215.67834,-76.421472)">
      <rect
         ry="6.8791666"
         rx="6.8791666"
         y="294.69708"
         x="216.32895"
         height="78.073769"
         width="78.073769"
         id="rect5205-0-1-9-2-4-3-8-4-9-0-6-7-7-5-6-2-2-8-9-5-6-2-5-8-7-1-980-3-2-6-0-3-5-9-9-08"
         style="opacity:1;fill:#ffffff;fill-opacity:1;stroke:#8bf0ec;stroke-width:1.30122089;stroke-miterlimit:4;stroke-dasharray:none;stroke-dashoffset:0;stroke-opacity:1" />
      <rect
         inkscape:export-ydpi="43.548504"
         inkscape:export-xdpi="43.548504"
         inkscape:export-filename="C:\Users\sandi\AndroidStudioProjects\Mnemosis\app\src\main\res\drawable\dos.png"
         transform="rotate(-90)"
         ry="4.7624993"
         rx="4.7624993"
         y="220.83713"
         x="-368.2627"
         height="69.057289"
         width="69.057289"
         id="rect5169-4-0-4-9-7-5-2-3-6-7-2-3-4-7-1-8-9-3-36-4-4-8-1-6-8-6-4-1-4-7-6-5-4-2-5-4-8-8-2-6-3"
         style="display:inline;opacity:1;fill:#8bf0ec;fill-opacity:1;stroke:none;stroke-width:2.30172825;stroke-miterlimit:4;stroke-dasharray:none;stroke-dashoffset:0;stroke-opacity:1" />
    </g>
    <path
       style="display:inline;opacity:1;fill:#5cb85c;fill-opacity:1;stroke:#ffffff;stroke-width:0.26458332;stroke-miterlimit:4;stroke-dasharray:none;stroke-opacity:1"
       d="m 38.671343,228.66752 c -0.003,0 -0.004,0.01 -0.006,0.011 0.003,0 0.004,-0.01 0.007,-0.011 z m -0.008,0.015 c -2.228511,3.9081 -4.47294,7.3099 -6.84766,11.1492 -4.244149,5.409 -5.48497,10.8633 -7.820181,16.7261 -0.678549,1.7081 -1.38523,3.374 -2.097039,5.0994 0.91729,-6.6813 1.71551,-12.6923 2.341459,-17.6382 0.0395,-0.3736 0.199631,-0.6031 0.413941,-0.7803 l -1.687258,-0.2553 c 0.11811,0.2308 0.12727,0.4747 0.0806,0.831 -0.42296,3.2279 -2.31579,17.2449 -3.02101,22.6358 -0.77769,2.1702 -1.43042,4.3425 -1.8624,6.5702 -0.23876,1.3625 -0.50874,3.0113 -0.74467,4.3801 0.007,-8.801 -0.23924,-19.3392 -0.5705,-28.0583 -0.16949,11.7224 -0.53853,22.107 -0.59015,33.9762 -0.51573,2.2585 -1.60465,6.0256 -2.45309,8.5225 h 2.80861 c 0.0328,-0.2358 0.0722,-0.4925 0.11576,-0.7648 -0.0332,0.2719 -0.0572,0.5102 -0.0858,0.7648 h 0.66714 c 0.7864,-5.3164 2.31812,-13.957 3.31505,-21.0556 0.85974,-2.5052 1.81724,-5.0279 2.7037,-7.4532 2.84895,-7.2934 3.73131,-13.7507 7.986599,-20.6128 2.57887,-5.0503 4.72313,-8.7586 7.346849,-14.0368 z m 13.431729,13.8203 c 0.762609,2.3478 1.624539,4.6154 2.511981,6.8673 0.400489,1.2761 8.217268,20.5604 8.548838,21.6426 1.155232,4.4692 2.193722,9.2547 4.64003,13.8147 0.389782,2.214 0.887121,4.8111 1.3286,7.0135 h 0.328671 c 2.289439,0 4.189809,-1.6006 4.652941,-3.7476 -1.360202,-2.4112 -2.756651,-4.8784 -4.159441,-7.1711 -0.187589,-0.2041 -0.369681,-0.4091 -0.54674,-0.6155 -1.948219,-8.144 -3.42496,-16.3186 -4.417279,-22.4064 -0.019,-0.1158 -0.0285,-0.2146 -0.0341,-0.3074 l -1.334291,0.026 c 0.0915,0.1344 0.153191,0.2973 0.17571,0.5038 0.614921,4.6888 1.51199,11.2048 2.50476,17.614 -1.794121,-3.3578 -2.82425,-6.926 -4.00648,-10.2449 -2.698461,-6.9023 -5.51553,-10.5247 -7.901331,-17.5261 -0.824759,-1.8076 -1.60695,-3.6108 -2.29185,-5.4632 z m -3.11042,0.8139 c -0.156501,1.1595 -0.3492,2.338 -0.58806,3.5249 -1.46675,4.6379 -4.618329,12.2621 -5.982071,17.4666 -0.259379,1.3861 -0.43969,2.8063 -0.640268,4.2199 -0.89095,-5.5829 -2.515391,-7.6786 -2.803972,-12.9186 0.114271,5.426 1.578872,8.5886 2.56005,14.5371 -0.806368,4.9513 -2.29063,9.2383 -7.068288,13.5527 -1.634881,2.8975 -3.080059,5.4659 -4.458131,8.1416 h 7.317909 c 1.41936,-2.3931 2.535502,-4.8108 3.295912,-7.569 0.560758,-2.034 0.860679,-3.9919 1.043329,-6.011 -0.003,-0.2648 -0.005,-0.5048 -0.009,-0.7804 0.058,-0.3199 0.104018,-0.64 0.142118,-0.9596 0.0499,-0.823 0.0873,-1.6613 0.119881,-2.5259 0.01691,0.8415 -0.01961,1.6833 -0.119881,2.5259 -0.0355,0.5872 -0.0803,1.1661 -0.132299,1.74 0.0724,5.3393 -0.0456,8.6369 0.0956,13.58 h 2.17456 c -0.110278,-0.246 -0.221059,-0.4912 -0.330218,-0.7384 -1.195311,-6.5915 -1.180132,-11.9224 -1.672752,-18.4036 0.0371,-0.3334 0.0604,-0.6661 0.0713,-0.9984 0.01799,-0.4355 0.0385,-0.8713 0.0625,-1.3058 1.298602,-7.3616 4.42241,-15.8645 6.219272,-22.4943 0.295328,-1.5567 0.52459,-3.0904 0.703318,-4.5837 z m -17.096108,11.0707 c -1.386549,2.5642 -2.79573,5.2598 -3.97238,8.0362 -2.291869,6.1951 -2.756609,11.2926 -6.213549,17.4837 -1.62576,3.5137 -3.39506,8.428 -4.33568,11.9336 h 2.86806 c 1.69463,-3.6989 3.36127,-8.9248 4.30258,-12.9036 0.80864,-3.4179 1.6842,-8.4106 2.561069,-11.7714 1.43088,-4.2201 3.32522,-8.2883 5.16867,-12.1517 0.003,0 0.007,0.01 0.0114,0.014 h -0.003 z m 1.26038,1.9807 c 0.0739,0.2781 0.085,0.5892 -0.007,0.9576 -3.207171,12.8889 -6.068481,22.5998 -9.387551,34.5152 h 1.95337 c 4.146617,-11.3028 8.177665,-22.7232 11.246337,-33.3959 -2.332381,6.7732 -5.24746,13.7442 -8.000021,20.4706 1.893361,-7.007 3.661831,-14.1111 5.403789,-21.2995 0.0664,-0.3475 0.169241,-0.5594 0.321422,-0.711 z m 41.06676,24.7308 v -4.8317 c -4.28167,-19.4966 -1.96591,-7.1311 0,4.8317 z m -63.886568,-14.9329 c 0.3564,0.6885 0.46562,1.5224 0.46562,1.5224 -0.2353,4.2924 -0.51509,10.7091 -0.66932,15.0178 -0.10192,2.8482 -0.0445,3.9584 -0.008,9.1347 h 1.51826 c -0.59354,-9.8756 -0.29721,-22.0026 0.14986,-23.9623 0.0443,-0.3976 0.12938,-0.6844 0.26977,-0.9276 -0.70925,-0.3221 -0.87577,-0.3984 -1.72601,-0.785 z m 46.648329,2.481 -0.412891,0.6196 c 0.6643,1.6386 1.34293,3.3306 1.954901,5.0214 2.922849,5.7378 5.99612,11.5453 7.672919,17.5529 h 0.37778 c -1.344099,-6.2357 -5.514401,-15.4554 -8.571079,-20.8607 -0.329401,-0.7839 -0.67374,-1.5637 -1.02163,-2.3332 z m -3.657651,2.4272 c 0.122971,0.1536 0.18822,0.3509 0.197901,0.6331 0.72839,6.708 1.566259,13.5547 2.672209,20.1336 h 2.553319 c -1.31781,-6.6705 -2.428679,-13.3602 -3.47935,-20.3316 -0.0172,-0.1141 -0.02299,-0.2226 -0.0196,-0.326 -0.56777,-0.032 -0.97105,-0.054 -1.924418,-0.1091 z m -3.72124,1.0847 c 0.85702,6.2438 2.00941,13.0404 3.41376,19.682 h 2.736771 c -1.01595,-2.3189 -1.98433,-4.5991 -2.888692,-6.9029 -1.209059,-4.1407 -2.345579,-8.4797 -3.261839,-12.7791 z m -30.974329,5.3341 c -0.36356,2.9758 -0.88862,6.4005 -1.33429,9.4779 0.0547,-0.8381 0.10605,-1.6442 0.16124,-2.5027 0.20621,-2.347 0.60812,-4.6511 1.17305,-6.9752 z"
       id="path4022"
       inkscape:connector-curvature="0"
       sodipodi:nodetypes="cccccccccccccccccccccccccccccccscccccccccccccccccccccccccccccccccccccccccccccccccccccccccccccsccccccccccccccccccccccccccccccc" />
    <path
       inkscape:connector-curvature="0"
       style="display:inline;opacity:1;fill:#ba94cd;fill-opacity:1;stroke:#ffffff;stroke-width:0.26458332;stroke-miterlimit:4;stroke-dasharray:none;stroke-opacity:1"
       d="m 52.417254,252.83812 v 0 c -0.441841,0.049 -0.691131,0.077 -1.180431,0.1299 -0.0358,0.041 -0.0759,0.081 -0.12351,0.1226 -0.14256,0.1014 -0.33056,0.211 -0.56829,0.3398 -0.900049,0.4876 -1.53524,1.403 -1.635149,2.3844 -0.01461,2.0399 -0.0158,4.0846 -0.003,6.1252 0.0176,1.3043 0.0281,2.9943 0.335719,4.4914 0.313751,1.5268 0.94982,2.9264 2.199341,3.7382 0.230349,0.1137 0.43946,0.2062 0.623919,0.2864 0.625751,0.2107 1.033701,0.3427 1.25376,0.6176 0.95336,0.055 1.356461,0.078 1.924241,0.1094 0.02349,-0.6948 0.481859,-1.1637 0.964631,-1.5831 0.12686,-0.11 0.24316,-0.227 0.349718,-0.3488 0.0021,0 0.004,0.01 0.006,0.015 l 0.412639,-0.6194 c 0.362162,-0.6749 0.241541,-2.2636 -0.02529,-4.1358 -0.435089,-3.0522 -0.53072,-2.932 -0.984991,-6.0832 -0.184719,-1.1337 -0.370848,-2.2702 -0.556958,-3.4037 -0.30162,-1.1415 -1.177671,-1.8005 -2.32105,-1.9799 -0.293491,-0.046 -0.514511,-0.1132 -0.671901,-0.2068 z"
       id="rect4387" />
    <path
       inkscape:connector-curvature="0"
       style="display:inline;opacity:1;fill:#ba94cd;fill-opacity:1;stroke:#ffffff;stroke-width:0.26458332;stroke-miterlimit:4;stroke-dasharray:none;stroke-opacity:1"
       d="m 11.777135,248.68922 c -0.19656,0.092 -0.43006,0.1653 -0.68412,0.2185 -0.42063,0.077 -0.81912,0.2036 -1.1758803,0.3706 -0.90664,0.4361 -1.4227601,1.1347 -1.5202201,1.8912 -0.019,2.0405 -0.021299,4.0878 -0.012301,6.1284 0.0952,1.5342 0.1704102,3.2357 0.42712,4.8475 0.2551502,1.602 0.6681801,2.9153 1.2835904,3.6513 0.0519,0.063 0.10001,0.1292 0.14388,0.1986 0.0334,0.055 0.0616,0.1135 0.0914,0.171 0.85021,0.3867 1.01633,0.4629 1.72563,0.785 0.18921,-0.3278 0.482669,-0.5735 0.944259,-0.8782 0.56572,-0.3734 1.04705,-1.1491 1.42249,-2.1505 0.92383,-2.4755 1.13257,-6.6987 1.27455,-8.677 0.0945,-1.1451 0.18727,-2.2893 0.280509,-3.4345 -0.0125,-0.9879 -0.482139,-1.7495 -1.25192,-2.2758 -0.188309,-0.1303 -0.402549,-0.2456 -0.646079,-0.3439 -0.1518,-0.073 -0.287811,-0.1511 -0.40449,-0.2439 -0.87074,-0.118 -1.38642,-0.1881 -1.898469,-0.2583 z"
       id="path3919" />
    <path
       inkscape:connector-curvature="0"
       style="display:inline;opacity:1;fill:#cfb651;fill-opacity:1;stroke:#ffffff;stroke-width:0.26458332;stroke-miterlimit:4;stroke-dasharray:none;stroke-opacity:1"
       d="m 13.188754,245.05882 c -0.31335,1.3057 -0.62337,2.368 -0.87773,3.1431 -0.0655,0.1996 -0.263669,0.3611 -0.533889,0.4873 0.512049,0.07 1.027729,0.1403 1.898459,0.2583 -0.17443,-0.1387 -0.30446,-0.3108 -0.36964,-0.5528 -0.057,-0.8358 -0.0722,-1.9802 -0.1172,-3.3359 z"
       id="path3927" />
    <path
       inkscape:connector-curvature="0"
       style="display:inline;opacity:1;fill:#cfb651;fill-opacity:1;stroke:#ffffff;stroke-width:0.26458332;stroke-miterlimit:4;stroke-dasharray:none;stroke-opacity:1"
       d="m 10.462045,223.89503 c -0.30175,1.3074 -0.5905202,2.5165 -0.8202905,3.2875 -0.0332,0.1768 -0.12109,0.3059 -0.2972498,0.3941 l 1.3234003,0.4017 c 0,-0.01 -0.005,-0.013 -0.006,-0.02 -0.20547,-0.2288 -0.26785,-0.4399 -0.26963,-0.7035 0.003,-0.8137 0.0153,-1.9761 0.0692,-3.3599 z"
       id="path3935" />
    <path
       inkscape:connector-curvature="0"
       style="display:inline;opacity:1;fill:#ba94cd;fill-opacity:1;stroke:#ffffff;stroke-width:0.26458332;stroke-miterlimit:4;stroke-dasharray:none;stroke-opacity:1"
       d="m 25.714764,225.23802 c -0.13768,0.069 -0.32794,0.1133 -0.59679,0.1325 -1.63248,0.1169 -3.1278,0.8136 -3.45895,2.0501 -0.12757,1.1571 -0.25152,2.3151 -0.37236,3.473 -0.0603,3.6245 -1.26125,9.1028 0.62572,11.1021 0.59181,0.4346 0.90778,0.7011 1.05468,0.9881 l 1.68716,0.2552 c 0.20013,-0.1655 0.447389,-0.2853 0.69132,-0.4307 0.064,-0.052 0.138,-0.1105 0.20995,-0.1728 0.53381,-0.5844 1.03268,-1.9249 1.431539,-3.5047 0.404101,-1.6008 0.665599,-3.2534 0.870051,-4.5643 0.244549,-2.0547 0.49775,-4.1072 0.76146,-6.1591 -0.01921,-1.3246 -1.24288,-2.0614 -1.562751,-2.7016 -0.0109,-0.021 -0.0141,-0.044 -0.0176,-0.066 z"
       id="path3943" />
    <path
       inkscape:connector-curvature="0"
       style="display:inline;opacity:1;fill:#cfb651;fill-opacity:1;stroke:#ffffff;stroke-width:0.26458332;stroke-miterlimit:4;stroke-dasharray:none;stroke-opacity:1"
       d="m 39.414404,235.57912 c -0.458621,1.2334 -0.870871,2.3536 -1.186781,3.0929 -0.0542,0.1854 -0.20633,0.3056 -0.46464,0.3783 l 1.36728,0.2099 c -0.0674,-0.1242 -0.0963,-0.2484 -0.0828,-0.3986 0.0728,-0.8118 0.180919,-1.9264 0.36694,-3.2825 z"
       id="path3953" />
    <path
       inkscape:connector-curvature="0"
       style="display:inline;opacity:1;fill:#ba94cd;fill-opacity:1;stroke:#ffffff;stroke-width:0.26458332;stroke-miterlimit:4;stroke-dasharray:none;stroke-opacity:1"
       d="m 37.762983,239.05032 c -0.184869,0.052 -0.4225,0.08 -0.72485,0.088 -1.38131,0.034 -2.4854,0.6168 -2.87665,1.7288 -0.25018,1.1203 -0.500139,2.2463 -0.74834,3.3671 -0.788871,3.9816 -2.23516,8.6816 -1.52341,10.1542 l 0.387771,0.6366 h 0.0021 c 0.0899,0.1225 0.184898,0.2408 0.285959,0.3534 0.266329,0.2958 0.48532,0.6099 0.585459,0.9868 l 1.530641,0.537 c 0.26765,-0.2667 0.689441,-0.346 1.343311,-0.6402 2.080829,-1.2795 2.760678,-5.1935 3.259428,-7.7685 0.37882,-2.0043 0.747332,-4.0152 1.104422,-6.0239 0.11798,-0.968 -0.0506,-1.9492 -0.664192,-2.5459 -0.293039,-0.2849 -0.49004,-0.4759 -0.593619,-0.6669 z"
       id="path3971" />
    <path
       inkscape:connector-curvature="0"
       style="display:inline;opacity:1;fill:#cfb651;fill-opacity:1;stroke:#ffffff;stroke-width:0.26458332;stroke-miterlimit:4;stroke-dasharray:none;stroke-opacity:1"
       d="m 59.883983,235.95512 c 0.0533,1.4161 0.0383,2.5167 0.003,3.3671 -0.0499,0.1191 -0.0931,0.2182 -0.135271,0.3099 l 0.93159,-0.3067 c -0.01759,-0.022 -0.0305,-0.044 -0.0353,-0.07 -0.34375,-1.4049 -0.297609,-1.3632 -0.763749,-3.3006 z"
       id="path3977" />
    <path
       inkscape:connector-curvature="0"
       style="display:inline;opacity:1;fill:#ba94cd;fill-opacity:1;stroke:#ffffff;stroke-width:0.26458332;stroke-miterlimit:4;stroke-dasharray:none;stroke-opacity:1"
       d="m 60.683033,239.32542 -0.9316,0.3067 c -0.33835,0.7365 -0.484101,0.686 -1.31662,1.3261 -0.662091,0.6022 -0.93984,1.2965 -0.881369,1.9487 0.456268,2.0193 0.903538,4.0361 1.342408,6.0587 0.37928,1.4894 0.91354,3.5636 1.623841,5.2647 0.498901,1.159 1.052851,2.1376 1.675399,2.5523 0.58379,0.285 1.141072,0.4273 1.419781,0.837 l 1.33381,-0.026 c -0.0302,-0.4985 0.136789,-0.7236 0.59949,-1.256 0.0806,-0.089 0.16932,-0.186 0.267851,-0.2941 0.578958,-0.9444 0.433869,-2.8502 0.0823,-4.9412 0.0776,0.4618 -1.335799,-6.9217 -1.189458,-6.0592 -0.244332,-1.1306 -0.492612,-2.283 -0.73615,-3.4137 -0.262932,-0.9023 -0.762971,-1.5121 -1.38176,-1.8224 -0.38413,-0.2198 -1.674532,-0.1945 -1.907961,-0.4814 z"
       id="path3985" />
    <path
       inkscape:connector-curvature="0"
       style="display:inline;opacity:1;fill:#cfb651;fill-opacity:1;stroke:#ffffff;stroke-width:0.26458332;stroke-miterlimit:4;stroke-dasharray:none;stroke-opacity:1"
       d="m 51.429123,249.22672 c 0.0449,1.3814 0.02511,2.4492 -0.006,3.2798 -0.007,0.1847 -0.0644,0.3248 -0.185509,0.4624 0.489288,-0.053 0.738579,-0.081 1.180427,-0.1299 -0.167129,-0.099 -0.262299,-0.2288 -0.28956,-0.3968 -0.20434,-0.7664 -0.45367,-1.9361 -0.699039,-3.2155 z"
       id="path3993" />
  </g>
</svg>
