<?xml version="1.0" encoding="UTF-8" standalone="no"?>
<!-- Created with Inkscape (http://www.inkscape.org/) -->

<svg
   xmlns:dc="http://purl.org/dc/elements/1.1/"
   xmlns:cc="http://creativecommons.org/ns#"
   xmlns:rdf="http://www.w3.org/1999/02/22-rdf-syntax-ns#"
   xmlns:svg="http://www.w3.org/2000/svg"
   xmlns="http://www.w3.org/2000/svg"
   xmlns:sodipodi="http://sodipodi.sourceforge.net/DTD/sodipodi-0.dtd"
   xmlns:inkscape="http://www.inkscape.org/namespaces/inkscape"
   width="300"
   height="300"
   viewBox="0 0 79.374998 79.375002"
   version="1.1"
   id="svg1234"
   inkscape:version="0.92.4 (5da689c313, 2019-01-14)"
   sodipodi:docname="na15.svg">
  <defs
     id="defs1228" />
  <sodipodi:namedview
     id="base"
     pagecolor="#ffffff"
     bordercolor="#666666"
     borderopacity="1.0"
     inkscape:pageopacity="0.0"
     inkscape:pageshadow="2"
     inkscape:zoom="0.7"
     inkscape:cx="-398.11237"
     inkscape:cy="196.7904"
     inkscape:document-units="px"
     inkscape:current-layer="layer1"
     showgrid="false"
     units="px" />
  <metadata
     id="metadata1231">
    <rdf:RDF>
      <cc:Work
         rdf:about="">
        <dc:format>image/svg+xml</dc:format>
        <dc:type
           rdf:resource="http://purl.org/dc/dcmitype/StillImage" />
        <dc:title></dc:title>
        <dc:creator>
          <cc:Agent>
            <dc:title>Sandie Skeen</dc:title>
          </cc:Agent>
        </dc:creator>
        <dc:rights>
          <cc:Agent>
            <dc:title>Copyright - All rights reserved - Tous droits réservés</dc:title>
          </cc:Agent>
        </dc:rights>
        <dc:description>Toulouse, France</dc:description>
      </cc:Work>
    </rdf:RDF>
  </metadata>
  <g
     inkscape:label="Calque 1"
     inkscape:groupmode="layer"
     id="layer1"
     transform="translate(0,-217.62499)">
    <g
       id="g3875-11-1-0-7-1-3-3-2-8-7-4-3-5-7-1-7-6-5-6-8-7-3-7-2"
       transform="translate(-1124.2379,477.54816)"
       inkscape:transform-center-x="-8.3154762"
       inkscape:transform-center-y="-3.0238095">
      <rect
         ry="6.8791666"
         rx="6.8791666"
         y="-259.27255"
         x="1124.8885"
         height="78.073769"
         width="78.073769"
         id="rect5205-0-1-9-2-4-3-8-4-9-0-6-7-7-5-6-2-2-8-9-5-6-2-5-8-7-1-980-3-2-6-0-3-5-9-9-0-3-1-2-2-9-5-3-9-0-7-4-0-36-5-5-6-7-3-5-8"
         style="opacity:1;fill:#ffffff;fill-opacity:1;stroke:#8bf0ec;stroke-width:1.30122089;stroke-miterlimit:4;stroke-dasharray:none;stroke-dashoffset:0;stroke-opacity:1" />
      <rect
         inkscape:export-ydpi="43.548504"
         inkscape:export-xdpi="43.548504"
         inkscape:export-filename="C:\Users\sandi\AndroidStudioProjects\Mnemosis\app\src\main\res\drawable\dos.png"
         transform="rotate(-90)"
         ry="4.7624993"
         rx="4.7624993"
         y="1129.3967"
         x="185.70691"
         height="69.057289"
         width="69.057289"
         id="rect5169-4-0-4-9-7-5-2-3-6-7-2-3-4-7-1-8-9-3-36-4-4-8-1-6-8-6-4-1-4-7-6-5-4-2-5-4-8-8-2-6-6-9-8-9-4-7-3-5-3-8-0-1-1-6-6-6-0-5-2-7-9"
         style="display:inline;opacity:1;fill:#8bf0ec;fill-opacity:1;stroke:none;stroke-width:2.30172825;stroke-miterlimit:4;stroke-dasharray:none;stroke-dashoffset:0;stroke-opacity:1" />
    </g>
    <path
       style="display:inline;opacity:1;fill:#ff78c5;fill-opacity:1;stroke:#ffffff;stroke-width:0.26458332;stroke-miterlimit:4;stroke-dasharray:none;stroke-opacity:1"
       d="m 73.120393,235.88526 c -0.194731,0 -0.38463,0.037 -0.566611,0.094 l -0.89205,2.1799 c 0.443161,0.1671 1.08939,0.3185 1.75124,0.1518 0.32921,-0.083 0.741021,-0.3154 0.998519,-0.5712 0.134411,-0.1336 0.25904,-0.3025 0.313412,-0.4986 0.01259,-0.045 0.01831,-0.093 0.01799,-0.1417 0,-0.048 -0.007,-0.096 -0.01939,-0.1412 -0.213241,-0.7122 -1.085641,-1.0794 -1.60311,-1.073 z m -2.200281,9.6561 c -0.649901,0.018 -1.265851,0.233 -1.76281,0.6995 -0.0333,0.032 -0.0701,0.076 -0.107389,0.1222 l -0.780021,2.0192 c 0.420622,0.2306 1.706851,0.8416 3.053919,0.5023 0.453721,-0.1143 1.021731,-0.4356 1.37673,-0.7883 0.18523,-0.1841 0.356971,-0.4166 0.43189,-0.687 0.0344,-0.1236 0.032,-0.2659 -0.003,-0.3893 -0.293999,-0.9818 -1.496337,-1.4874 -2.209559,-1.4786 z m -9.290859,1.2119 c -0.0639,0 -0.12782,0 -0.191659,0 -0.23331,0.014 -0.4709,0.1116 -0.651312,0.2602 -1.435989,1.2739 -1.516509,3.3856 -0.93558,4.8236 0.529231,1.2614 1.439061,2.4337 2.60209,3.1012 0.16338,0.09 0.40422,0.1798 0.63931,0.2573 l 2.502562,-4.1112 c -0.0576,-0.6361 -0.202462,-1.393 -0.547651,-1.9813 -0.496051,-0.8453 -1.263279,-1.491 -2.12666,-1.9549 -0.3943,-0.2118 -0.843039,-0.3788 -1.2911,-0.3967 z m -3.340439,21.0621 c -0.67818,0.02 -1.427461,0.2427 -1.96419,0.6898 -0.66136,0.6021 -1.18215,1.4167 -1.33369,2.2738 -0.0254,0.1601 -0.02011,0.4029 -0.009,0.6037 l 2.459979,1.13 c 0.386371,-0.2137 1.206162,-0.7035 1.658663,-1.242 0.411458,-0.4898 0.721278,-1.303 0.814257,-1.9323 0.0486,-0.3284 0.0452,-0.687 -0.0884,-0.9916 -0.252029,-0.3673 -0.859219,-0.5511 -1.537359,-0.5314 z m 8.308999,6.0819 -2.689569,0.3995 c 0.01619,0.5564 0.134858,0.9959 0.492538,1.4684 0.438102,0.5628 1.524921,1.2347 2.365081,0.942 0.104119,-0.039 0.201081,-0.1129 0.262469,-0.2055 0.13434,-0.2026 0.182851,-0.4611 0.19072,-0.7041 0.01511,-0.4656 -0.0998,-1.0912 -0.32915,-1.4967 -0.0843,-0.149 -0.18665,-0.2841 -0.292089,-0.4036 z"
       id="path1581"
       inkscape:connector-curvature="0" />
    <path
       style="display:inline;opacity:1;fill:#695a24;fill-opacity:1;stroke:#ffffff;stroke-width:0.26458332;stroke-miterlimit:4;stroke-dasharray:none;stroke-opacity:1"
       d="m 73.535172,232.55636 c -0.0474,-0.01 -0.10206,0.019 -0.162949,0.087 -0.429662,0.481 -0.846622,1.307 -1.307282,2.0248 -0.884558,1.3784 -1.445289,3.2004 -2.00723,4.7288 -0.676778,1.8405 -0.965248,3.5167 -1.596639,5.3764 -0.742098,2.1858 -1.676019,4.2586 -2.866408,6.3128 l -2.502562,4.1113 c -0.302699,0.4159 -0.623858,0.817 -0.96983,1.1925 -1.571929,1.7062 -3.48334,3.0678 -5.297239,4.5283 -1.461841,0.5301 -2.98613,1.1748 -4.482941,1.9188 l -0.111109,1.5309 c 2.13483,-1.0544 4.38712,-2.3227 7.187351,-3.1845 3.240518,-0.9972 5.918189,-1.3417 5.651349,-1.8975 -0.98802,-0.183 -2.72841,0.027 -4.831059,0.5676 0.5729,-0.595 1.123939,-1.224 1.709589,-1.8041 1.466141,-1.4519 2.612181,-3.0252 3.752469,-4.7375 0.823421,-1.2365 1.630881,-2.9207 2.1873,-4.0863 0.1353,-0.2833 0.261181,-0.564 0.38191,-0.8434 l 0.780021,-2.0193 c 0.57186,-1.6541 1.007179,-3.3095 1.55819,-5.1139 0.344818,-1.129 0.688398,-2.1297 1.053629,-3.09 l 0.89205,-2.1799 c 0.31981,-0.7374 0.659969,-1.4889 1.037421,-2.2984 0.212018,-0.4548 0.14918,-1.0951 -0.0561,-1.1245 z m -30.274249,17.5577 -1.33091,4.4686 c -0.971119,0.5382 -1.952569,1.0745 -2.890949,1.5684 l 0.40413,1.0166 c 0.787739,-0.467 1.631238,-0.9541 2.484038,-1.4448 0.526672,0.943 0.768152,2.5658 1.26333,2.3744 0.396081,-0.092 0.30789,-1.9593 0.495792,-3.3891 2.93565,-1.7009 5.510009,-3.2702 5.4736,-3.8876 -0.163381,-0.2136 -2.806542,1.2914 -5.87125,3.0053 0.0886,-1.4572 0.218318,-3.0075 -0.0278,-3.7118 z m -38.4703195,5.9555 c -0.13232,0.013 -0.1945201,0.1815 -0.1370301,0.5958 v 2.3498 c 1.5972502,1.4928 3.1276102,2.4621 5.1023402,3.4632 1.0411204,0.6188 2.0570304,1.5036 3.1261304,2.2493 0.39048,1.0495 1.31153,1.9433 1.93132,2.716 0.56837,0.6446 1.66899,1.5824 2.66921,2.1267 0.31948,0.1205 0.57006,0.2394 0.79206,0.3518 l 2.43821,0.6888 c 1.16851,0.1201 1.7079,0.1416 2.88217,0.088 0.39505,-0.038 1.23004,-0.079 1.50033,-0.5467 -1.70341,0.1291 -2.87078,-0.2096 -4.38156,-0.6032 -1.32252,-0.1375 -2.46204,-0.7053 -3.56822,-1.4119 -0.86529,-0.5528 -1.45341,-1.413 -2.06,-2.235 0.15887,0.052 0.31943,0.098 0.48236,0.1347 1.5705,0.7017 3.21095,0.8282 4.89217,0.5356 2.68173,-0.2048 5.39333,-0.3212 7.968769,-1.1675 1.627301,-0.4315 3.16558,-0.9644 4.70653,-1.6008 l -1.907699,-0.6263 c -3.87018,1.1528 -8.21329,2.4387 -12.28321,1.9105 -2.00405,0.015 -3.71724,-1.2263 -5.45648,-2.0767 -2.42852,-1.6122 -4.9357404,-3.1656 -6.9415406,-5.3102 -0.3299499,-0.3134 -1.3589299,-1.6717 -1.7558599,-1.6323 z m 35.6622305,4.0687 -0.708279,1.5198 c 0.650197,-0.01 1.29041,0.074 1.879467,0.2976 l 0.6643,-1.4281 c -0.54551,-0.2454 -1.171638,-0.3733 -1.835488,-0.3893 z m 10.444009,7.9238 -1.697548,0.1204 c 0.111339,0.1544 1.569278,2.1679 2.503958,3.0544 0.63563,0.6028 1.26066,0.9628 2.044271,1.3545 1.452669,0.726 3.120628,1.4613 4.737558,1.6128 1.087252,0.1018 3.425862,0.2131 5.423162,0.093 l 2.689569,-0.3995 c 1.07293,-0.2672 2.07233,-0.6252 2.649299,-0.8735 0.263142,-0.1133 0.801799,-0.6788 0.541161,-0.7977 -0.402051,-0.1835 -2.896349,0.7646 -4.38017,0.9185 -1.358511,0.1409 -2.735529,0.1041 -4.097321,0 -1.23534,-0.094 -2.495328,-0.1814 -3.673309,-0.5653 -0.0655,-0.021 -0.13068,-0.044 -0.19582,-0.067 l -2.459969,-1.1299 c -0.49621,-0.2847 -0.977681,-0.5943 -1.442011,-0.9226 -0.786479,-0.5563 -1.893319,-1.6356 -2.64283,-2.398 z"
       id="path1580-48-8-5-5"
       inkscape:connector-curvature="0" />
    <path
       style="display:inline;opacity:1;fill:#ffacdc;fill-opacity:1;stroke:#ffffff;stroke-width:0.26458332;stroke-miterlimit:4;stroke-dasharray:none;stroke-opacity:1"
       d="m 36.418914,252.56526 c -0.7874,0 -1.578491,0.2897 -2.147501,0.9124 -1.656199,0.6786 -3.32109,-0.6424 -4.45888,2.1906 -0.722299,1.7984 -1.336141,3.6852 -0.369419,5.463 0.56352,0.6221 1.119409,1.4676 1.78458,2.047 l 1.907699,0.6263 c -0.431239,0.6882 -0.60393,1.5432 -0.35042,2.3757 -0.260379,1.7709 -2.24518,2.5299 -0.387929,4.9529 1.178999,1.5382 2.488991,3.028 4.511169,3.1025 1.619279,-0.33 3.969002,-0.1918 4.288531,-2.2623 1.601579,-0.8601 2.29434,-2.8374 0.98371,-4.1478 0.185928,-0.4425 0.33858,-0.8935 0.411078,-1.3286 0.329322,0.4151 0.790191,0.7013 1.468861,0.7559 0.97437,1.5347 2.99688,2.0817 4.208441,0.6792 0.310349,0.1045 0.62329,0.1915 0.930461,0.2504 l 1.697548,-0.1204 c 0.42278,-0.2017 0.77851,-0.5728 1.023061,-1.1864 0.0665,-0.098 0.121719,-0.1976 0.168029,-0.2996 0.310492,-0.6831 0.203251,-1.4555 0.14305,-2.2081 l 0.111109,-1.5309 c 0.127931,-0.3544 0.360172,-0.682 0.769371,-0.9656 0.672381,-2.2319 -1.787189,-4.24 -3.885779,-3.4298 -1.78507,-0.1308 -2.68627,-2.0553 -4.967621,-0.026 -0.73193,0.6508 -1.44871,1.3344 -1.969741,2.1123 l -0.6643,1.4281 c -0.0984,0.3718 -0.147539,0.7648 -0.132389,1.1846 0.10261,0.3653 0.184229,0.77191 0.273121,1.1819 -0.111752,-0.076 -0.23518,-0.1485 -0.37266,-0.2153 -0.0925,-0.073 -0.187791,-0.1357 -0.286091,-0.18929 -1.190588,-0.6496 -2.772231,0.042 -3.900131,-0.6222 0.197102,-0.24601 0.349232,-0.54401 0.43933,-0.89621 0.79774,-0.1102 1.567831,-0.3127 2.099353,-0.74119 l 0.708279,-1.51981 c 0.003,-0.1 -6.1e-5,-0.2037 -0.01029,-0.31239 0.0159,-0.11701 0.0209,-0.2311 0.01709,-0.34301 -0.0303,-0.8558 -0.59949,-1.57329 -1.016579,-2.3151 l -0.40414,-1.01659 c -0.0749,-0.4117 -0.0277,-0.84911 0.239789,-1.3355 -0.245639,-1.436 -1.547598,-2.2484 -2.859929,-2.2503 z"
       id="path1548"
       inkscape:connector-curvature="0"
       sodipodi:nodetypes="scccccccccccccccccccccccccccccccccccccs" />
    <path
       style="display:inline;opacity:1;fill:#ff78c5;fill-opacity:1;stroke:#ffffff;stroke-width:0.26458332;stroke-miterlimit:4;stroke-dasharray:none;stroke-opacity:1"
       d="m 18.274634,269.92216 c -0.0948,0.1345 -0.1998,0.2953 -0.25136,0.4143 -0.28137,0.6819 -0.28282,1.4983 -0.0884,2.2253 0.17293,0.6467 0.53444,1.0876 1.02445,1.4656 0.25208,0.1944 0.68863,0.3083 1.00686,0.318 0.12852,0 0.26459,-0.034 0.3708,-0.106 0.23247,-0.1586 0.39744,-0.4142 0.51199,-0.6713 0.21949,-0.4924 0.36921,-1.2136 0.30044,-1.7484 -0.0631,-0.4915 -0.28141,-0.9406 -0.43654,-1.2087 -0.72864,-0.4482 -1.51292,-0.7519 -2.43821,-0.6888 z"
       id="path1562"
       inkscape:connector-curvature="0"
       sodipodi:nodetypes="cccccccccc" />
    <path
       style="opacity:1;fill:#ff78c5;fill-opacity:1;stroke:#ffffff;stroke-width:0.26458332;stroke-miterlimit:4;stroke-dasharray:none;stroke-dashoffset:0;stroke-opacity:1"
       d="m 33.314383,259.73566 c -0.710858,-0.7109 -0.667178,-1.1601 0.20805,-2.1397 0.721939,-0.808 0.756211,-0.817 1.653651,-0.4375 1.352709,0.572 1.95743,1.3388 1.5929,2.0199 -0.623382,1.1648 -2.538179,1.4737 -3.454601,0.5573 z"
       id="path1607"
       inkscape:connector-curvature="0" />
    <path
       style="opacity:1;fill:#ff78c5;fill-opacity:1;stroke:#ffffff;stroke-width:0.26458332;stroke-miterlimit:4;stroke-dasharray:none;stroke-dashoffset:0;stroke-opacity:1"
       d="m 46.155274,264.34206 c -1.213501,-0.7771 -1.16328,-1.903 0.11489,-2.5758 0.87576,-0.4609 1.351428,-0.3714 2.00352,0.3773 0.93431,1.0727 1.04988,1.6403 0.455049,2.2352 -0.668819,0.6688 -1.490131,0.6571 -2.573459,-0.037 z"
       id="path1609"
       inkscape:connector-curvature="0" />
    <path
       style="opacity:1;fill:#ff78c5;fill-opacity:1;stroke:#ffffff;stroke-width:0.26458332;stroke-miterlimit:4;stroke-dasharray:none;stroke-dashoffset:0;stroke-opacity:1"
       d="m 36.568652,270.49936 c -0.553058,-0.553 -0.813757,-1.9305 -0.44863,-2.3704 0.165092,-0.1989 0.720723,-0.5612 1.234752,-0.8052 0.87906,-0.4171 0.964819,-0.4161 1.443041,0.017 0.67487,0.6108 0.642628,1.6035 -0.0869,2.6751 -0.647448,0.9511 -1.485789,1.1404 -2.142289,0.4839 z"
       id="path1611"
       inkscape:connector-curvature="0" />
  </g>
</svg>
