<?xml version="1.0" encoding="UTF-8" standalone="no"?>
<!-- Created with Inkscape (http://www.inkscape.org/) -->

<svg
   xmlns:dc="http://purl.org/dc/elements/1.1/"
   xmlns:cc="http://creativecommons.org/ns#"
   xmlns:rdf="http://www.w3.org/1999/02/22-rdf-syntax-ns#"
   xmlns:svg="http://www.w3.org/2000/svg"
   xmlns="http://www.w3.org/2000/svg"
   xmlns:sodipodi="http://sodipodi.sourceforge.net/DTD/sodipodi-0.dtd"
   xmlns:inkscape="http://www.inkscape.org/namespaces/inkscape"
   width="300"
   height="300"
   viewBox="0 0 79.374998 79.375002"
   version="1.1"
   id="svg1234"
   inkscape:version="0.92.4 (5da689c313, 2019-01-14)"
   sodipodi:docname="na16.svg">
  <defs
     id="defs1228" />
  <sodipodi:namedview
     id="base"
     pagecolor="#ffffff"
     bordercolor="#666666"
     borderopacity="1.0"
     inkscape:pageopacity="0.0"
     inkscape:pageshadow="2"
     inkscape:zoom="0.49497475"
     inkscape:cx="-524.14237"
     inkscape:cy="126.43043"
     inkscape:document-units="px"
     inkscape:current-layer="layer1"
     showgrid="false"
     units="px" />
  <metadata
     id="metadata1231">
    <rdf:RDF>
      <cc:Work
         rdf:about="">
        <dc:format>image/svg+xml</dc:format>
        <dc:type
           rdf:resource="http://purl.org/dc/dcmitype/StillImage" />
        <dc:title></dc:title>
        <dc:creator>
          <cc:Agent>
            <dc:title>Sandie Skeen</dc:title>
          </cc:Agent>
        </dc:creator>
        <dc:rights>
          <cc:Agent>
            <dc:title>Copyright - All rights reserved - Tous droits réservés</dc:title>
          </cc:Agent>
        </dc:rights>
        <dc:description>Toulouse, France</dc:description>
      </cc:Work>
    </rdf:RDF>
  </metadata>
  <g
     inkscape:label="Calque 1"
     inkscape:groupmode="layer"
     id="layer1"
     transform="translate(0,-217.62499)">
    <g
       id="g3875-11-1-0-7-1-3-3-2-8-7-4-3-5-7-1-7-6-5-6-8-7-3-7-7-7-3-9-5-7-0"
       transform="translate(-1124.2379,477.54816)"
       inkscape:transform-center-x="-8.3154762"
       inkscape:transform-center-y="-3.0238095">
      <rect
         ry="6.8791666"
         rx="6.8791666"
         y="-259.27255"
         x="1124.8885"
         height="78.073769"
         width="78.073769"
         id="rect5205-0-1-9-2-4-3-8-4-9-0-6-7-7-5-6-2-2-8-9-5-6-2-5-8-7-1-980-3-2-6-0-3-5-9-9-0-3-1-2-2-9-5-3-9-0-7-4-0-36-5-5-6-7-3-5-1-1-8-5-3-4-5"
         style="opacity:1;fill:#ffffff;fill-opacity:1;stroke:#8bf0ec;stroke-width:1.30122089;stroke-miterlimit:4;stroke-dasharray:none;stroke-dashoffset:0;stroke-opacity:1" />
      <rect
         inkscape:export-ydpi="43.548504"
         inkscape:export-xdpi="43.548504"
         inkscape:export-filename="C:\Users\sandi\AndroidStudioProjects\Mnemosis\app\src\main\res\drawable\dos.png"
         transform="rotate(-90)"
         ry="4.7624993"
         rx="4.7624993"
         y="1129.3967"
         x="185.70691"
         height="69.057289"
         width="69.057289"
         id="rect5169-4-0-4-9-7-5-2-3-6-7-2-3-4-7-1-8-9-3-36-4-4-8-1-6-8-6-4-1-4-7-6-5-4-2-5-4-8-8-2-6-6-9-8-9-4-7-3-5-3-8-0-1-1-6-6-6-0-5-2-7-3-8-6-5-0-4-9"
         style="display:inline;opacity:1;fill:#8bf0ec;fill-opacity:1;stroke:none;stroke-width:2.30172825;stroke-miterlimit:4;stroke-dasharray:none;stroke-dashoffset:0;stroke-opacity:1" />
    </g>
    <g
       id="g3710"
       transform="translate(647.53207,-1491.8653)">
      <path
         inkscape:export-ydpi="43.548344"
         inkscape:export-xdpi="43.548344"
         inkscape:export-filename="C:\Users\Sid\AndroidStudioProjects\Mnemosismemorygame\app\src\main\res\drawable\z_na16.png"
         inkscape:connector-curvature="0"
         id="path4241-4-2-3-9-1"
         d="m -588.83149,1716.0013 a 1.4831566,1.0855673 29.085539 0 0 -0.95455,0.5644 1.4831566,1.0855673 29.085539 0 0 -0.0239,0.072 c -1.85181,0.028 -3.28354,0.5342 -4.55452,1.4988 a 1.8191833,1.5167681 0 0 0 -0.0245,0 1.8191833,1.5167681 0 0 0 -1.81919,1.5168 1.8191833,1.5167681 0 0 0 0.26641,0.7878 c -5.96192,4.7726 -11.16477,11.5774 -13.56322,13.011 -2.37027,1.2743 -4.35319,1.7563 -6.71353,3.3711 l -5.75505,3.7424 -1.73192,-5.5105 c -0.0884,-0.2874 -1.51215,0.028 -1.58915,0.3404 l -1.77025,8.4807 -14.66582,9.5367 c 1.31828,0.3911 2.13116,0.4267 3.01896,0.5155 0.87361,2.7176 5.45097,1.9966 10.00219,0.4159 l -0.75227,4.8599 c -0.26795,2.7577 -0.69662,7.9269 -0.80379,8.2733 l -0.97306,2.9876 c -0.0424,0.1311 0.98292,0.2582 1.01537,0.091 l 0.5923,-3.4933 c 0,0 0.88679,-6.9473 0.93072,-7.0782 0.0399,-0.1192 0.13332,-0.5927 0.2565,-0.9925 0.0467,-0.1515 0.37969,-2.4318 0.75158,-5.0179 2.91021,-1.0903 5.68583,-2.4481 7.35205,-3.4127 l 0.46544,2.5014 c 0.0942,0.4212 1.02664,1.4782 1.18189,1.544 0.1553,0.066 0.42626,0.01 0.58304,-0.049 0.1568,-0.06 0.71283,-0.7063 0.95784,-1.0077 0.34629,-0.389 0.98542,-3.4548 1.55279,-5.8617 0.009,-0.01 0.0184,-0.012 0.0281,-0.02 0.12973,0.9155 0.28388,1.9107 0.54334,3.249 0.11427,0.6886 -2.49735,4.5652 -3.79365,6.9051 -0.15455,0.3476 0.0902,1.0529 0.0245,1.3496 -1.03708,4.5499 -2.50043,10.0257 -3.11152,13.6501 l -0.17917,4.8104 -0.11968,4.5502 c 0.003,0.2239 1.24018,0.2537 1.19654,-0.065 l -0.53876,-4.6149 0.29946,-4.5826 2.97005,-13.5978 c 0.22438,-0.7532 3.01257,-5.0247 4.5083,-7.3648 1.94637,-3.0691 3.51148,-5.8574 4.50699,-9.2012 0.1779,-0.1409 0.35073,-0.2798 0.53478,-0.4229 0.37818,2.1101 0.92843,3.7926 2.37775,5.5938 0.82456,0.7225 1.27288,0.7303 1.79474,0.8776 l 2.06837,0.025 c 0.022,0.5292 0.0672,1.0348 0.14542,1.5031 1.11683,2.4701 1.32841,4.1336 3.35015,7.4101 2.02175,3.2767 8.73195,4.0254 8.43619,5.7201 -1.55851,6.9986 -0.81616,10.4093 -1.99368,12.8768 -0.21581,0.4523 -0.4867,0.9781 -1.00015,1.4335 0.54972,-0.093 0.82186,-0.1909 1.43844,-0.8554 2.00432,-2.1989 3.49908,-12.8462 2.87155,-15.5346 -0.12117,-0.9852 -1.07349,-2.5599 -2.09351,-3.6404 l -6.67123,-6.4677 c -0.45991,-0.4555 -1.47048,-1.0611 -1.88466,-1.2676 0.0486,-0.3525 0.0943,-0.7279 0.14017,-1.1002 7.68286,0.2127 10.19505,-0.4242 16.13336,-3.7094 l 3.56038,-2.0153 c 0.46118,-0.2667 1.73174,-0.1068 1.85418,0.8935 0.335,2.7545 2.17028,6.5057 2.93174,9.5717 0.0298,1.3425 -0.46922,2.6913 -1.55543,3.5103 l -0.98693,0.65 c 1.04916,-0.1319 1.45008,-0.1419 2.33479,-0.9953 0.88476,-0.8535 1.22962,-1.7524 1.43379,-2.7792 0.2042,-1.027 0.003,-2.3051 -0.16455,-3.2879 -0.16681,-0.9828 -1.69361,-5.6689 -2.28461,-6.9863 -0.59099,-1.3174 -1.39536,-2.661 -2.84512,-2.5918 -0.0406,-0.5591 -0.78109,-1.0934 -1.3075,-1.0098 -7.18091,0.931 -14.81236,4.3502 -18.78282,6.0232 0.37487,-3.2505 0.81182,-6.6682 1.75175,-8.8485 1.21528,-2.9714 3.63821,-8.9981 3.89749,-12.6196 0.003,-0.046 0.003,-0.08 0.004,-0.1243 l 2.4187,-1.6381 c 0.87883,0.057 1.81203,0.079 2.80616,0.034 0.37357,-0.027 0.62383,-0.3524 0.7192,-0.5976 0.27685,-0.9125 0.33414,-2.7174 0.36556,-4.1545 a 1.4831566,1.0855673 29.085539 0 0 0.36156,-0.4122 1.4831566,1.0855673 29.085539 0 0 -0.93863,-1.6403 1.4831566,1.0855673 29.085539 0 0 -0.78799,-0.1781 z m -10.96337,13.9281 0.0834,1.358 c 0.13224,1.6562 -2.49525,9.805 -2.77045,15.8492 l -2.45244,0.1107 c -1.06536,-0.021 -1.21244,-4.3857 -1.83968,-6.5038 1.35218,-4.1314 4.56055,-6.3161 6.43324,-10.0198 0.13055,-0.2503 0.31957,-0.5173 0.54601,-0.7943 z m -25.02829,6.9742 c 0.0217,0.011 0.042,0.056 0.0588,0.1027 l 1.73059,4.2472 -3.07647,2.0007 1.21961,-6.2516 c 0.022,-0.088 0.0455,-0.1107 0.0674,-0.099 z"
         style="display:inline;opacity:1;fill:#3ed03e;fill-opacity:1;fill-rule:evenodd;stroke:none;stroke-width:0.28243774px;stroke-linecap:butt;stroke-linejoin:miter;stroke-opacity:1" />
      <path
         id="path3677"
         d="m -623.97999,1734.9432 c -0.44132,-0.018 -1.2569,0.2179 -1.31466,0.4521 l -1.77043,8.4807 0.99478,-0.647 0.0873,-0.057 -0.12714,0.083 1.21957,-6.2518 c 0.022,-0.088 0.0453,-0.1104 0.0672,-0.099 0.0217,0.011 0.0421,0.056 0.0589,0.1023 l 1.72445,4.2323 1.06248,-0.6857 -1.72807,-5.4979 c -0.022,-0.072 -0.12729,-0.1057 -0.2744,-0.1116 z"
         style="display:inline;opacity:1;fill:#28a428;fill-opacity:1;fill-rule:evenodd;stroke:none;stroke-width:0.28243774px;stroke-linecap:butt;stroke-linejoin:miter;stroke-opacity:1"
         inkscape:connector-curvature="0" />
      <path
         id="path3682"
         d="m -615.57121,1747.6685 -4.76869,2.8928 0.46508,2.5017 c 0.0942,0.4212 1.02658,1.4783 1.18184,1.5441 0.15531,0.066 0.42664,0.01 0.58343,-0.049 0.1568,-0.06 0.71255,-0.7063 0.95756,-1.0077 0.34628,-0.389 0.98552,-3.4548 1.55289,-5.8617 0.009,-0.01 0.0183,-0.012 0.0279,-0.02 z m -12.11657,6.2916 -1.01698,0.3974 -0.008,0.01 -0.74933,4.84 c -0.26794,2.7577 -0.69638,7.927 -0.80356,8.2734 l -0.97306,2.9874 c -0.0424,0.1311 0.98298,0.2582 1.01544,0.091 l 0.59222,-3.4933 c 0,0 0.88675,-6.9473 0.93067,-7.0782 0.0399,-0.1192 0.13314,-0.5929 0.25633,-0.9927 0.0467,-0.1515 0.37949,-2.4317 0.75136,-5.0177 0.01,0 0.0185,-0.01 0.0279,-0.011 z"
         style="display:inline;opacity:1;fill:#28a428;fill-opacity:1;fill-rule:evenodd;stroke:none;stroke-width:0.28243774px;stroke-linecap:butt;stroke-linejoin:miter;stroke-opacity:1"
         inkscape:connector-curvature="0" />
      <path
         sodipodi:nodetypes="ccccccccccccccccccccccccccccc"
         inkscape:connector-curvature="0"
         id="path3687"
         d="m -580.54543,1740.1496 c -0.0344,0 -0.0679,0 -0.10078,0.01 -7.1809,0.931 -14.81236,4.3499 -18.78283,6.0229 -0.048,0.3776 -0.26379,1.8898 -0.31792,2.7246 6.78992,0.5561 11.39047,-0.8022 16.12974,-3.7064 l 3.56052,-2.0154 c 0.46117,-0.2667 1.7317,-0.1068 1.85415,0.8935 0.33499,2.7545 2.17014,6.506 2.93158,9.572 0.0298,1.3425 -0.46923,2.6909 -1.55545,3.5099 l -0.9865,0.6501 c 1.04918,-0.1319 1.45005,-0.1419 2.33473,-0.9953 0.88477,-0.8535 1.22934,-1.7524 1.43352,-2.7792 0.2042,-1.027 0.003,-2.3048 -0.16434,-3.2876 -0.16679,-0.9828 -1.69359,-5.6693 -2.28459,-6.9867 -0.591,-1.3174 -1.39555,-2.6608 -2.84533,-2.5915 -0.038,-0.5242 -0.69139,-1.0267 -1.20664,-1.0186 z m -26.22839,0.5937 -1.93114,1.7172 c 0.37764,2.0498 0.93332,3.7027 2.35284,5.4669 0.82454,0.7225 1.27285,0.7302 1.79472,0.8774 l 2.06912,0.027 0.006,-1.6945 -2.45202,0.1106 c -1.06537,-0.021 -1.21246,-4.3859 -1.8397,-6.504 z m 4.29173,6.3935 c 1.3e-4,0 0,0 0,0 z"
         style="display:inline;opacity:1;fill:#28a428;fill-opacity:1;fill-rule:evenodd;stroke:none;stroke-width:0.28243774px;stroke-linecap:butt;stroke-linejoin:miter;stroke-opacity:1" />
    </g>
  </g>
</svg>
