<?xml version="1.0" encoding="UTF-8" standalone="no"?>
<!-- Created with Inkscape (http://www.inkscape.org/) -->

<svg
   xmlns:dc="http://purl.org/dc/elements/1.1/"
   xmlns:cc="http://creativecommons.org/ns#"
   xmlns:rdf="http://www.w3.org/1999/02/22-rdf-syntax-ns#"
   xmlns:svg="http://www.w3.org/2000/svg"
   xmlns="http://www.w3.org/2000/svg"
   xmlns:sodipodi="http://sodipodi.sourceforge.net/DTD/sodipodi-0.dtd"
   xmlns:inkscape="http://www.inkscape.org/namespaces/inkscape"
   width="300"
   height="300"
   viewBox="0 0 79.374998 79.375002"
   version="1.1"
   id="svg1234"
   inkscape:version="0.92.4 (5da689c313, 2019-01-14)"
   sodipodi:docname="na17.svg">
  <defs
     id="defs1228" />
  <sodipodi:namedview
     id="base"
     pagecolor="#ffffff"
     bordercolor="#666666"
     borderopacity="1.0"
     inkscape:pageopacity="0.0"
     inkscape:pageshadow="2"
     inkscape:zoom="0.49497475"
     inkscape:cx="-563.72709"
     inkscape:cy="69.05566"
     inkscape:document-units="px"
     inkscape:current-layer="layer1"
     showgrid="false"
     units="px" />
  <metadata
     id="metadata1231">
    <rdf:RDF>
      <cc:Work
         rdf:about="">
        <dc:format>image/svg+xml</dc:format>
        <dc:type
           rdf:resource="http://purl.org/dc/dcmitype/StillImage" />
        <dc:title></dc:title>
        <dc:creator>
          <cc:Agent>
            <dc:title>Sandie Skeen</dc:title>
          </cc:Agent>
        </dc:creator>
        <dc:rights>
          <cc:Agent>
            <dc:title>Copyright - All rights reserved - Tous droits réservés</dc:title>
          </cc:Agent>
        </dc:rights>
        <dc:description>Toulouse, France</dc:description>
      </cc:Work>
    </rdf:RDF>
  </metadata>
  <g
     inkscape:label="Calque 1"
     inkscape:groupmode="layer"
     id="layer1"
     transform="translate(0,-217.62499)">
    <g
       id="g3875-11-1-0-7-1-3-3-2-8-7-4-3-5-7-1-7-6-8-5-5-3-6-4-4-0-3"
       transform="translate(-1124.2379,477.54816)">
      <rect
         ry="6.8791666"
         rx="6.8791666"
         y="-259.27255"
         x="1124.8885"
         height="78.073769"
         width="78.073769"
         id="rect5205-0-1-9-2-4-3-8-4-9-0-6-7-7-5-6-2-2-8-9-5-6-2-5-8-7-1-980-3-2-6-0-3-5-9-9-0-3-1-2-2-9-5-3-9-0-7-4-0-36-8-0-8-1-9-3-1-0-8"
         style="opacity:1;fill:#ffffff;fill-opacity:1;stroke:#8bf0ec;stroke-width:1.30122089;stroke-miterlimit:4;stroke-dasharray:none;stroke-dashoffset:0;stroke-opacity:1" />
      <rect
         inkscape:export-ydpi="43.548504"
         inkscape:export-xdpi="43.548504"
         inkscape:export-filename="C:\Users\sandi\AndroidStudioProjects\Mnemosis\app\src\main\res\drawable\dos.png"
         transform="rotate(-90)"
         ry="4.7624993"
         rx="4.7624993"
         y="1129.3967"
         x="185.70691"
         height="69.057289"
         width="69.057289"
         id="rect5169-4-0-4-9-7-5-2-3-6-7-2-3-4-7-1-8-9-3-36-4-4-8-1-6-8-6-4-1-4-7-6-5-4-2-5-4-8-8-2-6-6-9-8-9-4-7-3-5-3-8-0-1-1-6-3-1-7-5-9-7-6-9-7"
         style="display:inline;opacity:1;fill:#8bf0ec;fill-opacity:1;stroke:none;stroke-width:2.30172825;stroke-miterlimit:4;stroke-dasharray:none;stroke-dashoffset:0;stroke-opacity:1" />
    </g>
    <path
       style="display:inline;fill:#ffffff;fill-opacity:1;fill-rule:evenodd;stroke:none;stroke-width:0.32670459px;stroke-linecap:butt;stroke-linejoin:miter;stroke-opacity:1"
       d="m 19.850984,229.73839 c -4.71064,0.7052 -7.062499,1.9803 -7.50805,6.7851 2.070601,2.1373 4.71881,4.0072 8.17263,5.3676 8.010499,3.4066 9.800749,13.1725 6.76288,16.0559 -0.94022,0.8532 -2.97791,1.3088 -4.69945,1.0257 -3.55832,-0.8211 -6.827359,-2.4 -10.11824,-4.102 -2.5677593,14.7229 2.791241,21.4225 17.087839,25.4749 0.675862,-6.0745 3.301262,-13.7301 16.129241,-9.6883 7.28422,2.6715 9.165061,4.2745 12.45299,11.1063 4.128447,1.5915 6.752296,1.8778 9.235617,-0.9028 -1.274839,-5.5843 -2.23866,-9.9413 -4.23074,-12.1042 -3.121308,-2.3547 -9.375688,-2.7513 -12.662286,-3.5775 -2.149002,-0.58 -4.037632,-1.3215 -5.345912,-2.4236 1.644542,-1.2219 2.83115,-2.1921 4.311862,-2.6629 0.025,-8e-4 0.0656,0 0.093,0 -0.4313,-1.2939 -0.077,-1.6136 0.685221,-2.082 -0.214339,-0.1132 -0.448231,-0.2364 -0.636641,-0.3369 -1.55734,-1.2693 -2.917039,-2.5235 -4.568719,-3.0712 -2.83438,-0.8231 -7.2068,0.3701 -8.258921,-0.4955 -1.451949,-1.6674 -0.540329,-5.1636 0.363802,-8.2032 2.315689,-8.3699 -7.211142,-12.5673 -16.771091,-15.9825 -0.17076,-0.063 -0.327,-0.1227 -0.49506,-0.1849 z"
       id="path4902-3-7-8-7-6"
       inkscape:connector-curvature="0" />
    <path
       style="display:inline;fill:#cccccc;fill-opacity:1;fill-rule:evenodd;stroke:none;stroke-width:0.32670459px;stroke-linecap:butt;stroke-linejoin:miter;stroke-opacity:1"
       d="m 5.1733347,222.77909 c 1.3039198,4.4161 3.1422898,9.5872 7.1695993,13.7444 0.445551,-4.8048 2.797381,-6.0799 7.50805,-6.7851 -5.742729,-2.1274 -9.9475894,-3.8894 -14.6776493,-6.9593 z m 62.1931063,58.0817 c -2.483321,2.7806 -5.10717,2.4943 -9.235617,0.9028 0.371099,0.7711 0.755169,1.5909 1.17202,2.5048 1.856607,3.7297 7.545017,7.7691 12.560988,7.1525 -1.37853,-1.4901 -2.43917,-2.9539 -3.52174,-6.3991 -0.357131,-1.4569 -0.672491,-2.8331 -0.975651,-4.161 z"
       id="path2452-7"
       inkscape:connector-curvature="0" />
    <path
       style="display:inline;fill:#ffd042;fill-opacity:1;fill-rule:evenodd;stroke:none;stroke-width:0.32670459px;stroke-linecap:butt;stroke-linejoin:miter;stroke-opacity:1"
       d="m 50.217613,258.01259 c -0.76227,0.4684 -1.116518,0.7881 -0.685218,2.082 1.139108,-0.01 4.328028,0.4633 4.353208,0.094 -0.207298,-0.3558 -2.16254,-1.3807 -3.66799,-2.1756 z"
       id="path2456-6"
       inkscape:connector-curvature="0" />
  </g>
</svg>
