<?xml version="1.0" encoding="UTF-8" standalone="no"?>
<!-- Created with Inkscape (http://www.inkscape.org/) -->

<svg
   xmlns:dc="http://purl.org/dc/elements/1.1/"
   xmlns:cc="http://creativecommons.org/ns#"
   xmlns:rdf="http://www.w3.org/1999/02/22-rdf-syntax-ns#"
   xmlns:svg="http://www.w3.org/2000/svg"
   xmlns="http://www.w3.org/2000/svg"
   xmlns:sodipodi="http://sodipodi.sourceforge.net/DTD/sodipodi-0.dtd"
   xmlns:inkscape="http://www.inkscape.org/namespaces/inkscape"
   width="300"
   height="300"
   viewBox="0 0 79.374998 79.375002"
   version="1.1"
   id="svg1234"
   inkscape:version="0.92.4 (5da689c313, 2019-01-14)"
   sodipodi:docname="na18.svg">
  <defs
     id="defs1228" />
  <sodipodi:namedview
     id="base"
     pagecolor="#ffffff"
     bordercolor="#666666"
     borderopacity="1.0"
     inkscape:pageopacity="0.0"
     inkscape:pageshadow="2"
     inkscape:zoom="0.49497475"
     inkscape:cx="-445.83871"
     inkscape:cy="253.70666"
     inkscape:document-units="px"
     inkscape:current-layer="layer1"
     showgrid="false"
     units="px" />
  <metadata
     id="metadata1231">
    <rdf:RDF>
      <cc:Work
         rdf:about="">
        <dc:format>image/svg+xml</dc:format>
        <dc:type
           rdf:resource="http://purl.org/dc/dcmitype/StillImage" />
        <dc:title></dc:title>
        <dc:creator>
          <cc:Agent>
            <dc:title>Sandie Skeen</dc:title>
          </cc:Agent>
        </dc:creator>
        <dc:rights>
          <cc:Agent>
            <dc:title>Copyright - All rights reserved - Tous droits réservés</dc:title>
          </cc:Agent>
        </dc:rights>
        <dc:description>Toulouse, France</dc:description>
      </cc:Work>
    </rdf:RDF>
  </metadata>
  <g
     inkscape:label="Calque 1"
     inkscape:groupmode="layer"
     id="layer1"
     transform="translate(0,-217.62499)">
    <g
       id="g3875-11-1-0-7-1-3-3-2-8-7-4-3-5-7-1-7-6-8-5-5-3-6"
       transform="translate(-1124.2379,477.54816)">
      <rect
         ry="6.8791666"
         rx="6.8791666"
         y="-259.27255"
         x="1124.8885"
         height="78.073769"
         width="78.073769"
         id="rect5205-0-1-9-2-4-3-8-4-9-0-6-7-7-5-6-2-2-8-9-5-6-2-5-8-7-1-980-3-2-6-0-3-5-9-9-0-3-1-2-2-9-5-3-9-0-7-4-0-36-8-0-8-1-9"
         style="opacity:1;fill:#ffffff;fill-opacity:1;stroke:#8bf0ec;stroke-width:1.30122089;stroke-miterlimit:4;stroke-dasharray:none;stroke-dashoffset:0;stroke-opacity:1" />
      <rect
         inkscape:export-ydpi="43.548504"
         inkscape:export-xdpi="43.548504"
         inkscape:export-filename="C:\Users\sandi\AndroidStudioProjects\Mnemosis\app\src\main\res\drawable\dos.png"
         transform="rotate(-90)"
         ry="4.7624993"
         rx="4.7624993"
         y="1129.3967"
         x="185.70691"
         height="69.057289"
         width="69.057289"
         id="rect5169-4-0-4-9-7-5-2-3-6-7-2-3-4-7-1-8-9-3-36-4-4-8-1-6-8-6-4-1-4-7-6-5-4-2-5-4-8-8-2-6-6-9-8-9-4-7-3-5-3-8-0-1-1-6-3-1-7-5-9"
         style="display:inline;opacity:1;fill:#8bf0ec;fill-opacity:1;stroke:none;stroke-width:2.30172825;stroke-miterlimit:4;stroke-dasharray:none;stroke-dashoffset:0;stroke-opacity:1" />
    </g>
    <g
       id="g2498"
       transform="matrix(0.95951024,0,0,0.95951024,-286.71917,-606.69062)">
      <path
         sodipodi:nodetypes="cccccccccccccccccccccccc"
         inkscape:export-ydpi="43.548344"
         inkscape:export-xdpi="43.548344"
         inkscape:export-filename="C:\Users\Sid\AndroidStudioProjects\Mnemosis\app\src\main\res\drawable\z_na26.png"
         inkscape:connector-curvature="0"
         id="path5320-9-7-7-0-2-2-1-4-4-7"
         d="m 334.19375,877.91341 c -4.26193,0.01 -7.63584,0.9756 -12.12125,1.2105 6.91467,2.8992 11.00503,0.1454 17.21005,2.944 -5.6632,5.53201 -6.82629,9.64561 -9.56468,13.57651 -5.2884,7.5913 -11.5767,-4.8983 -25.34655,-8.6767 8.83958,6.9262 7.6838,11.3351 15.65619,13.1751 2.94863,0.5879 1.34203,2.543 0.0308,3.9467 -4.53367,4.8538 -3.16247,8.3096 -7.30415,15.1441 5.63658,-2.3201 9.08517,-10.5317 13.78809,-16.3452 1.13764,-1.4062 2.50312,-1.76269 3.19871,-0.7783 3.91776,5.54441 7.74645,10.3808 11.25142,12.6482 3.2344,2.0924 -7.87346,3.04111 -12.69451,7.8284 7.34364,-2.2832 11.15491,-0.59099 17.46359,-4.5139 9.08753,-5.65089 16.74077,-3.663 26.3294,-14.61219 4.3313,-4.94591 4.4651,-4.5427 -3.02398,-12.39301 -8.56359,-8.97651 -19.69189,-9.98171 -25.81014,-11.7607 -3.62884,-1.05521 -6.50593,-1.39751 -9.06305,-1.39351 z m 21.38989,19.48331 h 0.33954 c 1.39101,0.01 2.01674,0.3067 1.9844,2.2605 -0.0908,5.4835 -5.76589,0.8026 -7.31355,-0.6124 1.46238,-1.0683 3.28445,-1.6413 4.98961,-1.6531 z"
         style="display:inline;opacity:1;fill:#f7fb56;fill-opacity:1;fill-rule:evenodd;stroke:#ffffff;stroke-width:0.26458332;stroke-linecap:butt;stroke-linejoin:miter;stroke-miterlimit:4;stroke-dasharray:none;stroke-opacity:1" />
      <path
         inkscape:connector-curvature="0"
         id="path5320-9-7-7-0-2-2-1-9"
         d="m 334.19366,877.91368 c -4.2619,0.01 -7.63582,0.97536 -12.12122,1.21024 6.91467,2.8992 11.00529,0.14542 17.21033,2.94402 -0.0917,0.0896 -0.17262,0.17571 -0.26199,0.26459 1.6955,-1.16025 3.26969,-2.14847 4.57491,-2.93108 -0.11298,-0.0315 -0.22927,-0.0627 -0.33901,-0.0946 -3.62884,-1.05519 -6.50587,-1.39719 -9.06302,-1.39319 z m -29.82245,9.05421 c 8.83957,6.92621 7.68403,11.33491 15.6564,13.17491 2.94862,0.5879 1.34223,2.54336 0.031,3.94705 -4.53366,4.85382 -3.1628,8.30927 -7.30446,15.14377 5.1793,-2.13188 8.51371,-9.23403 12.66899,-14.88331 -1.16517,-1.36536 -1.78885,-2.95465 -1.37356,-5.02811 0.10078,-0.50327 0.24075,-1.00552 0.41392,-1.50639 -4.52427,-1.34181 -10.48843,-8.21264 -20.0923,-10.84792 z m 37.19928,28.55381 c -0.10719,1.63765 -9.07355,2.89555 -13.27259,7.06522 7.34364,-2.28322 11.15486,-0.59105 17.46353,-4.51394 0.44395,-0.27605 0.88395,-0.53193 1.32139,-0.7736 -1.85415,-0.50879 -3.74251,-1.09934 -5.51233,-1.77768 z"
         style="display:inline;opacity:1;fill:#ffd042;fill-opacity:1;fill-rule:evenodd;stroke:#ffffff;stroke-width:0.26458332;stroke-linecap:butt;stroke-linejoin:miter;stroke-miterlimit:4;stroke-dasharray:none;stroke-opacity:1" />
      <path
         inkscape:connector-curvature="0"
         id="path2163"
         d="m 355.33258,902.09462 c -1.11935,-0.33303 -2.99416,-1.52569 -4.46617,-2.84117 l -0.23331,-0.20849 0.37362,-0.24461 c 0.81603,-0.53427 1.99892,-1.01378 2.99283,-1.2132 0.92332,-0.18526 2.12754,-0.22402 2.75958,-0.0888 0.82658,0.17677 1.11731,0.71937 1.11011,2.0719 -0.007,1.32715 -0.30874,2.11587 -0.94607,2.47353 -0.23267,0.13058 -0.30109,0.14537 -0.72498,0.15669 -0.38907,0.0103 -0.53512,-0.007 -0.86561,-0.10581 z"
         style="opacity:1;fill:#ffd042;fill-opacity:1;stroke:#ffffff;stroke-width:0.26458332;stroke-miterlimit:4;stroke-dasharray:none;stroke-dashoffset:0;stroke-opacity:1" />
      <path
         sodipodi:nodetypes="cccsccc"
         inkscape:connector-curvature="0"
         id="path2165"
         d="m 365.91612,899.0565 c -0.26212,-0.13851 -0.54578,-0.49136 -0.63119,-0.78515 -0.15264,-0.63247 0.14691,-0.71793 0.5548,-0.66387 0.50568,0.0832 1.39202,-0.42794 1.51645,0.22061 0.0562,0.29319 -0.0496,0.69014 -0.19632,0.91242 -0.24127,0.36544 -0.85497,0.52138 -1.2437,0.31599 z"
         style="opacity:1;fill:#ffd042;fill-opacity:1;stroke:#ffffff;stroke-width:0.26458332;stroke-miterlimit:4;stroke-dasharray:none;stroke-dashoffset:0;stroke-opacity:1" />
    </g>
  </g>
</svg>
