<?xml version="1.0" encoding="UTF-8" standalone="no"?>
<!-- Created with Inkscape (http://www.inkscape.org/) -->

<svg
   xmlns:dc="http://purl.org/dc/elements/1.1/"
   xmlns:cc="http://creativecommons.org/ns#"
   xmlns:rdf="http://www.w3.org/1999/02/22-rdf-syntax-ns#"
   xmlns:svg="http://www.w3.org/2000/svg"
   xmlns="http://www.w3.org/2000/svg"
   xmlns:sodipodi="http://sodipodi.sourceforge.net/DTD/sodipodi-0.dtd"
   xmlns:inkscape="http://www.inkscape.org/namespaces/inkscape"
   width="300"
   height="300"
   viewBox="0 0 79.374998 79.375002"
   version="1.1"
   id="svg1234"
   inkscape:version="0.92.4 (5da689c313, 2019-01-14)"
   sodipodi:docname="na19.svg">
  <defs
     id="defs1228" />
  <sodipodi:namedview
     id="base"
     pagecolor="#ffffff"
     bordercolor="#666666"
     borderopacity="1.0"
     inkscape:pageopacity="0.0"
     inkscape:pageshadow="2"
     inkscape:zoom="0.35"
     inkscape:cx="-745.83428"
     inkscape:cy="301.05359"
     inkscape:document-units="px"
     inkscape:current-layer="layer1"
     showgrid="false"
     units="px" />
  <metadata
     id="metadata1231">
    <rdf:RDF>
      <cc:Work
         rdf:about="">
        <dc:format>image/svg+xml</dc:format>
        <dc:type
           rdf:resource="http://purl.org/dc/dcmitype/StillImage" />
        <dc:title></dc:title>
        <dc:creator>
          <cc:Agent>
            <dc:title>Sandie Skeen</dc:title>
          </cc:Agent>
        </dc:creator>
        <dc:rights>
          <cc:Agent>
            <dc:title>Copyright - All rights reserved - Tous droits réservés</dc:title>
          </cc:Agent>
        </dc:rights>
        <dc:description>Toulouse, France</dc:description>
      </cc:Work>
    </rdf:RDF>
  </metadata>
  <g
     inkscape:label="Calque 1"
     inkscape:groupmode="layer"
     id="layer1"
     transform="translate(0,-217.62499)">
    <g
       id="g3875-00-7"
       transform="translate(-1124.2379,477.54816)">
      <rect
         ry="6.8791666"
         rx="6.8791666"
         y="-259.27255"
         x="1124.8885"
         height="78.073769"
         width="78.073769"
         id="rect5205-0-1-9-2-4-3-8-4-9-0-6-7-7-5-6-2-2-8-9-5-6-2-5-8-7-1-980-3-2-6-0-3-8-9"
         style="opacity:1;fill:#ffffff;fill-opacity:1;stroke:#8bf0ec;stroke-width:1.30122089;stroke-miterlimit:4;stroke-dasharray:none;stroke-dashoffset:0;stroke-opacity:1" />
      <rect
         inkscape:export-ydpi="43.548504"
         inkscape:export-xdpi="43.548504"
         inkscape:export-filename="C:\Users\sandi\AndroidStudioProjects\Mnemosis\app\src\main\res\drawable\dos.png"
         transform="rotate(-90)"
         ry="4.7624993"
         rx="4.7624993"
         y="1129.3967"
         x="185.70691"
         height="69.057289"
         width="69.057289"
         id="rect5169-4-0-4-9-7-5-2-3-6-7-2-3-4-7-1-8-9-3-36-4-4-8-1-6-8-6-4-1-4-7-6-5-4-2-5-4-8-14-5"
         style="display:inline;opacity:1;fill:#8bf0ec;fill-opacity:1;stroke:none;stroke-width:2.30172825;stroke-miterlimit:4;stroke-dasharray:none;stroke-dashoffset:0;stroke-opacity:1" />
    </g>
    <path
       style="display:inline;opacity:1;fill:#5cb85c;fill-opacity:1;fill-rule:evenodd;stroke:#ffffff;stroke-width:0.26458332;stroke-linecap:butt;stroke-linejoin:miter;stroke-miterlimit:4;stroke-dasharray:none;stroke-opacity:1"
       d="m 73.738168,241.98932 c -1.191109,2.14802 -2.6886,4.16943 -4.61441,5.86099 -7.39649,6.49703 -11.313599,6.68608 -20.33769,10.24308 0.01101,-0.0153 0.02199,-0.03 0.033,-0.0455 l -2.353501,0.98356 c -4.0161,1.66598 -7.740002,3.4798 -10.806491,5.79755 -0.2794,0.22881 -0.574199,0.48678 -0.873008,0.75687 l -0.073,0.11208 -1.32851,1.23481 c -0.7879,0.80756 -1.53739,1.66187 -2.111999,2.44406 -0.1597,0.21751 -0.502491,-2.32029 -0.6438,-2.02954 -0.29269,0.60253 -0.1704,3.66429 -0.207701,4.34062 -0.22299,4.04387 -0.3087,9.16953 -0.3219,14.35185 -0.521189,0.57525 -1.023199,1.17589 -1.511699,1.79879 -1.041091,-2.19313 -2.0731,-4.57787 -2.62779,-6.46385 -1.599,-5.43708 -3.6907,-9.82943 -8.0344,-13.46962 -5.7791,-4.79739 -6.9602,-1.89558 -12.2890006,-9.68933 3.4319002,8.80446 -3.1505999,14.51875 4.6083006,23.39539 2.6087,2.78878 11.1066,6.55589 16.15369,9.30092 -0.6009,0.92451 -1.187,1.88957 -1.76559,2.89594 h 5.493099 2.2455 10.336691 c 6.525609,-11.26167 1.177999,-6.7048 7.342,-20.98458 -9.0346,7.26083 -8.97709,5.08339 -14.423491,8.52774 -1.107,0.70008 -2.130909,1.46976 -3.093,2.30285 0.113191,-1.1594 0.312999,-2.37191 0.630999,-3.36116 0.631802,-1.96519 1.302901,-4.02143 2.619092,-5.61179 4.039709,-4.88082 9.136499,-7.28313 14.6543,-10.51168 10.729,-6.27788 12.8949,-2.83604 23.300198,-22.18002 z"
       id="path5069-9-4-5-0-8-2-8-4-7"
       inkscape:connector-curvature="0" />
    <path
       style="display:inline;opacity:1;fill:#ffc123;fill-opacity:1;fill-rule:evenodd;stroke:#ffffff;stroke-width:0.26458332;stroke-linecap:butt;stroke-linejoin:miter;stroke-miterlimit:4;stroke-dasharray:none;stroke-opacity:1"
       d="m 20.005069,229.22288 c 6.884299,14.60426 2.0242,12.73241 6.5503,27.13416 -5.28,-5.21856 -3.9453,-4.23487 -16.46491,-5.84361 9.5255,4.27296 12.23711,13.45371 23.294099,16.4193 l 1.32851,-1.23484 0.073,-0.11208 c -0.04,0.0363 -0.079,0.0701 -0.11979,0.10692 -5.123702,-12.27934 4.392498,-12.53953 -14.660901,-36.46985 z"
       id="path5071-5-9-8-7-3-2-0-4-8"
       inkscape:connector-curvature="0" />
    <path
       style="display:inline;opacity:1;fill:#ffc123;fill-opacity:1;fill-rule:evenodd;stroke:#ffffff;stroke-width:0.26458332;stroke-linecap:butt;stroke-linejoin:miter;stroke-miterlimit:4;stroke-dasharray:none;stroke-opacity:1"
       d="m 34.743268,225.34232 c -0.068,5.10323 0.3473,8.99842 1.0716,12.13702 -2.7544,-3.56198 -5.359901,-7.37751 -6.972009,-12.09914 7.4609,33.81706 11.807409,21.41781 17.622408,33.65119 l 2.353501,-0.98356 c 12.815991,-18.05575 17.67999,-6.48044 23.726889,-32.34676 -8.572598,14.18433 -15.261998,12.85845 -21.021289,21.70816 l -0.12341,0.22868 -4.167589,9.41358 -2.012202,-8.65926 -0.01,-0.0271 c -7.94e-4,0.0362 0,0.0676 0,0.1039 -4.856387,-13.29396 -6.337787,-6.20252 -10.469187,-23.1267 z"
       id="path5081-2-6-9-6-9-3-6-9-9"
       inkscape:connector-curvature="0" />
    <path
       style="display:inline;opacity:1;fill:#ff6767;fill-opacity:1;fill-rule:evenodd;stroke:#ffffff;stroke-width:0.26458332;stroke-linecap:butt;stroke-linejoin:miter;stroke-miterlimit:4;stroke-dasharray:none;stroke-opacity:1"
       d="m 48.629369,220.81696 c -0.17611,18.02607 -2.960601,7.4589 -3.414311,27.54818 l 0.01,0.0271 2.012198,8.65923 4.16759,-9.41353 0.123409,-0.22873 c -0.058,0.0883 -0.115699,0.17108 -0.172997,0.26149 4.310488,-8.91157 4.858797,-7.61855 3.882588,-24.22443 -1.59739,11.89519 -1.959099,6.47014 -4.711599,15.68547 0.701608,-6.56555 0.864309,-5.14884 -1.892991,-18.3148 z"
       id="path5087-0-8-8-2-7-3-6-0-4"
       inkscape:connector-curvature="0" />
  </g>
</svg>
