<?xml version="1.0" encoding="UTF-8" standalone="no"?>
<!-- Created with Inkscape (http://www.inkscape.org/) -->

<svg
   xmlns:dc="http://purl.org/dc/elements/1.1/"
   xmlns:cc="http://creativecommons.org/ns#"
   xmlns:rdf="http://www.w3.org/1999/02/22-rdf-syntax-ns#"
   xmlns:svg="http://www.w3.org/2000/svg"
   xmlns="http://www.w3.org/2000/svg"
   xmlns:sodipodi="http://sodipodi.sourceforge.net/DTD/sodipodi-0.dtd"
   xmlns:inkscape="http://www.inkscape.org/namespaces/inkscape"
   width="300"
   height="300"
   viewBox="0 0 79.374998 79.375002"
   version="1.1"
   id="svg1234"
   inkscape:version="0.92.4 (5da689c313, 2019-01-14)"
   sodipodi:docname="na20.svg">
  <defs
     id="defs1228" />
  <sodipodi:namedview
     id="base"
     pagecolor="#ffffff"
     bordercolor="#666666"
     borderopacity="1.0"
     inkscape:pageopacity="0.0"
     inkscape:pageshadow="2"
     inkscape:zoom="0.24748738"
     inkscape:cx="-542.3276"
     inkscape:cy="267.16946"
     inkscape:document-units="px"
     inkscape:current-layer="layer1"
     showgrid="false"
     units="px" />
  <metadata
     id="metadata1231">
    <rdf:RDF>
      <cc:Work
         rdf:about="">
        <dc:format>image/svg+xml</dc:format>
        <dc:type
           rdf:resource="http://purl.org/dc/dcmitype/StillImage" />
        <dc:title></dc:title>
        <dc:creator>
          <cc:Agent>
            <dc:title>Sandie Skeen</dc:title>
          </cc:Agent>
        </dc:creator>
        <dc:rights>
          <cc:Agent>
            <dc:title>Copyright - All rights reserved - Tous droits réservés</dc:title>
          </cc:Agent>
        </dc:rights>
        <dc:description>Toulouse, France</dc:description>
      </cc:Work>
    </rdf:RDF>
  </metadata>
  <g
     inkscape:label="Calque 1"
     inkscape:groupmode="layer"
     id="layer1"
     transform="translate(0,-217.62499)">
    <g
       id="g1532"
       transform="translate(-506.23725,-358.48659)">
      <g
         transform="translate(290.55891,282.06512)"
         id="g2195-6-5">
        <rect
           style="opacity:1;fill:#ffffff;fill-opacity:1;stroke:#8bf0ec;stroke-width:1.30122089;stroke-miterlimit:4;stroke-dasharray:none;stroke-dashoffset:0;stroke-opacity:1"
           id="rect5205-0-1-9-2-4-3-8-4-9-0-6-7-7-5-6-2-2-8-9-5-6-2-5-8-7-1-980-3-2-6-0-3-5-9-9-08-0-7"
           width="78.073769"
           height="78.073769"
           x="216.32895"
           y="294.69708"
           rx="6.8791666"
           ry="6.8791666" />
        <rect
           style="display:inline;opacity:1;fill:#8bf0ec;fill-opacity:1;stroke:none;stroke-width:2.30172825;stroke-miterlimit:4;stroke-dasharray:none;stroke-dashoffset:0;stroke-opacity:1"
           id="rect5169-4-0-4-9-7-5-2-3-6-7-2-3-4-7-1-8-9-3-36-4-4-8-1-6-8-6-4-1-4-7-6-5-4-2-5-4-8-8-2-6-3-2-0"
           width="69.057289"
           height="69.057289"
           x="-368.2627"
           y="220.83713"
           rx="4.7624993"
           ry="4.7624993"
           transform="rotate(-90)"
           inkscape:export-filename="C:\Users\sandi\AndroidStudioProjects\Mnemosis\app\src\main\res\drawable\dos.png"
           inkscape:export-xdpi="43.548504"
           inkscape:export-ydpi="43.548504" />
      </g>
      <path
         inkscape:connector-curvature="0"
         id="path5080"
         d="m 562.38306,581.46552 -0.019,1.11257 c -0.0515,2.91897 -0.82505,3.61641 -4.26381,3.84422 l -1.65624,0.10956 1.25884,0.0305 c 2.2235,0.0542 3.20749,0.63815 4.09122,2.42623 0.36034,0.72906 0.60346,1.48585 0.66818,2.08203 l 0.10128,0.93689 0.20156,-1.37509 c 0.23199,-1.58314 0.72777,-2.68407 1.52239,-3.38172 0.75814,-0.66567 1.3739,-0.83225 3.60029,-0.97409 l 1.93011,-0.12301 -1.8986,-0.0233 c -2.25213,-0.0273 -3.21093,-0.27046 -4.11448,-1.04386 -0.71242,-0.60984 -1.10617,-1.45203 -1.29913,-2.77863 z M 516.4918,591.6406 c 0,0.51697 -0.46281,2.49092 -1.26659,2.5735 -1.68103,0.17275 -0.43005,0.32123 -0.27543,0.3297 0.45897,0.0246 1.28188,0.82637 1.39991,1.36374 0.12885,1.98355 0.3447,1.53741 0.4899,-0.0786 0.13642,-0.72715 0.94128,-1.43192 1.66397,-1.45677 1.0623,-0.0992 0.57113,-0.0592 -0.2227,-0.16226 -0.5611,-0.10668 -0.89705,-0.30383 -1.30225,-0.76531 -0.53044,-0.60375 -0.48681,-2.21372 -0.48681,-1.80404 z m 52.19009,2.93471 c -0.0707,-0.0185 -0.14501,0.17738 -0.293,0.6165 -0.16914,0.50192 -0.57322,0.90586 -1.01801,1.01751 l -0.73742,0.185 0.75084,0.69609 c 0.41291,0.38272 0.84315,1.06384 0.95602,1.5136 l 0.20515,0.81751 0.38397,-1.11672 c 0.42815,-1.24553 0.36891,-1.16557 1.18906,-1.60714 0.57087,-0.30728 0.5605,-0.33943 -0.22116,-0.69556 -0.45072,-0.20534 -0.91123,-0.65868 -1.02373,-1.00769 -0.0839,-0.26043 -0.13666,-0.40473 -0.19172,-0.4191 z m -23.412,1.57975 c -1.46984,0.007 -2.95486,0.24238 -4.46225,0.71778 -5.8416,1.84238 -9.98601,7.47332 -10.66448,14.08494 -0.33811,3.29459 0.53171,6.66933 2.38437,9.25007 0.67747,0.94374 2.75524,3.053 3.67626,3.73208 1.7001,1.25341 3.94776,2.19107 6.13296,2.5585 4.11975,0.69273 8.67087,-0.32158 12.28349,-2.7373 1.41404,-0.94562 3.40371,-3.072 4.20489,-4.4943 1.36343,-2.4204 1.78827,-4.44134 1.67331,-7.96128 -0.0616,-1.88563 -0.14595,-2.57942 -0.43461,-3.58116 -0.83005,-2.88018 -2.164,-5.16605 -4.18372,-7.16907 -1.88741,-1.87183 -3.7048,-2.96747 -6.2389,-3.7419 -1.44672,-0.44215 -2.90145,-0.66495 -4.37132,-0.65836 z m -23.8647,33.78036 -0.12245,0.59221 c -0.33369,1.61698 -1.29722,2.33127 -3.20498,2.37506 l -1.13688,0.0259 1.07074,0.15658 c 0.58893,0.0862 1.34855,0.35431 1.68775,0.59584 0.7207,0.51319 1.67523,2.30828 1.70997,3.21583 0.0164,0.42966 0.0822,0.28175 0.20619,-0.46355 0.2271,-1.36443 0.60878,-2.11545 1.42214,-2.79982 0.60851,-0.51208 1.11419,-0.66741 2.68819,-0.82476 0.47257,-0.0472 0.3266,-0.0837 -0.42116,-0.10541 -1.63039,-0.0471 -2.86449,-0.71541 -3.44474,-1.86553 z m 46.99199,6.34793 -0.0259,1.46143 c -0.0677,3.83471 -1.08355,4.75102 -5.60121,5.05031 l -2.17609,0.1442 1.65365,0.0403 c 2.92102,0.0712 4.21439,0.83783 5.37538,3.18688 0.47334,0.95776 0.79243,1.95254 0.87746,2.73576 l 0.13333,1.23042 0.26458,-1.80663 c 0.30477,-2.07978 0.77359,-3.37984 1.81745,-4.29635 0.53925,-0.49086 1.88643,-1.12131 4.24058,-1.27125 l 2.53577,-0.16124 -2.49444,-0.0305 c -2.9587,-0.0359 -3.80442,0.058 -4.99142,-0.95808 -0.93596,-0.80118 -1.19499,-2.4761 -1.44849,-4.21886 z"
         style="opacity:1;fill:#fffee3;fill-opacity:1;stroke:none;stroke-width:1.32291675;stroke-miterlimit:4;stroke-dasharray:none;stroke-dashoffset:0;stroke-opacity:1;paint-order:stroke markers fill" />
    </g>
  </g>
</svg>
