<?xml version="1.0" encoding="UTF-8" standalone="no"?>
<!-- Created with Inkscape (http://www.inkscape.org/) -->

<svg
   xmlns:dc="http://purl.org/dc/elements/1.1/"
   xmlns:cc="http://creativecommons.org/ns#"
   xmlns:rdf="http://www.w3.org/1999/02/22-rdf-syntax-ns#"
   xmlns:svg="http://www.w3.org/2000/svg"
   xmlns="http://www.w3.org/2000/svg"
   xmlns:sodipodi="http://sodipodi.sourceforge.net/DTD/sodipodi-0.dtd"
   xmlns:inkscape="http://www.inkscape.org/namespaces/inkscape"
   width="300"
   height="300"
   viewBox="0 0 79.374998 79.375002"
   version="1.1"
   id="svg1234"
   inkscape:version="0.92.4 (5da689c313, 2019-01-14)"
   sodipodi:docname="na21.svg">
  <defs
     id="defs1228" />
  <sodipodi:namedview
     id="base"
     pagecolor="#ffffff"
     bordercolor="#666666"
     borderopacity="1.0"
     inkscape:pageopacity="0.0"
     inkscape:pageshadow="2"
     inkscape:zoom="0.24748738"
     inkscape:cx="-996.77905"
     inkscape:cy="190.24408"
     inkscape:document-units="px"
     inkscape:current-layer="layer1"
     showgrid="false"
     units="px" />
  <metadata
     id="metadata1231">
    <rdf:RDF>
      <cc:Work
         rdf:about="">
        <dc:format>image/svg+xml</dc:format>
        <dc:type
           rdf:resource="http://purl.org/dc/dcmitype/StillImage" />
        <dc:title></dc:title>
        <dc:creator>
          <cc:Agent>
            <dc:title>Sandie Skeen</dc:title>
          </cc:Agent>
        </dc:creator>
        <dc:rights>
          <cc:Agent>
            <dc:title>Copyright - All rights reserved - Tous droits réservés</dc:title>
          </cc:Agent>
        </dc:rights>
        <dc:description>Toulouse, France</dc:description>
      </cc:Work>
    </rdf:RDF>
  </metadata>
  <g
     inkscape:label="Calque 1"
     inkscape:groupmode="layer"
     id="layer1"
     transform="translate(0,-217.62499)">
    <rect
       style="opacity:1;fill:#ffffff;fill-opacity:1;stroke:#8bf0ec;stroke-width:1.30122089;stroke-miterlimit:4;stroke-dasharray:none;stroke-dashoffset:0;stroke-opacity:1"
       id="rect5205-0-1-9-2-4-3-8-4-9-0-6-7-7-5-6-2-2-8-9-5-6-2-5-8-7-1-980-3-2-6-0-3-5-9-9-0-3-1-2-2-9-5-3-9-0-7-4-0-36-8-0-8-1-9-3-1-6"
       width="78.073769"
       height="78.073769"
       x="0.65061045"
       y="218.2756"
       rx="6.8791666"
       ry="6.8791666" />
    <rect
       style="display:inline;opacity:1;fill:#8bf0ec;fill-opacity:1;stroke:none;stroke-width:2.30172801;stroke-miterlimit:4;stroke-dasharray:none;stroke-dashoffset:0;stroke-opacity:1"
       id="rect5169-4-0-4-9-7-5-2-3-6-7-2-3-4-7-1-8-9-3-36-4-4-8-1-6-8-6-4-1-4-7-6-5-4-2-5-4-8-8-2-6-6-9-8-9-4-7-3-5-3-8-0-1-1-6-3-1-7-5-9-7-6-6"
       width="69.057289"
       height="69.057289"
       x="-291.84125"
       y="5.1587892"
       rx="4.7624993"
       ry="4.7624993"
       transform="rotate(-90)"
       inkscape:export-filename="C:\Users\sandi\AndroidStudioProjects\Mnemosis\app\src\main\res\drawable\dos.png"
       inkscape:export-xdpi="43.548504"
       inkscape:export-ydpi="43.548504" />
    <path
       style="display:inline;opacity:1;fill:#ffffff;fill-opacity:1;fill-rule:evenodd;stroke:none;stroke-width:0.27456295px;stroke-linecap:butt;stroke-linejoin:miter;stroke-opacity:1"
       d="m 25.816619,225.15909 0.0011,5e-4 c -1.47193,-0.024 -2.72088,0.50451 -4.16972,1.4418 -0.91079,0.58931 -2.07587,1.7207 -2.96013,1.97731 -0.22245,0.064 -0.45074,0.1314 -0.67769,0.1976 0.41604,-0.036 0.82099,-0.063 1.18998,-0.07 0.16429,0 0.31878,-4e-4 0.46805,0.01 0.14973,0 0.28922,0.014 0.4203,0.028 0.0183,0 0.0365,0 0.0543,0.01 0.129939,0.015 0.25241,0.034 0.35897,0.059 0.0198,0 0.0368,0.011 0.0558,0.016 0.0523,0.014 0.10149,0.029 0.14679,0.046 0.02,0.01 0.0397,0.015 0.0583,0.023 0.0545,0.024 0.1046,0.049 0.145809,0.078 0.0297,0.021 0.0552,0.044 0.0774,0.068 0.006,0.01 0.01,0.012 0.0146,0.018 0.0157,0.019 0.0288,0.039 0.0397,0.06 0.004,0.01 0.008,0.015 0.0116,0.023 0.0119,0.028 0.021,0.057 0.0246,0.088 0.0912,0.81 -1.11641,1.6441 -2.43225,2.307 0.39058,-0.068 0.74091,-0.085 1.04065,0 2.41956,0.6986 1.6942,2.8442 1.10805,4.3352 -1.11765,3.0974 -1.79449,6.7058 -1.44136,9.6249 1.14091,8.4986 6.619499,11.6963 12.80126,17.0364 0.254619,0.2295 0.477808,0.4459 0.68675,0.6571 l 4.034477,-0.1705 1.411693,0.34088 1.459968,0.3408 c 17.420913,2.4694 8.253211,-1.49798 15.088711,-0.1463 3.757541,0.743 6.75363,1.9398 10.171941,1.7828 0.710041,-0.033 2.17351,0.1144 2.215081,-0.265 -0.124812,-0.6389 -3.768741,-1.91598 -4.336651,-2.82238 0.73577,-0.5352 8.308769,1.76508 8.466659,1.51428 0.271471,-0.54788 -0.76032,-1.05468 -0.757129,-1.30818 0.17539,-0.1716 1.09482,0.2072 1.170379,-0.069 -0.106349,-0.3284 -4.24502,-1.8508 -7.159008,-2.4096 -2.618182,-0.5922 -4.869781,-1.8018 -6.22794,-3.1989 -4.464471,0.086 -10.217351,0.5637 -13.691611,-0.1659 -5.813613,-1.2209 -12.818991,-3.2664 -15.803142,-9.0222 -1.179009,-3.9628 -0.494929,-7.2883 1.933052,-10.5168 -0.01119,-0.085 -0.0176,-0.1703 -0.01249,-0.2559 0.0177,-0.2452 0.0335,-0.5033 0.102031,-0.8456 1.023999,-4.2806 0.47071,-9.2883 -2.90381,-10.4243 -0.800859,-0.2524 -1.51584,-0.3767 -2.184909,-0.3876 z m 6.243531,13.6619 c 0.0615,0.05 0.12482,0.099 0.189529,0.1483 -0.0647,-0.049 -0.12813,-0.099 -0.189529,-0.1483 z m 0.46804,0.3529 c 0.0629,0.044 0.127468,0.088 0.192558,0.1317 -0.0651,-0.044 -0.129698,-0.088 -0.192558,-0.1317 z m 0.503759,0.3354 c 0.0761,0.048 0.15408,0.095 0.232261,0.1422 -0.0782,-0.047 -0.156141,-0.094 -0.232261,-0.1422 z m 0.53491,0.3222 c 0.0804,0.046 0.162039,0.091 0.24384,0.1368 -0.0817,-0.045 -0.163581,-0.091 -0.24384,-0.1368 z m 0.589712,0.3268 c 0.068,0.036 0.136578,0.071 0.205118,0.1071 -0.0685,-0.036 -0.137221,-0.071 -0.205118,-0.1071 z m 0.572608,0.2961 c 0.0424,0.021 0.0842,0.041 0.126701,0.062 -0.0422,-0.021 -0.0845,-0.041 -0.126701,-0.062 z m 1.158841,0.5561 c 0.146658,0.068 0.256288,0.1154 0.39915,0.1799 -0.13472,-0.061 -0.261061,-0.1163 -0.39915,-0.1799 z m 2.74144,1.2101 c 0.44255,0.1912 0.88613,0.3931 1.33023,0.6052 -0.4441,-0.2121 -0.88768,-0.414 -1.33023,-0.6052 z m 1.996869,0.931 c 0.88895,0.4444 1.779204,0.9288 2.667524,1.4479 -0.88832,-0.5191 -1.778574,-1.0035 -2.667524,-1.4479 z m 3.998783,2.2523 c 1.328449,0.8297 2.648569,1.7335 3.94902,2.6952 -1.300451,-0.9617 -2.620571,-1.8655 -3.94902,-2.6952 z"
       id="path2298-6"
       inkscape:connector-curvature="0" />
    <path
       style="display:inline;opacity:1;fill:#ffd042;fill-opacity:1;fill-rule:evenodd;stroke:none;stroke-width:0.27456295px;stroke-linecap:butt;stroke-linejoin:miter;stroke-opacity:1"
       d="m 19.20006,228.70639 c -0.36899,0.01 -0.77394,0.033 -1.18998,0.07 -2.58401,0.7535 -5.33259,1.6541 -5.36373,3.668 2.49658,-0.623 1.86539,0.1144 3.32613,-0.2172 1.0285,-0.2334 1.92764,-0.5651 2.67256,-0.6958 1.31584,-0.6629 2.5235,-1.497 2.43225,-2.307 -0.046,-0.4083 -0.82575,-0.5361 -1.87723,-0.5179 z"
       id="path2321-2"
       inkscape:connector-curvature="0" />
    <path
       style="display:inline;opacity:1;fill:#ffd042;fill-opacity:1;fill-rule:evenodd;stroke:none;stroke-width:0.27456295px;stroke-linecap:butt;stroke-linejoin:miter;stroke-opacity:1"
       d="m 36.874868,263.01839 -4.034478,0.1704 c 2.531859,2.55928 1.886429,4.04568 2.184908,11.02458 l -0.0267,0.045 c -1.284081,-0.1634 -2.686719,-0.3579 -2.89378,-0.2398 -0.0684,0.2537 0.218689,0.5842 0.218689,0.5842 -0.143319,0.2994 -2.08738,0.062 -2.190438,0.2679 0.12236,0.3198 0.926669,0.2383 0.90042,0.5113 0.0118,0.085 -0.006,0.1649 -0.0408,0.2429 -2.048819,-0.099 -3.40492,0.03 -4.071699,0.4504 0.820581,0.266 0.92859,0.4178 1.04621,0.7179 0.014,0.1411 -0.024,0.2427 -0.0814,0.3359 -0.0443,0.015 -0.191561,0.061 -0.191561,0.061 l 11.20307,-1.5515 -0.0222,-0.012 c 0.754679,-0.16781 0.136988,-0.74921 0.176967,-1.2905 l 0.885819,-6.47531 -0.191529,-4.1612 -1.45996,-0.34079 c 0.335359,4.22399 0.2306,10.82419 -0.777751,10.8883 l -1.218126,0.1604 c -0.0557,-0.01 -0.1158,-0.012 -0.17495,-0.018 -0.0878,-2.0249 0.29451,-4.14221 0.418269,-5.9087 -0.23269,-1.2865 -0.455729,-4.7449 0.34085,-5.46328 z"
       id="path2332-2"
       inkscape:connector-curvature="0" />
    <path
       style="display:inline;opacity:1;fill:#d8c88c;fill-opacity:1;fill-rule:evenodd;stroke:#ffffff;stroke-width:0.25740275;stroke-linecap:butt;stroke-linejoin:miter;stroke-miterlimit:4;stroke-dasharray:none;stroke-opacity:1"
       d="m 38.897605,275.63887 -11.181231,1.56271 -1.924948,5.50717 c 0,0 -2.87388,-0.37105 -3.76256,-0.37105 -0.888632,0 -3.320729,-2.32699 -3.320729,-2.32699 0,0 -2.699288,-0.97358 -3.291788,-0.97358 -0.545978,0 -4.098872,11.01121 -4.674134,12.80387 h 51.609253 l -0.866614,-3.01273 -4.295346,-3.67109 z"
       id="path2315-7"
       inkscape:connector-curvature="0" />
    <path
       style="fill:#cccccc;fill-opacity:1;stroke:none;stroke-width:0.25740275px;stroke-linecap:butt;stroke-linejoin:miter;stroke-opacity:1"
       d="m 30.81587,237.07249 c -2.427981,3.2285 -3.112061,6.554 -1.933051,10.5168 2.984151,5.7558 9.989521,7.8013 15.803142,9.0222 3.474299,0.7296 9.227129,0.252 13.691618,0.1659 -0.01169,-0.012 -0.02468,-0.024 -0.0362,-0.036 -5.943312,-6.19889 -13.311442,-11.9152 -20.375023,-14.7997 -2.26006,-1.0237 -6.88721,-2.8622 -7.15047,-4.8695 z"
       id="path2343-1"
       inkscape:connector-curvature="0" />
  </g>
</svg>
