<?xml version="1.0" encoding="UTF-8" standalone="no"?>
<!-- Created with Inkscape (http://www.inkscape.org/) -->

<svg
   xmlns:dc="http://purl.org/dc/elements/1.1/"
   xmlns:cc="http://creativecommons.org/ns#"
   xmlns:rdf="http://www.w3.org/1999/02/22-rdf-syntax-ns#"
   xmlns:svg="http://www.w3.org/2000/svg"
   xmlns="http://www.w3.org/2000/svg"
   xmlns:sodipodi="http://sodipodi.sourceforge.net/DTD/sodipodi-0.dtd"
   xmlns:inkscape="http://www.inkscape.org/namespaces/inkscape"
   width="300"
   height="300"
   viewBox="0 0 79.374998 79.375002"
   version="1.1"
   id="svg1234"
   inkscape:version="0.92.4 (5da689c313, 2019-01-14)"
   sodipodi:docname="na3.svg">
  <defs
     id="defs1228" />
  <sodipodi:namedview
     id="base"
     pagecolor="#ffffff"
     bordercolor="#666666"
     borderopacity="1.0"
     inkscape:pageopacity="0.0"
     inkscape:pageshadow="2"
     inkscape:zoom="0.49497475"
     inkscape:cx="74.494519"
     inkscape:cy="163.74273"
     inkscape:document-units="px"
     inkscape:current-layer="layer1"
     showgrid="false"
     units="px" />
  <metadata
     id="metadata1231">
    <rdf:RDF>
      <cc:Work
         rdf:about="">
        <dc:format>image/svg+xml</dc:format>
        <dc:type
           rdf:resource="http://purl.org/dc/dcmitype/StillImage" />
        <dc:title></dc:title>
        <dc:creator>
          <cc:Agent>
            <dc:title>Sandie Skeen</dc:title>
          </cc:Agent>
        </dc:creator>
        <dc:rights>
          <cc:Agent>
            <dc:title>Copyright - All rights reserved - Tous droits réservés</dc:title>
          </cc:Agent>
        </dc:rights>
        <dc:description>Toulouse, France</dc:description>
      </cc:Work>
    </rdf:RDF>
  </metadata>
  <g
     inkscape:label="Calque 1"
     inkscape:groupmode="layer"
     id="layer1"
     transform="translate(0,-217.62499)">
    <g
       id="g3875-3-3-9-9"
       transform="translate(-1124.2379,477.54816)">
      <rect
         ry="6.8791666"
         rx="6.8791666"
         y="-259.27255"
         x="1124.8885"
         height="78.073769"
         width="78.073769"
         id="rect5205-0-1-9-2-4-3-8-4-9-0-6-7-7-5-6-2-2-8-9-5-6-2-5-8-7-1-980-3-2-6-0-3-47-2-3-3"
         style="opacity:1;fill:#ffffff;fill-opacity:1;stroke:#8bf0ec;stroke-width:1.30122089;stroke-miterlimit:4;stroke-dasharray:none;stroke-dashoffset:0;stroke-opacity:1" />
      <rect
         inkscape:export-ydpi="43.548504"
         inkscape:export-xdpi="43.548504"
         inkscape:export-filename="C:\Users\sandi\AndroidStudioProjects\Mnemosis\app\src\main\res\drawable\dos.png"
         transform="rotate(-90)"
         ry="4.7624993"
         rx="4.7624993"
         y="1129.3967"
         x="185.70691"
         height="69.057289"
         width="69.057289"
         id="rect5169-4-0-4-9-7-5-2-3-6-7-2-3-4-7-1-8-9-3-36-4-4-8-1-6-8-6-4-1-4-7-6-5-4-2-5-4-8-6-6-1-4"
         style="display:inline;opacity:1;fill:#8bf0ec;fill-opacity:1;stroke:none;stroke-width:2.30172825;stroke-miterlimit:4;stroke-dasharray:none;stroke-dashoffset:0;stroke-opacity:1" />
    </g>
    <path
       style="display:inline;opacity:1;fill:#ffa892;fill-opacity:1;stroke:#ffffff;stroke-width:0.26458332;stroke-linecap:butt;stroke-linejoin:miter;stroke-miterlimit:4;stroke-dasharray:none;stroke-opacity:1"
       d="m 38.63866,243.20352 c -6.620769,0.0505 -13.795829,2.4771 -17.104379,8.28735 -6.28134,11.03096 -6.06279,20.65712 2.92695,27.51047 1.38589,1.05653 2.824339,1.96262 4.292249,2.71921 -0.236309,0.49188 -0.564178,1.04026 -0.781348,1.37149 -1.186532,1.80907 -2.987451,3.02782 -2.952791,4.62401 0.66711,-1.06824 1.80194,-1.89618 2.84633,-3.12126 -0.604231,1.73801 -1.123601,2.36429 -1.033521,4.09019 1.770492,-1.70843 3.8348,-3.07706 4.705652,-4.81572 -0.363831,2.02816 0.337688,3.83257 0.59377,6.44663 1.548858,-1.92196 2.607088,-3.91514 2.927458,-5.97276 -0.0635,2.8937 0.903251,4.12787 1.185979,6.7262 1.171282,-2.11511 -0.173217,-4.39556 -0.273888,-6.94117 6.6637,1.03004 13.280249,-1.24932 18.086739,-7.68739 6.185969,-8.60434 4.407091,-18.40041 0.122481,-24.53236 -2.4829,-3.62151 -4.09302,-5.6868 -6.340181,-6.91379 -0.684178,-0.34793 -1.385319,-0.64571 -2.113561,-0.86093 -1.650219,-0.48732 -3.687508,-0.74477 -6.449219,-0.92759 -0.212269,-0.003 -0.425151,-0.004 -0.63872,-0.003 z"
       id="path1247-3-3-6-7"
       inkscape:connector-curvature="0" />
    <path
       style="display:inline;opacity:1;fill:#0fc069;fill-opacity:1;stroke:#ffffff;stroke-width:0.26458332;stroke-linecap:butt;stroke-linejoin:miter;stroke-miterlimit:4;stroke-dasharray:none;stroke-opacity:1"
       d="m 12.551881,221.88389 c 2.89255,3.37856 2.05488,4.32036 2.81947,7.34115 1.5726,6.21285 13.056869,13.40941 21.42918,7.7184 1.482738,-0.21014 2.955139,-0.51545 4.360969,-0.95292 -1.579899,0.92215 -3.097488,1.99333 -4.54029,3.14555 -13.020339,3.11393 -16.242409,19.95778 -11.583269,26.64489 2.265239,3.25143 3.930889,3.25182 4.647259,8.80669 0.855332,-3.09961 1.1942,-5.612 2.566249,-9.29865 1.249011,-3.68358 3.686713,-6.28248 4.161513,-10.53477 0.860848,1.77034 2.07536,3.17423 3.412188,3.85145 2.086591,1.05713 2.952512,0.59159 4.877739,3.27887 -0.421849,-1.85064 -0.947618,-3.2518 -1.265039,-5.55212 -0.54357,-3.23537 0.79788,-5.99664 -3.00033,-9.86968 -1.17348,-1.19668 -1.476978,-2.48231 -1.40612,-4.43952 0.23159,-1.20789 0.878282,-2.88737 2.59829,-4.79041 0.76835,-0.46098 1.549429,-0.8775 2.33888,-1.25005 l 0.0279,0.13281 0.0558,5.38262 0.0289,1.72909 0.0388,0.5271 c 0.57468,0.10911 1.11093,0.23292 1.606621,0.3793 0.30171,0.0892 0.597779,0.19538 0.890889,0.31058 l 0.0656,-1.23559 0.209809,-1.04696 0.15761,-1.71359 -0.0176,-0.38137 c 0.006,-0.38833 -0.147658,-0.58917 -0.364828,-0.88832 -0.107411,-0.22178 -0.270021,-0.32981 -0.469212,-0.36483 l -0.110588,-2.12184 -0.0966,-4.47983 0.18811,-4.76043 -1.93477,0.54777 -0.0909,2.07016 -0.257342,1.12241 c -0.98077,0.77264 -1.070578,1.74837 -1.145669,3.02152 l 0.005,0.0987 c -1.95258,0.84393 -4.17268,1.34758 -6.427509,1.649 -2.519707,-0.58584 -4.076547,-1.41516 -5.275665,-3.32176 -3.880781,-6.17137 -7.784371,-5.41836 -11.764151,-7.22747 -2.84895,-1.19826 -4.49116,-2.35202 -6.73654,-3.52795 z m 27.469129,16.38298 c -0.846089,1.18731 -1.118319,2.06498 -1.62316,3.24735 -1.63639,1.45887 -2.58322,3.25643 -3.008598,5.1387 -0.226111,-2.07118 0.411718,-3.93002 1.768879,-6.24872 0.928579,-0.75344 1.885278,-1.47142 2.862879,-2.13733 z"
       id="path982-2-9-3-6-4-3-3-2-6-5-5-9-5"
       inkscape:connector-curvature="0" />
  </g>
</svg>
