<?xml version="1.0" encoding="UTF-8" standalone="no"?>
<!-- Created with Inkscape (http://www.inkscape.org/) -->

<svg
   xmlns:dc="http://purl.org/dc/elements/1.1/"
   xmlns:cc="http://creativecommons.org/ns#"
   xmlns:rdf="http://www.w3.org/1999/02/22-rdf-syntax-ns#"
   xmlns:svg="http://www.w3.org/2000/svg"
   xmlns="http://www.w3.org/2000/svg"
   xmlns:sodipodi="http://sodipodi.sourceforge.net/DTD/sodipodi-0.dtd"
   xmlns:inkscape="http://www.inkscape.org/namespaces/inkscape"
   width="300"
   height="300"
   viewBox="0 0 79.374998 79.375002"
   version="1.1"
   id="svg1234"
   inkscape:version="0.92.4 (5da689c313, 2019-01-14)"
   sodipodi:docname="na4.svg">
  <defs
     id="defs1228" />
  <sodipodi:namedview
     id="base"
     pagecolor="#ffffff"
     bordercolor="#666666"
     borderopacity="1.0"
     inkscape:pageopacity="0.0"
     inkscape:pageshadow="2"
     inkscape:zoom="0.49497475"
     inkscape:cx="-30.090324"
     inkscape:cy="-54.717985"
     inkscape:document-units="px"
     inkscape:current-layer="layer1"
     showgrid="false"
     units="px" />
  <metadata
     id="metadata1231">
    <rdf:RDF>
      <cc:Work
         rdf:about="">
        <dc:format>image/svg+xml</dc:format>
        <dc:type
           rdf:resource="http://purl.org/dc/dcmitype/StillImage" />
        <dc:title></dc:title>
        <dc:creator>
          <cc:Agent>
            <dc:title>Sandie Skeen</dc:title>
          </cc:Agent>
        </dc:creator>
        <dc:rights>
          <cc:Agent>
            <dc:title>Copyright - All rights reserved - Tous droits réservés</dc:title>
          </cc:Agent>
        </dc:rights>
        <dc:description>Toulouse, France</dc:description>
      </cc:Work>
    </rdf:RDF>
  </metadata>
  <g
     inkscape:label="Calque 1"
     inkscape:groupmode="layer"
     id="layer1"
     transform="translate(0,-217.62499)">
    <g
       id="g3875-27-3-3-3"
       transform="translate(-1124.2379,477.54816)">
      <rect
         ry="6.8791666"
         rx="6.8791666"
         y="-259.27255"
         x="1124.8885"
         height="78.073769"
         width="78.073769"
         id="rect5205-0-1-9-2-4-3-8-4-9-0-6-7-7-5-6-2-2-8-9-5-6-2-5-8-7-1-980-3-2-6-0-3-9-1-0-6"
         style="opacity:1;fill:#ffffff;fill-opacity:1;stroke:#8bf0ec;stroke-width:1.30122089;stroke-miterlimit:4;stroke-dasharray:none;stroke-dashoffset:0;stroke-opacity:1" />
      <rect
         inkscape:export-ydpi="43.548504"
         inkscape:export-xdpi="43.548504"
         inkscape:export-filename="C:\Users\sandi\AndroidStudioProjects\Mnemosis\app\src\main\res\drawable\dos.png"
         transform="rotate(-90)"
         ry="4.7624993"
         rx="4.7624993"
         y="1129.3967"
         x="185.70691"
         height="69.057289"
         width="69.057289"
         id="rect5169-4-0-4-9-7-5-2-3-6-7-2-3-4-7-1-8-9-3-36-4-4-8-1-6-8-6-4-1-4-7-6-5-4-2-5-4-8-5-3-6-2"
         style="display:inline;opacity:1;fill:#8bf0ec;fill-opacity:1;stroke:none;stroke-width:2.30172825;stroke-miterlimit:4;stroke-dasharray:none;stroke-dashoffset:0;stroke-opacity:1" />
    </g>
    <path
       style="display:inline;fill:#ba94cd;fill-opacity:1;fill-rule:evenodd;stroke:#ffffff;stroke-width:0.26458332;stroke-linecap:butt;stroke-linejoin:miter;stroke-miterlimit:4;stroke-dasharray:none;stroke-opacity:1"
       d="m 35.455034,242.7473 a 7.8837216,4.7587982 67.492505 0 0 -0.433401,0.17449 7.8837216,4.7587982 67.492505 0 0 -2.06802,3.58288 7.8837216,4.7587982 8.668402 0 0 -7.04949,3.85656 7.8837216,4.7587982 8.668402 0 0 0.35907,1.70816 7.8837216,4.7587982 36.178009 0 0 -5.05911,1.34728 7.8837216,4.7587982 36.178009 0 0 3.94809,8.52193 7.8837216,4.7587982 36.178009 0 0 0.11978,0.0793 4.7587982,7.8837216 65.515495 0 0 -2.25417,5.9822 4.7587982,7.8837216 65.515495 0 0 5.531761,1.89289 4.7587982,7.8837216 83.139526 0 0 -0.857311,2.85117 4.7587982,7.8837216 83.139526 0 0 3.63632,3.21966 4.7587982,7.8837216 42.345454 0 0 -0.0364,6.9761 4.7587982,7.8837216 42.345454 0 0 4.431339,0.23429 6.8004629,3.8240398 83.907063 0 0 -0.006,2.6519 6.8004629,3.8240398 83.907063 0 0 4.545352,6.30571 6.8004629,3.8240398 83.907063 0 0 3.048709,-7.21211 6.8004629,3.8240398 83.907063 0 0 -0.19389,-1.19173 7.8837216,4.7587982 48.249762 0 0 5.72271,-0.008 7.8837216,4.7587982 48.249762 0 0 0.577419,-4.77853 7.8837216,4.7587982 13.763957 0 0 5.0546,-3.28009 7.8837216,4.7587982 13.763957 0 0 -2.16853,-4.21955 7.8837216,4.7587982 86.297192 0 0 1.27668,-3.88972 7.8837216,4.7587982 52.680503 0 0 4.53715,-0.2023 7.8837216,4.7587982 52.680503 0 0 -0.416359,-7.94354 4.7587982,7.8837216 87.410447 0 0 3.08339,-4.20941 4.7587982,7.8837216 87.410447 0 0 -6.83991,-4.18929 4.7587982,7.8837216 29.78484 0 0 -1.698921,-6.02061 4.7587982,7.8837216 29.78484 0 0 -5.501159,1.60964 7.8837216,4.7587982 86.297192 0 0 -4.902801,-4.55287 7.8837216,4.7587982 86.297192 0 0 -1.82118,0.91798 l -1.509548,0.27336 a 7.8837216,4.7587982 67.492505 0 0 -3.05612,-0.48735 z"
       id="path4515-1-5-4-4-8-2-8-4-3-4-9-01-8-6-0-5-8-7-3-8-3-2-9"
       inkscape:connector-curvature="0" />
    <path
       style="display:inline;fill:#0fc069;fill-opacity:1;stroke:#ffffff;stroke-width:0.26458332;stroke-linecap:butt;stroke-linejoin:miter;stroke-miterlimit:4;stroke-dasharray:none;stroke-opacity:1"
       d="m 41.501403,222.47784 c -1.24534,0.2435 -1.34289,-0.10194 -3.70832,1.0604 -0.53811,0.28435 -1.930609,4.14021 -1.23248,6.17843 0.729959,2.1309 0.373269,4.73138 -0.517789,6.6673 -3.048421,-5.06094 -8.5144,-4.79288 -13.305131,-6.95255 0.35674,1.45221 4.16402,3.32304 4.738211,4.27571 -3.161931,-0.91769 -6.503191,0.81191 -8.904871,1.02112 2.9269,3.27613 7.03795,2.13387 9.357549,3.16829 -1.270479,1.30069 -1.247748,2.34549 -1.995219,3.50211 2.495231,0.22431 4.24735,0.3256 5.593981,0.19327 -0.274622,0.26662 -0.522131,0.49152 -0.748271,0.62218 0.100039,0.75617 0.306779,1.18879 0.53898,1.54513 0.428551,0.51041 0.524801,0.7614 -0.333319,0.93017 -0.76698,0.14741 -1.253411,-0.0413 -2.170401,1.16169 0.856869,0.37834 0.615569,0.83503 1.78853,1.45624 0.79189,0.41943 0.341411,0.7091 -0.0321,1.46606 -1.57122,3.20662 0.452279,3.88303 0.819068,5.52525 1.877732,-1.04434 2.97125,-0.0205 5.576922,-2.80552 0.221589,-0.23685 0.88365,-0.72129 1.073838,-0.47543 0.688811,1.04471 1.206341,0.58196 2.23448,0.93742 0.809361,-1.0207 2.25814,-1.50318 2.01176,-4.02921 0.58547,0.0281 1.815391,-0.74677 2.988442,-0.81908 0.144888,-2.38494 0.995098,-5.0258 -1.612291,-5.54487 -1.221471,-0.24316 -2.128039,0.42665 -3.109881,0.83095 0.006,-1.27702 -0.0279,-2.55863 -0.319879,-3.86436 -1.15361,-1.02878 -1.684499,-2.58104 -1.816949,-4.32687 0.253759,0.47965 0.552709,0.89814 0.891429,1.25574 1.029099,1.08652 2.366171,1.57001 3.686601,1.71307 -0.121312,0.45804 -0.19158,0.92659 -0.194842,1.3901 -0.006,0.94574 0.26448,1.89173 0.94983,2.5771 0.60007,0.6001 1.5884,1.07742 2.7559,1.53014 0.541891,0.21013 1.134002,0.33114 1.717202,0.50643 -0.729671,1.59176 -0.947502,3.57077 -0.200502,5.06481 1.088811,2.17758 3.27977,4.88115 2.38537,7.56439 -0.48297,1.44887 -1.738469,2.25034 -2.964148,3.22875 -0.612831,0.4892 -1.21444,1.02397 -1.62523,1.74562 -0.410742,0.72167 -0.596712,1.6265 -0.417012,2.70474 0.272362,-0.87354 0.512532,-1.88116 0.94258,-2.52128 1.76937,-2.63374 4.117841,-3.27288 4.651902,-4.7656 1.137179,-3.41169 -0.979752,-6.55204 -1.940452,-8.47339 -0.523449,-1.04691 -0.341918,-2.89423 0.286811,-4.21834 0.290849,0.0724 0.58306,0.19728 0.863521,0.25528 1.201449,0.24852 2.225889,0.38607 3.001349,0.20722 0.19386,-0.0447 0.382881,-0.1102 0.56121,-0.25218 0.178279,-0.14197 0.32951,-0.39604 0.345699,-0.65112 0.0324,-0.51017 -0.25169,-0.84704 -0.6356,-1.23094 -0.918578,-0.91856 -1.93779,-1.2652 -2.843239,-1.05626 -0.761259,0.17567 -1.342869,0.72223 -1.81642,1.37459 -0.64778,-0.1865 -1.30387,-0.32985 -1.896531,-0.55965 -1.099288,-0.42629 -2.02629,-0.94005 -2.3554,-1.26918 -0.416698,-0.41667 -0.616929,-1.02922 -0.611849,-1.75286 0.004,-0.44678 0.112001,-0.91876 0.26458,-1.3839 1.414169,-0.067 2.728299,-0.43332 3.609579,-0.96945 0.48297,-0.29382 0.874821,-0.60666 1.042831,-1.10846 0.0839,-0.2509 0.0748,-0.57292 -0.063,-0.82992 -0.13784,-0.257 -0.36205,-0.43139 -0.6165,-0.55862 -0.94356,-0.47176 -1.948389,-0.38278 -2.754371,0.0522 -0.805968,0.43496 -1.446739,1.17408 -1.902719,2.02468 -0.0378,0.0706 -0.0536,0.15159 -0.0889,0.22376 -1.217081,-0.0693 -2.416059,-0.42218 -3.300569,-1.35599 -0.824651,-0.87065 -1.42581,-2.24455 -1.480531,-4.39146 0.601929,-3.44584 2.024599,-6.74762 2.836521,-7.79384 z m 5.463231,12.05766 c 0.39724,0.0271 0.826738,0.34932 0.264578,0.6935 -0.536419,0.32632 -1.43592,0.57791 -2.398289,0.71675 0.33801,-0.49894 0.730059,-0.92952 1.155459,-1.1591 0.27019,-0.1458 0.53589,-0.23251 0.812882,-0.24391 0.0525,-0.009 0.108609,-0.0111 0.16537,-0.007 z m -10.562672,3.9672 c 0.666271,0.33335 1.270632,0.74803 1.610251,1.50792 0.32348,0.8229 0.6427,1.73828 0.86971,2.62258 -0.0375,-0.007 -0.0735,-0.009 -0.111631,-0.0171 -0.615759,-0.26654 -1.94079,-2.4931 -3.195158,-3.10317 0.267999,-0.29973 0.539908,-0.6329 0.826828,-1.01028 z m 14.934512,3.1688 c 0.96919,0.0301 1.75128,0.72773 1.426258,0.9927 -0.25358,0.20675 -1.38829,0.15323 -2.32286,-0.0357 -0.139268,-0.0288 -0.289769,-0.0947 -0.43304,-0.12764 0.0928,-0.15045 0.37158,-0.70058 0.905351,-0.79788 0.14343,-0.0261 0.285811,-0.0358 0.424291,-0.0315 z"
       id="path1090-6-9-4-4-4-7-8-5-9-1-6-5-6-5-8-5-8"
       inkscape:connector-curvature="0" />
  </g>
</svg>
