<?xml version="1.0" encoding="UTF-8" standalone="no"?>
<!-- Created with Inkscape (http://www.inkscape.org/) -->

<svg
   xmlns:dc="http://purl.org/dc/elements/1.1/"
   xmlns:cc="http://creativecommons.org/ns#"
   xmlns:rdf="http://www.w3.org/1999/02/22-rdf-syntax-ns#"
   xmlns:svg="http://www.w3.org/2000/svg"
   xmlns="http://www.w3.org/2000/svg"
   xmlns:sodipodi="http://sodipodi.sourceforge.net/DTD/sodipodi-0.dtd"
   xmlns:inkscape="http://www.inkscape.org/namespaces/inkscape"
   width="300"
   height="300"
   viewBox="0 0 79.374998 79.375002"
   version="1.1"
   id="svg1234"
   inkscape:version="0.92.4 (5da689c313, 2019-01-14)"
   sodipodi:docname="na5.svg">
  <defs
     id="defs1228" />
  <sodipodi:namedview
     id="base"
     pagecolor="#ffffff"
     bordercolor="#666666"
     borderopacity="1.0"
     inkscape:pageopacity="0.0"
     inkscape:pageshadow="2"
     inkscape:zoom="0.7"
     inkscape:cx="125.95449"
     inkscape:cy="12.92733"
     inkscape:document-units="px"
     inkscape:current-layer="layer1"
     showgrid="false"
     units="px" />
  <metadata
     id="metadata1231">
    <rdf:RDF>
      <cc:Work
         rdf:about="">
        <dc:format>image/svg+xml</dc:format>
        <dc:type
           rdf:resource="http://purl.org/dc/dcmitype/StillImage" />
        <dc:title></dc:title>
        <dc:creator>
          <cc:Agent>
            <dc:title>Sandie Skeen</dc:title>
          </cc:Agent>
        </dc:creator>
        <dc:rights>
          <cc:Agent>
            <dc:title>Copyright - All rights reserved - Tous droits réservés</dc:title>
          </cc:Agent>
        </dc:rights>
        <dc:description>Toulouse, France</dc:description>
      </cc:Work>
    </rdf:RDF>
  </metadata>
  <g
     inkscape:label="Calque 1"
     inkscape:groupmode="layer"
     id="layer1"
     transform="translate(0,-217.62499)">
    <g
       id="g3875-11-1-0-9-0-7"
       transform="translate(-1124.2379,477.54816)">
      <rect
         ry="6.8791666"
         rx="6.8791666"
         y="-259.27255"
         x="1124.8885"
         height="78.073769"
         width="78.073769"
         id="rect5205-0-1-9-2-4-3-8-4-9-0-6-7-7-5-6-2-2-8-9-5-6-2-5-8-7-1-980-3-2-6-0-3-5-9-9-7-1-9"
         style="opacity:1;fill:#ffffff;fill-opacity:1;stroke:#8bf0ec;stroke-width:1.30122089;stroke-miterlimit:4;stroke-dasharray:none;stroke-dashoffset:0;stroke-opacity:1" />
      <rect
         inkscape:export-ydpi="43.548504"
         inkscape:export-xdpi="43.548504"
         inkscape:export-filename="C:\Users\sandi\AndroidStudioProjects\Mnemosis\app\src\main\res\drawable\dos.png"
         transform="rotate(-90)"
         ry="4.7624993"
         rx="4.7624993"
         y="1129.3967"
         x="185.70691"
         height="69.057289"
         width="69.057289"
         id="rect5169-4-0-4-9-7-5-2-3-6-7-2-3-4-7-1-8-9-3-36-4-4-8-1-6-8-6-4-1-4-7-6-5-4-2-5-4-8-8-2-6-2-6-7"
         style="display:inline;opacity:1;fill:#8bf0ec;fill-opacity:1;stroke:none;stroke-width:2.30172825;stroke-miterlimit:4;stroke-dasharray:none;stroke-dashoffset:0;stroke-opacity:1" />
    </g>
    <path
       style="fill:#c5b577;fill-opacity:1;stroke:none;stroke-width:0.24229412px;stroke-linecap:butt;stroke-linejoin:miter;stroke-opacity:1"
       d="m 47.785384,229.67318 c 0,0 -0.346279,0.77867 -0.519348,1.38441 -0.173072,0.60573 -0.605642,2.16361 -0.605642,2.76934 0,0.60574 -0.0864,1.73042 -0.259419,2.76883 -0.173069,1.0384 0.172961,1.73066 -1.298109,2.68253 -1.47107,0.95187 -1.471001,1.03833 -2.509411,1.55753 -0.14296,0.0715 -0.271791,0.19922 -0.389639,0.36121 -0.39574,3.2e-4 -0.89431,0.0156 -1.49965,0.10645 -1.22377,0.18358 -1.4076,0.55093 -2.631361,-0.061 -1.22378,-0.61189 -1.498949,-1.04026 -2.906289,-0.73432 -1.40733,0.30594 -1.376701,0.18364 -2.4169,0.4284 -1.04021,0.24475 -1.774841,0.36719 -2.44792,0.73432 -0.673071,0.36713 -0.795261,0.55083 -1.407141,1.16272 -0.611889,0.6119 -1.160479,1.02025 -1.688788,1.47589 -0.768081,0.66242 -1.524062,0.99495 -2.867531,0.91777 -0.57505,-0.033 -1.13341,-0.43077 -1.93734,-0.28887 -1.34426,0.23726 -4.04973,1.38031 -3.4799,1.68879 0,0 0.46285,0.51136 1.89653,0.12247 1.54763,-0.41981 2.59199,-0.74186 3.54914,-0.55087 1.468519,0.30594 1.73293,-0.0133 2.08049,-0.18345 0.8871,-0.43441 1.600959,-1.08273 2.263939,-1.40767 0.765281,-0.37508 1.040011,-0.70351 1.713079,-0.94826 0.673082,-0.24476 0.85698,-0.51997 1.40766,-0.64234 1.630731,-0.46723 3.109543,-0.91443 4.860693,-0.68937 1.274598,0.16381 2.131189,1.01319 3.277319,1.72962 0,0 0.83888,0.4426 1.20251,0.76326 -0.01511,0.1077 -0.0411,0.28809 -0.0501,0.3421 -0.0865,0.5192 0.432631,2.68244 0.778769,3.28818 0.346131,0.60574 0.0866,1.12477 1.124993,3.11505 1.038407,1.99027 1.557869,1.2115 1.81746,2.85564 0.259609,1.64412 0.865007,1.47148 -0.259932,3.28866 -1.12494,1.81721 -1.38447,2.16302 -2.509409,3.37449 -1.12494,1.21145 -3.374671,1.9902 -4.066932,2.50939 -0.69228,0.51922 -1.557859,0.60619 -1.81746,1.55805 -0.259598,0.95187 0.432851,1.47101 -0.259418,2.50942 -0.260552,0.39084 -0.508432,0.64688 -0.7214,0.91104 -0.919351,-1.44526 -1.454031,-2.70672 -4.01991,-2.91608 -2.504501,-0.20439 -4.77866,0.29043 -6.82232,0.30591 h -3.79357 -2.44791 c -0.55069,0 -1.52939,2.1e-4 -1.89653,-0.061 -0.36712,-0.0612 -1.22365,-0.18365 -1.83554,-0.42839 -0.61189,-0.24476 -1.2852,-0.61185 -1.2852,-0.61185 0,0 -0.42839,-0.3671 -0.42839,0 0,0.36714 -0.30566,0.55095 0.36741,0.97928 0.67308,0.42831 1.22378,0.67299 1.6521,0.91776 0.42832,0.24477 0.85666,0.30573 1.34617,0.3669 0.48951,0.0612 2.2636,2.6e-4 2.8143,0.0615 0.5507,0.0612 2.14195,0.0608 2.75384,0.12195 0.61189,0.0612 3.79364,-0.0608 4.221959,-0.12195 3.017561,-0.29956 6.778272,-0.42781 8.01553,1.16218 0.144369,0.20212 0.48006,0.81627 0.79375,1.4051 -0.049,0.23516 -0.0826,0.51234 -0.0987,0.84955 -0.0865,1.81721 -0.692539,2.59619 -0.0868,4.32686 0.60574,1.73067 0.778859,1.12506 1.125001,1.29812 0.34613,0.17308 1.298209,0.6055 1.64434,1.03818 0.346139,0.43267 1.12459,1.64422 1.47071,2.07687 0.346139,0.43267 1.125091,1.03809 1.471229,1.64383 0.346141,0.60574 0.60588,1.47119 0.519351,2.24999 -0.0865,0.7788 -0.432591,1.21174 -0.60565,1.81749 -0.173072,0.60572 -0.69246,1.55751 -0.69246,1.55751 l -1.816941,0.0863 c 0,0 -1.29826,1.21142 -1.81746,1.73064 -0.51921,0.51919 -2.36732,1.60507 -1.903759,1.55752 0.421849,-0.0432 3.46139,-1.73064 3.80751,-1.73064 0.346139,0 1.297789,0.17325 1.990069,-0.0863 0.692261,-0.25961 1.644341,-1.03817 1.644341,-1.03817 0,0 -0.432822,0.77838 -0.519351,1.29761 -0.146259,0.65057 -0.383429,2.88581 -0.173109,2.42309 0,0 0.865669,-1.64393 1.21181,-1.99006 0.346128,-0.34612 1.12463,-0.77914 1.643819,-1.21181 0.519211,-0.43267 0.77877,-1.03817 0.77877,-1.03817 0,0 0.260421,0.43243 0.259929,1.03817 -7.94e-4,0.89707 -0.453279,3.57316 0,2.68252 0,0 1.557292,-1.99017 1.643832,-2.3363 0.0865,-0.34612 -0.259551,-1.21127 0.173109,-1.21127 0.432671,0 1.6445,0.60548 2.163699,1.03817 0.519192,0.43267 1.297882,0.17292 2.336292,0.43254 1.0384,0.25958 1.730838,0.95231 2.42311,1.55802 0.692259,0.60576 1.03813,0.60565 1.816939,0.60565 0.778801,0 3.115051,0.51935 3.115051,0.51935 0.583109,0.16931 -1.13446,-1.01525 -1.90376,-1.125 -1.217861,-0.17372 -1.44345,-1.10681 -2.03346,-2.03399 l -1.514121,-2.37916 -1.73065,-2.76934 -1.929601,-2.22676 0.0258,-1.36425 c 0,0 0.172789,-1.68742 0.216009,-1.90373 0.0433,-0.21636 0.51935,-0.73591 0.51935,-0.73591 0,0 1.38456,-0.7787 1.903759,-1.08159 0.519211,-0.30286 2.033382,-0.38931 3.115062,-0.60562 1.081659,-0.21635 1.990529,-0.47615 2.76933,-0.69246 0.778798,-0.21636 1.94722,-0.21594 2.120289,-0.34575 0.173069,-0.12978 0.34572,-0.82215 0.34572,-0.82215 l -1.990071,0.17311 c 0,0 -3.158408,0.60544 -3.461279,0.69197 -0.302869,0.0865 -3.158469,0.90875 -3.63441,0.99528 -0.47593,0.0865 -1.384641,0.73538 -1.774049,0.90846 -0.389401,0.17308 -0.865341,1.03873 -0.951881,1.21181 -0.0679,0.1359 -0.348729,1.53076 -0.489371,2.23603 l -2.063438,-2.06293 c 0,0 -2.423022,-0.95205 -3.028762,-1.64432 -0.60574,-0.69227 -1.73064,-2.59586 -1.73064,-3.11506 0,-0.51921 0.519351,-2.42326 0.519351,-2.94245 0,-0.51922 0.432541,-2.42273 1.384411,-2.94195 0.528918,-0.2885 1.495658,-0.99219 2.368849,-1.63089 1.740649,-0.55923 4.579681,-0.92292 7.02024,-0.53229 0.605729,0.12983 1.687481,0.47585 2.076871,0.60565 1.456769,0.47652 2.978099,0.75573 4.499469,0.90848 0.64901,0 1.687569,-1.1e-4 2.42311,-0.0434 0.735529,-0.0433 2.206681,-0.21633 2.552809,-0.30282 1.367739,-0.33896 2.742811,-0.51649 4.023532,-1.12498 0.600519,-0.28535 2.241058,-1.3313 1.384929,-1.68725 l -0.51935,0.34624 -1.038701,0.60565 c 0,0 -0.86487,0.34603 -1.12448,0.43252 -0.25959,0.0865 -1.168169,0.34628 -1.730639,0.51935 -0.562459,0.17304 -1.16822,0.21653 -1.427822,0.21653 -0.259598,0 -0.952359,0.1297 -2.207098,0.1297 -1.254731,0 -1.211451,1.1e-4 -2.20658,-0.1297 -0.99514,-0.12985 -1.64402,-0.13004 -2.33629,-0.21653 -0.692271,-0.0865 -1.557401,-0.47612 -2.466001,-0.69247 -0.9086,-0.21632 -1.38485,-0.34605 -2.46652,-0.60563 -1.081659,-0.25961 -2.509409,0 -2.509409,0 l -1.855181,0.14571 c 0.455292,-0.28499 0.88442,-0.6045 1.07642,-0.92448 0.259601,-0.43268 0.778761,-1.73064 0.778761,-1.73064 0,0 1.384689,-2.50931 1.471229,-3.11505 0.0908,-0.56877 0.15426,-2.36474 0.0863,-2.94246 -0.0438,-0.40589 -0.426752,-1.33326 -1.048001,-2.11202 0,0 -0.58742,-0.54794 -1.634519,-2.64738 -0.641692,-1.28661 -1.10462,-2.36932 -1.429891,-3.27061 0.0649,-0.10651 0.63922,-1.052 0.697119,-1.28363 0.0612,-0.24475 -0.122108,-0.36719 0.673341,-1.04026 0.795451,-0.67307 0.42845,-1.04011 1.468641,-1.52962 1.040209,-0.48951 0.36716,-0.61185 1.346168,-0.61185 0.979022,0 0.795441,0.061 1.95802,0.3669 1.16259,0.30594 0.73397,0.12225 1.590612,0.48939 0.856638,0.36712 1.65245,0.7346 2.447909,1.10174 0.79544,0.36713 2.69182,1.28467 2.69182,1.28467 0,0 0.611929,0.55077 1.040249,0.73433 0.428321,0.18356 0.979271,0.61185 0.979271,0.61185 l 1.223701,0.30591 c 0,0 -0.979152,-1.16228 -1.468652,-1.28466 -0.489509,-0.12237 -2.447388,-1.46866 -2.447388,-1.46866 l -1.652101,-0.91776 -1.713071,-0.91778 -2.01952,-0.8568 c 0,0 -1.040199,-0.48937 -1.65209,-0.48937 -0.611888,0 -1.713338,-0.42822 -2.38642,0.12247 -0.673068,0.5507 -0.611698,0.42835 -1.407149,1.04024 -0.795449,0.61188 -0.917641,0.67291 -1.40715,1.10124 -0.135001,0.11812 -0.352369,0.26844 -0.59169,0.42478 0.007,-0.16342 0.0298,-0.30005 0.0682,-0.40256 0.259601,-0.69228 0.69251,-1.0381 0.865582,-1.64384 0.173069,-0.60573 0.518829,-1.1252 0.518829,-1.81746 0,-0.69227 0.346229,-1.99016 0.346229,-2.33629 0,-0.34614 0.0868,-0.86517 -0.0863,-1.21129 -0.173058,-0.34615 -0.0868,-3.20189 -0.0868,-3.20189 z"
       id="path6709-5-2-7"
       inkscape:connector-curvature="0" />
    <path
       style="fill:#27a027;fill-opacity:1;stroke:none;stroke-width:0.32833228px;stroke-linecap:butt;stroke-linejoin:miter;stroke-opacity:1"
       d="m 58.580204,273.13441 c 0,0 -0.3488,-4.82281 -2.28659,-6.2735 -1.320139,-0.98828 -5.3354,-0.93809 -5.3354,-0.93809 2.540672,3.24011 5.081331,6.27848 7.62199,7.21159 z"
       id="path6721-08-1-9"
       inkscape:connector-curvature="0"
       sodipodi:nodetypes="cscc" />
    <path
       style="fill:#27a027;fill-opacity:1;stroke:none;stroke-width:0.29629713px;stroke-linecap:butt;stroke-linejoin:miter;stroke-opacity:1"
       d="m 60.073195,273.06978 c 0,0 0.883171,-2.9042 2.169321,-3.70372 1.108409,-0.68903 3.75661,-0.37037 3.75661,-0.37037 -1.479021,1.79228 -3.321471,3.26656 -5.925931,4.07409 z"
       id="path6723-3-6-0"
       inkscape:connector-curvature="0"
       sodipodi:nodetypes="cscc" />
    <path
       style="fill:#27a027;fill-opacity:1;stroke:none;stroke-width:0.24229412px;stroke-linecap:butt;stroke-linejoin:miter;stroke-opacity:1"
       d="m 68.940875,262.72336 c 0,0 1.967399,-1.9482 3.10611,-1.86637 1.73296,0.12454 2.747119,1.81962 2.747119,1.81962 -2.66051,1.04709 -4.112398,1.04508 -5.853229,0.0468 z"
       id="path6725-6-6-0"
       inkscape:connector-curvature="0"
       sodipodi:nodetypes="cscc" />
    <path
       style="fill:#27a027;fill-opacity:1;stroke:none;stroke-width:0.24229412px;stroke-linecap:butt;stroke-linejoin:miter;stroke-opacity:1"
       d="m 62.588954,246.9506 c 0.216342,0.0649 3.097572,-0.10595 4.023812,1.18984 0.558308,0.78102 0.447458,2.06873 0.432679,3.02867 -0.007,0.50477 0.02159,1.51434 0.02159,1.51434 0,0 -0.75478,-0.70805 -1.14657,-0.99513 -0.655632,-0.4804 -1.713121,-0.19264 -2.877251,-1.49271 -1.14419,-1.27781 -0.4543,-3.24501 -0.4543,-3.24501 z"
       id="path6727-5-9-9"
       inkscape:connector-curvature="0"
       sodipodi:nodetypes="csscsscc" />
    <path
       style="fill:#27a027;fill-opacity:1;stroke:none;stroke-width:0.43153319px;stroke-linecap:butt;stroke-linejoin:miter;stroke-opacity:1"
       d="m 61.220566,246.33168 c 0,0 -4.307441,0.0313 -5.77586,1.60743 -1.094121,1.17438 -1.335,4.71332 -1.335,4.71332 0,0 0.637458,-0.78262 1.062548,-1.03529 1.37291,-0.81604 3.41263,-0.32366 4.577091,-1.41671 1.00594,-0.94426 1.471221,-3.86875 1.471221,-3.86875 z"
       id="path6729-9-0-8"
       inkscape:connector-curvature="0"
       sodipodi:nodetypes="cscssc" />
    <path
       style="fill:#27a027;fill-opacity:1;stroke:none;stroke-width:0.34220704px;stroke-linecap:butt;stroke-linejoin:miter;stroke-opacity:1"
       d="m 13.614976,265.89847 c 0,0 -1.70597,-3.75327 -3.304181,-4.39405 -1.5385401,-0.61684 -5.5069599,0.73234 -5.5069599,0.73234 3.2982699,0.8603 6.4785309,1.83829 8.8111409,3.66171 z"
       id="path6731-5-4-3"
       inkscape:connector-curvature="0"
       sodipodi:nodetypes="cscc" />
    <path
       style="fill:#27a027;fill-opacity:1;stroke:none;stroke-width:0.29655591px;stroke-linecap:butt;stroke-linejoin:miter;stroke-opacity:1"
       d="m 19.427766,266.34252 c 0,0 -0.25861,-5.26953 -2.2093,-6.66535 -1.80327,-1.29036 -5.24242,-0.22468 -5.24242,-0.22468 1.98174,3.92877 4.68454,5.51405 7.45172,6.89003 z"
       id="path6733-9-3-8"
       inkscape:connector-curvature="0"
       sodipodi:nodetypes="cscc" />
    <path
       style="fill:#27a027;fill-opacity:1;stroke:none;stroke-width:0.24229412px;stroke-linecap:butt;stroke-linejoin:miter;stroke-opacity:1"
       d="m 62.266776,246.70031 c 0.428048,-1.32058 0.595008,-3.42836 2.49605,-4.34747 1.921698,-0.92909 3.20503,-0.29349 4.571209,-0.1193 -0.377751,0.20525 -0.698471,0.47701 -0.880121,0.86222 -0.330279,0.70037 -0.79271,1.32373 -1.56741,1.83009 -1.81075,1.18351 -3.05575,1.31103 -4.619728,1.77446 z"
       id="path6735-2-5-5"
       inkscape:connector-curvature="0"
       sodipodi:nodetypes="cscssc" />
    <path
       style="fill:#27a027;fill-opacity:1;stroke:none;stroke-width:0.24229412px;stroke-linecap:butt;stroke-linejoin:miter;stroke-opacity:1"
       d="m 47.716516,230.00254 c 0,-0.12238 0.73262,-3.88322 2.16509,-5.13056 1.093079,-0.95182 4.167918,-1.20245 4.167918,-1.20245 0,0 -0.432819,0.31564 -0.610669,0.65886 -0.59753,1.15307 -0.671031,2.07035 -1.511149,2.93673 -1.15815,1.19435 -4.21119,2.73742 -4.21119,2.73742 z"
       id="path6737-5-7-6"
       inkscape:connector-curvature="0"
       sodipodi:nodetypes="cscssc" />
    <path
       style="fill:#27a027;fill-opacity:1;stroke:none;stroke-width:0.24229412px;stroke-linecap:butt;stroke-linejoin:miter;stroke-opacity:1"
       d="m 47.862745,231.51958 c 0,0 1.25317,-1.55479 5.843501,-0.33654 1.319598,0.35022 2.532269,2.21162 2.631109,3.27359 -1.798569,-0.20227 -2.193981,-1.04464 -2.99824,-1.46853 -0.71946,-0.37919 -1.51684,-0.21075 -2.080411,-0.24475 -1.367438,-0.0825 -3.395959,-1.22377 -3.395959,-1.22377 z"
       id="path6739-61-2-1"
       inkscape:connector-curvature="0"
       sodipodi:nodetypes="cscssc" />
    <path
       style="fill:#27a027;fill-opacity:1;stroke:none;stroke-width:0.32821241px;stroke-linecap:butt;stroke-linejoin:miter;stroke-opacity:1"
       d="m 31.003736,241.36603 c 0,0 0.97831,-3.21702 2.40298,-4.10266 1.227821,-0.76325 4.16128,-0.41027 4.16128,-0.41027 -1.63835,1.98534 -3.679251,3.61842 -6.56426,4.51293 z"
       id="path6723-9-9-9-0"
       inkscape:connector-curvature="0"
       sodipodi:nodetypes="cscc" />
    <path
       style="fill:#27a027;fill-opacity:1;stroke:none;stroke-width:0.31529996px;stroke-linecap:butt;stroke-linejoin:miter;stroke-opacity:1"
       d="m 28.898386,242.86292 c 0,0 -0.33496,-4.63138 -2.19583,-6.02448 -1.26775,-0.94906 -5.12363,-0.90086 -5.12363,-0.90086 2.439819,3.1115 4.87965,6.02927 7.31946,6.92534 z"
       id="path6721-2-5-5-4"
       inkscape:connector-curvature="0"
       sodipodi:nodetypes="cscc" />
    <path
       style="fill:#27a027;fill-opacity:1;stroke:none;stroke-width:0.29404381px;stroke-linecap:butt;stroke-linejoin:miter;stroke-opacity:1"
       d="m 64.635366,264.36081 c -0.0454,-0.14143 -0.591561,-4.75912 0.601919,-6.7312 0.910751,-1.50484 4.371459,-2.93332 4.371459,-2.93332 0,0 -0.383289,0.52507 -0.461709,0.9876 -0.26348,1.55388 -0.008,2.64119 -0.65873,3.95362 -0.896099,1.80923 -3.852939,4.7233 -3.852939,4.7233 z"
       id="path6737-8-3-8-2"
       inkscape:connector-curvature="0"
       sodipodi:nodetypes="cscssc" />
    <path
       style="fill:#27a027;fill-opacity:1;stroke:none;stroke-width:0.24229412px;stroke-linecap:butt;stroke-linejoin:miter;stroke-opacity:1"
       d="m 28.763615,244.66481 c 0,0 -1.950119,0.42992 -2.902899,5.0826 -0.273911,1.33754 0.85295,3.25209 1.759859,3.81339 0.61962,-1.70053 0.0414,-2.42963 0.0199,-3.3385 -0.01921,-0.81305 0.4866,-1.45206 0.707062,-1.97182 0.534929,-1.26117 0.41611,-3.58567 0.41611,-3.58567 z"
       id="path6739-6-6-9-8"
       inkscape:connector-curvature="0"
       sodipodi:nodetypes="cscssc" />
    <path
       style="fill:#27a027;fill-opacity:1;stroke:none;stroke-width:0.28101134px;stroke-linecap:butt;stroke-linejoin:miter;stroke-opacity:1"
       d="m 46.932896,232.56519 c 0,0 -0.298532,-4.12772 -1.957051,-5.36933 -1.129869,-0.84585 -4.56642,-0.80288 -4.56642,-0.80288 2.174499,2.77312 4.34898,5.37359 6.523471,6.17221 z"
       id="path6721-0-8-9-6"
       inkscape:connector-curvature="0"
       sodipodi:nodetypes="cscc" />
    <path
       style="fill:#27a027;fill-opacity:1;stroke:none;stroke-width:0.30979809px;stroke-linecap:butt;stroke-linejoin:miter;stroke-opacity:1"
       d="m 46.599984,233.60573 c 0,0 -0.923409,3.03653 -2.268148,3.87248 -1.158931,0.72043 -3.927811,0.38725 -3.927811,0.38725 1.546421,-1.87395 3.472831,-3.41542 6.195959,-4.25973 z"
       id="path6723-6-3-6-8"
       inkscape:connector-curvature="0"
       sodipodi:nodetypes="cscc" />
  </g>
</svg>
