<?xml version="1.0" encoding="UTF-8" standalone="no"?>
<!-- Created with Inkscape (http://www.inkscape.org/) -->

<svg
   xmlns:dc="http://purl.org/dc/elements/1.1/"
   xmlns:cc="http://creativecommons.org/ns#"
   xmlns:rdf="http://www.w3.org/1999/02/22-rdf-syntax-ns#"
   xmlns:svg="http://www.w3.org/2000/svg"
   xmlns="http://www.w3.org/2000/svg"
   xmlns:sodipodi="http://sodipodi.sourceforge.net/DTD/sodipodi-0.dtd"
   xmlns:inkscape="http://www.inkscape.org/namespaces/inkscape"
   width="300"
   height="300"
   viewBox="0 0 79.374998 79.375002"
   version="1.1"
   id="svg1234"
   inkscape:version="0.92.4 (5da689c313, 2019-01-14)"
   sodipodi:docname="na6.svg">
  <defs
     id="defs1228" />
  <sodipodi:namedview
     id="base"
     pagecolor="#ffffff"
     bordercolor="#666666"
     borderopacity="1.0"
     inkscape:pageopacity="0.0"
     inkscape:pageshadow="2"
     inkscape:zoom="0.7"
     inkscape:cx="-14.221303"
     inkscape:cy="-84.144613"
     inkscape:document-units="px"
     inkscape:current-layer="layer1"
     showgrid="false"
     units="px" />
  <metadata
     id="metadata1231">
    <rdf:RDF>
      <cc:Work
         rdf:about="">
        <dc:format>image/svg+xml</dc:format>
        <dc:type
           rdf:resource="http://purl.org/dc/dcmitype/StillImage" />
        <dc:title></dc:title>
        <dc:creator>
          <cc:Agent>
            <dc:title>Sandie Skeen</dc:title>
          </cc:Agent>
        </dc:creator>
        <dc:rights>
          <cc:Agent>
            <dc:title>Copyright - All rights reserved - Tous droits réservés</dc:title>
          </cc:Agent>
        </dc:rights>
        <dc:description>Toulouse, France</dc:description>
      </cc:Work>
    </rdf:RDF>
  </metadata>
  <g
     inkscape:label="Calque 1"
     inkscape:groupmode="layer"
     id="layer1"
     transform="translate(0,-217.62499)">
    <rect
       style="opacity:1;fill:#ffffff;fill-opacity:1;stroke:#8bf0ec;stroke-width:1.30122089;stroke-miterlimit:4;stroke-dasharray:none;stroke-dashoffset:0;stroke-opacity:1"
       id="rect5205-0-1-9-2-4-3-8-4-9-0-6-7-7-5-6-2-2-8-9-5-6-2-5-8-7-1-980-3-2-6-0-3-5-9-9-5"
       width="78.073769"
       height="78.073769"
       x="0.65061569"
       y="218.2756"
       rx="6.8791666"
       ry="6.8791666" />
    <rect
       style="display:inline;opacity:1;fill:#8bf0ec;fill-opacity:1;stroke:none;stroke-width:2.30172801;stroke-miterlimit:4;stroke-dasharray:none;stroke-dashoffset:0;stroke-opacity:1"
       id="rect5169-4-0-4-9-7-5-2-3-6-7-2-3-4-7-1-8-9-3-36-4-4-8-1-6-8-6-4-1-4-7-6-5-4-2-5-4-8-8-2-6-35"
       width="69.057289"
       height="69.057289"
       x="-291.84125"
       y="5.1587334"
       rx="4.7624993"
       ry="4.7624993"
       transform="rotate(-90)"
       inkscape:export-filename="C:\Users\sandi\AndroidStudioProjects\Mnemosis\app\src\main\res\drawable\dos.png"
       inkscape:export-xdpi="43.548504"
       inkscape:export-ydpi="43.548504" />
    <path
       style="display:inline;opacity:1;fill:#fffee3;fill-opacity:1;stroke:none;stroke-width:3.14956665;stroke-miterlimit:4;stroke-dasharray:none;stroke-dashoffset:0;stroke-opacity:1"
       d="m 38.908212,237.61485 c -11.678039,-0.0336 -21.658489,12.6083 -18.498619,23.98718 2.26642,0.0659 6.158471,1.50408 6.79959,0.19791 1.645471,-4.12946 7.162581,0.16071 10.496,-0.96581 1.583211,-0.6305 9.82327,0.40685 14.7345,0.61804 -2.467099,-1.06074 -5.628499,0.37862 -7.7432,-1.6216 4.757269,-0.17794 9.549289,1.17284 14.26373,0.1111 1.941909,-11.00228 -7.735671,-22.44065 -18.91719,-22.28341 -0.379841,-0.0275 -0.758111,-0.0421 -1.134811,-0.0429 z m 19.950721,22.85133 c -0.821471,5.65557 6.673141,6.06046 10.579708,5.11442 1.15493,-0.26149 3.083761,-0.0653 4.777492,0.0998 v -3.55587 c -4.550349,-3.09952 -10.425131,0.0372 -15.3572,-1.6583 z m -42.84597,0.40928 c -1.57426,0.006 -3.16272,0.34039 -4.47673,0.97203 -2.1052693,0.33853 -4.2395493,0.40817 -6.3773792,0.43254 v 3.73208 c 6.3318092,-0.0647 11.2843492,-0.39167 17.9456692,-0.0253 -2.3e-4,-0.006 0,-0.008 0,-0.0119 2.39548,0.44289 4.24381,0.69988 4.292761,1.24076 -6.199121,0.0136 -2.024031,5.4642 4.243149,6.07044 5.071261,0.37413 10.174571,-0.86778 15.21768,0.0879 2.844969,0.63198 9.329129,-3.77561 10.700639,-8.42172 l -15.71946,-0.74051 c 2.50448,1.18641 5.906792,-0.2276 7.89926,2.13423 -8.88143,-0.22884 -17.77588,-0.40423 -26.659349,-0.60153 -0.37267,-3.36627 -3.68284,-4.88024 -7.0652,-4.86894 z m 8.18917,12.73926 c -3.16296,0.0429 -6.40418,0.52806 -9.47384,0.44133 2.77427,2.51341 5.63163,0.85709 7.7525,2.12288 2.54487,-0.14636 6.843171,1.17033 7.316341,-0.44857 0.317508,-1.06246 2.28731,-0.12473 3.405478,0.0941 -2.75436,-1.85399 -5.838229,-2.25274 -9.000479,-2.2097 z m 25.499219,0.39018 v 5.3e-4 c 0.12886,0.49098 0.51268,0.8161 1.019572,1.0201 -0.26271,-0.0408 -0.654781,-0.0456 -1.2206,0.009 -0.553942,0.0435 -1.118881,-0.0798 -1.386991,-0.15555 0.677101,1.83771 3.534349,0.69828 2.954859,0.26201 2.353741,0.64855 6.43673,-0.73067 2.371431,-0.86714 -1.24606,-0.0903 -2.492089,-0.18021 -3.738271,-0.26922 z m -5.161439,1.00098 c -3.063039,-0.0335 -7.161641,0.93665 -3.634409,1.89081 1.914289,0.5356 3.93705,-0.9716 6.031158,-1.48515 -0.46991,-0.27192 -1.37578,-0.3945 -2.396749,-0.40566 z"
       id="path4188-6-2-1-5-1-8-0-7-1-9"
       inkscape:connector-curvature="0" />
  </g>
</svg>
