<?xml version="1.0" encoding="UTF-8" standalone="no"?>
<!-- Created with Inkscape (http://www.inkscape.org/) -->

<svg
   xmlns:dc="http://purl.org/dc/elements/1.1/"
   xmlns:cc="http://creativecommons.org/ns#"
   xmlns:rdf="http://www.w3.org/1999/02/22-rdf-syntax-ns#"
   xmlns:svg="http://www.w3.org/2000/svg"
   xmlns="http://www.w3.org/2000/svg"
   xmlns:sodipodi="http://sodipodi.sourceforge.net/DTD/sodipodi-0.dtd"
   xmlns:inkscape="http://www.inkscape.org/namespaces/inkscape"
   width="300"
   height="300"
   viewBox="0 0 79.374998 79.375002"
   version="1.1"
   id="svg1234"
   inkscape:version="0.92.4 (5da689c313, 2019-01-14)"
   sodipodi:docname="na7.svg">
  <defs
     id="defs1228" />
  <sodipodi:namedview
     id="base"
     pagecolor="#ffffff"
     bordercolor="#666666"
     borderopacity="1.0"
     inkscape:pageopacity="0.0"
     inkscape:pageshadow="2"
     inkscape:zoom="0.49497475"
     inkscape:cx="-577.43375"
     inkscape:cy="318.04164"
     inkscape:document-units="px"
     inkscape:current-layer="layer1"
     showgrid="false"
     units="px" />
  <metadata
     id="metadata1231">
    <rdf:RDF>
      <cc:Work
         rdf:about="">
        <dc:format>image/svg+xml</dc:format>
        <dc:type
           rdf:resource="http://purl.org/dc/dcmitype/StillImage" />
        <dc:title></dc:title>
        <dc:creator>
          <cc:Agent>
            <dc:title>Sandie Skeen</dc:title>
          </cc:Agent>
        </dc:creator>
        <dc:rights>
          <cc:Agent>
            <dc:title>Copyright - All rights reserved - Tous droits réservés</dc:title>
          </cc:Agent>
        </dc:rights>
        <dc:description>Toulouse, France</dc:description>
      </cc:Work>
    </rdf:RDF>
  </metadata>
  <g
     inkscape:label="Calque 1"
     inkscape:groupmode="layer"
     id="layer1"
     transform="translate(0,-217.62499)">
    <g
       id="g3875-11-1-0-7-1-3-3-2-8-4-0"
       transform="translate(-1124.2379,477.54816)">
      <rect
         ry="6.8791666"
         rx="6.8791666"
         y="-259.27255"
         x="1124.8885"
         height="78.073769"
         width="78.073769"
         id="rect5205-0-1-9-2-4-3-8-4-9-0-6-7-7-5-6-2-2-8-9-5-6-2-5-8-7-1-980-3-2-6-0-3-5-9-9-0-3-1-2-2-9-5-34"
         style="opacity:1;fill:#ffffff;fill-opacity:1;stroke:#8bf0ec;stroke-width:1.30122089;stroke-miterlimit:4;stroke-dasharray:none;stroke-dashoffset:0;stroke-opacity:1" />
      <rect
         inkscape:export-ydpi="43.548504"
         inkscape:export-xdpi="43.548504"
         inkscape:export-filename="C:\Users\sandi\AndroidStudioProjects\Mnemosis\app\src\main\res\drawable\dos.png"
         transform="rotate(-90)"
         ry="4.7624993"
         rx="4.7624993"
         y="1129.3967"
         x="185.70691"
         height="69.057289"
         width="69.057289"
         id="rect5169-4-0-4-9-7-5-2-3-6-7-2-3-4-7-1-8-9-3-36-4-4-8-1-6-8-6-4-1-4-7-6-5-4-2-5-4-8-8-2-6-6-9-8-9-4-7-4-8"
         style="display:inline;opacity:1;fill:#8bf0ec;fill-opacity:1;stroke:none;stroke-width:2.30172825;stroke-miterlimit:4;stroke-dasharray:none;stroke-dashoffset:0;stroke-opacity:1" />
    </g>
    <path
       style="display:inline;opacity:1;fill:#f9f9f9;fill-opacity:1;stroke:none;stroke-width:11.65884876;stroke-miterlimit:4;stroke-dasharray:none;stroke-dashoffset:0;stroke-opacity:1"
       d="m 27.973288,229.98498 -0.964271,1.26815 c 0.192911,0.14663 0.3815,0.29326 0.563272,0.43976 6.130978,4.94117 7.971869,12.26346 8.972047,12.67158 1.04272,0.48562 6.055072,-2.20583 9.009271,-2.74351 2.381441,-0.58079 4.575919,-0.78679 6.716401,-0.83717 l 0.198429,-1.52495 c -2.628741,-0.33722 -5.22792,-0.6073 -7.964379,-0.65474 -1.669992,0.0704 -3.047571,0.14525 -3.795101,-1.55961 -1.32456,-1.52805 -3.177831,1.04044 -4.042651,-0.31936 -2.474007,-2.72997 -5.521169,-4.87217 -8.693018,-6.74015 z"
       id="path7569-9-7-3-3-4-6-9-7"
       inkscape:connector-curvature="0" />
    <path
       style="display:inline;opacity:1;fill:#f9f9f9;fill-opacity:1;stroke:none;stroke-width:11.65884876;stroke-miterlimit:4;stroke-dasharray:none;stroke-dashoffset:0;stroke-opacity:1"
       d="m 51.688898,255.37971 c -2.32433,0.13973 -8.781891,1.44544 -2.97293,0.8568 2.43377,-0.9311 11.286509,0.83733 4.780069,1.48776 -5.610199,1.57904 -11.390051,1.41904 -17.121429,1.64435 -4.574302,-0.21497 -8.989192,-2.57057 -13.586781,-0.82217 -1.78522,0.65671 -8.122149,0.77929 -3.256649,1.15083 4.459689,0.0585 9.929069,-2.91718 13.5749,0.95912 -5.32257,2.31409 -10.940941,-2.45584 -16.34784,0.25786 -3.14441,-0.0328 -9.5367704,-0.99668 -10.4737906,1.33274 3.4146292,-0.41564 9.3351306,0.56689 11.2974906,2.07326 -3.54173,3.18045 -9.1040204,3.78014 -11.9884007,7.54061 0.5329801,4.07755 5.9975807,-1.77285 9.0061807,-0.38705 5.53969,-0.0615 11.18552,1.49761 16.051709,3.92948 -4.83137,0.0322 -7.16788,5.70156 -11.943449,5.57743 -3.7997,-1.29142 -10.0369404,-5.49221 -12.9692406,-0.99115 5.3240806,-0.39401 9.0829406,3.79792 13.9960696,4.49534 1.153951,-0.24945 6.822281,0.11379 5.53092,-0.39895 -2.261199,-2.67609 4.349571,-7.11935 7.57264,-6.07405 6.681769,1.36443 13.201071,3.547 19.66032,5.71904 5.306751,1.22301 -5.278681,-3.67956 1.16065,-2.1053 5.294181,-1.06984 9.400112,-9.68048 15.13345,-4.31241 2.307849,2.18171 5.182312,3.52129 3.774972,-0.89762 0.219649,-3.62157 -9.351891,-2.77415 -3.611171,-5.58621 2.298909,-0.79273 4.859179,-4.06121 1.094499,-1.64641 -5.38077,3.70057 -12.338201,2.1403 -17.697601,-0.76223 -2.24028,-1.49097 -8.452749,-2.15858 -3.378099,-4.06435 4.82238,-3.18289 10.6739,-0.33414 15.85794,0.19172 2.37363,0.564 10.656332,1.94844 4.838462,-0.47232 -6.081501,-1.44449 -12.300321,-2.72853 -18.594732,-2.47375 -2.476529,-0.72511 -7.41897,-2.37372 -2.044311,-1.46762 4.302072,-0.0999 8.260691,-3.48656 12.633862,-1.70945 3.281249,0.20386 8.269891,4.28916 10.53319,1.78594 -1.515981,-1.84787 -11.202771,-2.43164 -4.41883,-3.61736 2.419799,0.71863 5.57681,0.20139 1.56887,-0.59842 -4.05892,0.63152 -8.626292,1.44385 -11.228252,0.61703 -2.20067,-0.0984 -4.23032,-1.14649 -6.432688,-1.23249 z m -34.207711,0.006 c -3.786349,0.84531 -7.8670394,0.70656 -11.5212497,1.52807 1.9103703,0.20532 7.9335497,0.29998 11.2194697,1.87896 2.46829,0.31841 10.576352,-2.2542 9.779231,-2.1668 -3.23177,0.84242 -6.28943,-1.12172 -9.477451,-1.24023 z m -0.544169,0.40049 c 2.32394,0.11839 8.112389,2.12263 2.58694,2.28514 -2.152041,0.13136 -8.90334,-1.3006 -3.45562,-2.1146 z m 18.081598,0.13849 c -0.127399,-0.003 -0.254579,-0.003 -0.381899,5.3e-4 -0.754431,0.0185 -1.507221,0.14128 -2.256708,0.42168 -2.22808,0.0431 -5.039572,1.2459 -1.053682,0.88728 5.28828,-2.7318 10.606039,3.37316 15.33602,-0.79116 -3.7162,2.2571 -7.69488,-0.43849 -11.643731,-0.51832 z m -13.537169,4.48449 c 2.6216,0.57898 10.59741,2.1072 3.8132,2.435 -2.575479,0.33476 -9.285599,-1.54722 -9.215959,-1.50586 1.857049,0.26281 3.643759,-0.4572 5.402759,-0.92914 z m 17.223241,0.57104 c 3.278428,0.29333 9.983949,0.1496 11.102179,1.03247 -3.93785,2.55356 -8.215231,2.87246 -12.672111,2.59416 -3.613017,2.87967 -12.114209,1.85779 -12.527388,-1.418 4.77928,-0.0624 9.293389,-2.22255 14.09732,-2.20863 z m -18.123431,3.73154 c 2.53148,0.2042 11.68551,2.38233 5.14334,3.36362 -2.65136,0.7313 -8.958579,0.077 -9.33947,-1.53273 1.411471,-0.58384 2.58781,-1.77106 4.19613,-1.83089 z m 18.186481,1.46606 c 7.449579,1.52737 13.37418,7.46499 21.19561,7.82898 -5.504522,1.94873 -11.228412,6.59056 -17.29041,3.86126 -4.486571,-1.86922 -9.948201,-1.03553 -13.616231,-4.57801 -2.222759,-1.72187 -6.581189,-4.16481 -1.32085,-2.93574 4.276719,0.23311 7.046751,-3.53114 11.031881,-4.17649 z"
       id="path1640-6"
       inkscape:connector-curvature="0" />
    <path
       style="display:inline;opacity:1;fill:#747474;fill-opacity:1;stroke:none;stroke-width:11.65884876;stroke-miterlimit:4;stroke-dasharray:none;stroke-dashoffset:0;stroke-opacity:1"
       d="m 17.379108,224.27059 c 2.32527,2.37252 6.608869,4.6863 9.629909,6.98254 l 0.964271,-1.26815 c -3.584251,-2.11085 -7.32827,-3.87056 -10.59418,-5.71439 z m 35.089329,14.98825 -0.198429,1.52495 c 4.167608,-0.0981 8.125769,0.40494 12.827129,-0.0424 -4.664551,-0.31478 -8.680979,-0.97618 -12.6287,-1.48259 z"
       id="path4196"
       inkscape:connector-curvature="0" />
  </g>
</svg>
