<?xml version="1.0" encoding="UTF-8" standalone="no"?>
<!-- Created with Inkscape (http://www.inkscape.org/) -->

<svg
   xmlns:dc="http://purl.org/dc/elements/1.1/"
   xmlns:cc="http://creativecommons.org/ns#"
   xmlns:rdf="http://www.w3.org/1999/02/22-rdf-syntax-ns#"
   xmlns:svg="http://www.w3.org/2000/svg"
   xmlns="http://www.w3.org/2000/svg"
   xmlns:sodipodi="http://sodipodi.sourceforge.net/DTD/sodipodi-0.dtd"
   xmlns:inkscape="http://www.inkscape.org/namespaces/inkscape"
   width="300"
   height="300"
   viewBox="0 0 79.374998 79.375002"
   version="1.1"
   id="svg1234"
   inkscape:version="0.92.4 (5da689c313, 2019-01-14)"
   sodipodi:docname="na8.svg">
  <defs
     id="defs1228" />
  <sodipodi:namedview
     id="base"
     pagecolor="#ffffff"
     bordercolor="#666666"
     borderopacity="1.0"
     inkscape:pageopacity="0.0"
     inkscape:pageshadow="2"
     inkscape:zoom="0.49497475"
     inkscape:cx="-468.81976"
     inkscape:cy="59.199965"
     inkscape:document-units="px"
     inkscape:current-layer="layer1"
     showgrid="false"
     units="px" />
  <metadata
     id="metadata1231">
    <rdf:RDF>
      <cc:Work
         rdf:about="">
        <dc:format>image/svg+xml</dc:format>
        <dc:type
           rdf:resource="http://purl.org/dc/dcmitype/StillImage" />
        <dc:title></dc:title>
        <dc:creator>
          <cc:Agent>
            <dc:title>Sandie Skeen</dc:title>
          </cc:Agent>
        </dc:creator>
        <dc:rights>
          <cc:Agent>
            <dc:title>Copyright - All rights reserved - Tous droits réservés</dc:title>
          </cc:Agent>
        </dc:rights>
        <dc:description>Toulouse, France</dc:description>
      </cc:Work>
    </rdf:RDF>
  </metadata>
  <g
     inkscape:label="Calque 1"
     inkscape:groupmode="layer"
     id="layer1"
     transform="translate(0,-217.62499)">
    <g
       id="g3875-11-1-0-7-1-3-3-2-2"
       transform="translate(-1124.2379,477.54816)">
      <rect
         ry="6.8791666"
         rx="6.8791666"
         y="-259.27255"
         x="1124.8885"
         height="78.073769"
         width="78.073769"
         id="rect5205-0-1-9-2-4-3-8-4-9-0-6-7-7-5-6-2-2-8-9-5-6-2-5-8-7-1-980-3-2-6-0-3-5-9-9-0-3-1-2-2-1"
         style="opacity:1;fill:#ffffff;fill-opacity:1;stroke:#8bf0ec;stroke-width:1.30122089;stroke-miterlimit:4;stroke-dasharray:none;stroke-dashoffset:0;stroke-opacity:1" />
      <rect
         inkscape:export-ydpi="43.548504"
         inkscape:export-xdpi="43.548504"
         inkscape:export-filename="C:\Users\sandi\AndroidStudioProjects\Mnemosis\app\src\main\res\drawable\dos.png"
         transform="rotate(-90)"
         ry="4.7624993"
         rx="4.7624993"
         y="1129.3967"
         x="185.70691"
         height="69.057289"
         width="69.057289"
         id="rect5169-4-0-4-9-7-5-2-3-6-7-2-3-4-7-1-8-9-3-36-4-4-8-1-6-8-6-4-1-4-7-6-5-4-2-5-4-8-8-2-6-6-9-8-9-4-79"
         style="display:inline;opacity:1;fill:#8bf0ec;fill-opacity:1;stroke:none;stroke-width:2.30172825;stroke-miterlimit:4;stroke-dasharray:none;stroke-dashoffset:0;stroke-opacity:1" />
    </g>
    <g
       id="g1580"
       transform="translate(25.898886,-137.08161)">
      <path
         inkscape:connector-curvature="0"
         id="path5154-1-6-2"
         d="m 15.606339,359.9583 -5.29e-4,5.2e-4 c -0.754534,1.38746 -1.628773,3.51511 -2.471153,5.80998 -1.093581,2.97915 -1.350992,3.94152 -2.2102,6.33915 -1.2992311,4.7967 -1.9347411,5.42241 -2.8685611,7.29361 -0.40261,0.80669 -0.80991,1.79631 -1.173579,3.43235 -0.349731,1.57328 -0.391271,4.57258 -0.52192,8.13697 -1.64362,-2.77056 -3.75192,-5.66146 -5.57228097,-8.05636 -6.18481803,-9.40818 -8.07510833,-8.43947 -8.77516833,-9.43818 -0.2158,-0.31206 -0.6646402,-0.29624 -0.4185801,0.416 1.5748,8.80298 -0.69617,10.83587 3.4297704,20.03598 0.84725,1.86817 2.18932,4.36254 3.383758,6.68228 0.64169002,1.2089 0.81095102,2.22854 0.3297,2.21795 -3.177758,-0.25299 -4.464658,1.39634 -9.2340679,1.57252 -2.42427,0.15217 -5.22623,1.83914 -5.90814,2.79517 0.11744,0.43816 1.4433,1.36743 3.25559,2.34921 2.16773,1.19378 4.5074095,2.13926 6.8492099,2.92644 2.19089,0.73643 3.927319,1.17997 4.13928,1.53014 1.035759,2.05426 -0.15923,2.28686 0.29353,3.49798 2.08850903,0.10441 4.244118,-1.32687 6.280228,-1.82263 1.23634,-0.27678 2.25552,-0.47849 3.24217,-0.64699 2.04851,-0.36851 3.4344311,-3.13944 5.0430901,-3.59151 0.006,0 0.01421,0.005 0.0217,0.009 v -0.004 h 0.0258 c 0.613748,1.20885 2.141698,5.53874 3.929483,8.44134 2.08902,3.39179 5.356759,7.21188 9.789588,8.49095 1.784372,0.49913 3.689271,0.58087 5.618271,0.0703 0.254871,-0.0676 0.756521,-1.56372 0.756521,-1.56372 -0.808731,0.062 -1.30347,0.70393 -1.553901,0.73948 -1.669071,0.22985 -3.310469,0.0382 -4.85603,-0.45836 -4.09543,-1.34828 -7.139009,-4.80378 -8.999961,-7.87136 -1.591839,-2.62388 -2.907612,-6.68947 -3.123861,-7.85326 l 0.175188,-5.3e-4 h 5.3e-4 c 3.829933,0.62573 7.411622,2.72559 10.765742,2.95331 1.534081,0.0867 4.47897,1.18169 6.239431,0.94774 1.650309,-0.21934 2.9342,-0.60295 2.971908,-0.92242 0.01521,-0.21236 -0.547558,-0.2938 -1.099688,-0.43563 -0.553381,-0.14221 -1.255101,-1.03584 -1.204042,-1.43196 0.0918,-0.36453 3.305572,-1.60339 6.215621,-3.23236 2.96127,-1.65766 5.66298,-3.70049 5.621891,-4.24573 -0.143881,-0.5262 -4.358511,-0.50739 -7.497202,-0.7829 -2.970429,-0.26077 -5.336598,-0.88969 -9.242848,-0.56482 -0.49824,0.0173 -0.6096,-0.84877 -0.255802,-1.87017 1.353711,-4.14066 2.87165,-6.55327 3.394601,-13.70304 0.0827,-1.5086 -0.0309,-4.05668 0.02529,-6.00842 0.0662,-2.29182 0.324731,-4.75751 1.053711,-7.8543 0.146018,-0.57816 -0.233532,-0.65428 -0.385001,-0.42219 -0.5983,0.91671 -3.689641,5.02489 -4.561469,6.30452 -0.39047,0.60421 -0.80304,1.19351 -1.233541,1.77405 -1.856531,2.57929 -4.168301,4.85367 -6.17066,8.17159 -0.972241,-8.67591 -1.28823,-4.67855 -1.976631,-11.40757 -0.331438,-2.46008 -1.687298,-5.8166 -1.573548,-9.05113 -0.0294,-3.6783 0.11213,-6.63146 0.0367,-9.69915 z"
         style="display:inline;fill:#5cb85c;fill-opacity:1;fill-rule:evenodd;stroke:#ffffff;stroke-width:0.26458332;stroke-linecap:butt;stroke-linejoin:miter;stroke-miterlimit:4;stroke-dasharray:none;stroke-opacity:1" />
      <path
         sodipodi:nodetypes="cccccccccccc"
         inkscape:connector-curvature="0"
         id="path2112"
         d="m 11.738075,406.45145 c -4.1347689,-0.61907 -9.9988769,-13.291 -15.5915539,-22.89109 8.552822,18.75179 11.607973,21.63567 15.0205279,23.78819 -2.5412399,1.90182 -14.1888909,2.27819 -24.816571,0.69429 11.8564261,2.84877 22.0894091,1.55141 25.997896,0.22918 l 0.05736,-0.009 c 4.743701,1.03651 15.197476,0.84223 26.556002,-1.18673 -11.750776,0.47784 -18.43477,1.45325 -25.580351,0.28085 2.940204,-3.10523 10.824382,-14.89908 13.690896,-23.3903 -4.18983,9.37366 -8.859326,16.20433 -14.276906,22.45135 -0.809776,-1.98149 0.179234,-31.79998 -0.139268,-33.89556 -1.602262,16.72582 -0.948368,27.05367 -0.918031,33.92908 z"
         style="color:#000000;font-style:normal;font-variant:normal;font-weight:normal;font-stretch:normal;font-size:medium;line-height:normal;font-family:sans-serif;font-variant-ligatures:normal;font-variant-position:normal;font-variant-caps:normal;font-variant-numeric:normal;font-variant-alternates:normal;font-feature-settings:normal;text-indent:0;text-align:start;text-decoration:none;text-decoration-line:none;text-decoration-style:solid;text-decoration-color:#000000;letter-spacing:normal;word-spacing:normal;text-transform:none;writing-mode:lr-tb;direction:ltr;text-orientation:mixed;dominant-baseline:auto;baseline-shift:baseline;text-anchor:start;white-space:normal;shape-padding:0;clip-rule:nonzero;display:inline;overflow:visible;visibility:visible;opacity:1;isolation:auto;mix-blend-mode:normal;color-interpolation:sRGB;color-interpolation-filters:linearRGB;solid-color:#000000;solid-opacity:1;vector-effect:none;fill:#7bc87b;fill-opacity:1;fill-rule:nonzero;stroke:none;stroke-width:1.05833328;stroke-linecap:butt;stroke-linejoin:miter;stroke-miterlimit:4;stroke-dasharray:none;stroke-dashoffset:0;stroke-opacity:1;color-rendering:auto;image-rendering:auto;shape-rendering:auto;text-rendering:auto;enable-background:accumulate" />
    </g>
  </g>
</svg>
