<?xml version="1.0" encoding="UTF-8" standalone="no"?>
<!-- Created with Inkscape (http://www.inkscape.org/) -->

<svg
   xmlns:dc="http://purl.org/dc/elements/1.1/"
   xmlns:cc="http://creativecommons.org/ns#"
   xmlns:rdf="http://www.w3.org/1999/02/22-rdf-syntax-ns#"
   xmlns:svg="http://www.w3.org/2000/svg"
   xmlns="http://www.w3.org/2000/svg"
   xmlns:sodipodi="http://sodipodi.sourceforge.net/DTD/sodipodi-0.dtd"
   xmlns:inkscape="http://www.inkscape.org/namespaces/inkscape"
   width="300"
   height="300"
   viewBox="0 0 79.374998 79.375002"
   version="1.1"
   id="svg1234"
   inkscape:version="0.92.4 (5da689c313, 2019-01-14)"
   sodipodi:docname="na9.svg">
  <defs
     id="defs1228" />
  <sodipodi:namedview
     id="base"
     pagecolor="#ffffff"
     bordercolor="#666666"
     borderopacity="1.0"
     inkscape:pageopacity="0.0"
     inkscape:pageshadow="2"
     inkscape:zoom="0.35"
     inkscape:cx="-612.23586"
     inkscape:cy="132.93156"
     inkscape:document-units="px"
     inkscape:current-layer="layer1"
     showgrid="false"
     units="px" />
  <metadata
     id="metadata1231">
    <rdf:RDF>
      <cc:Work
         rdf:about="">
        <dc:format>image/svg+xml</dc:format>
        <dc:type
           rdf:resource="http://purl.org/dc/dcmitype/StillImage" />
        <dc:title></dc:title>
        <dc:creator>
          <cc:Agent>
            <dc:title>Sandie Skeen</dc:title>
          </cc:Agent>
        </dc:creator>
        <dc:rights>
          <cc:Agent>
            <dc:title>Copyright - All rights reserved - Tous droits réservés</dc:title>
          </cc:Agent>
        </dc:rights>
        <dc:description>Toulouse, France</dc:description>
      </cc:Work>
    </rdf:RDF>
  </metadata>
  <g
     inkscape:label="Calque 1"
     inkscape:groupmode="layer"
     id="layer1"
     transform="translate(0,-217.62499)">
    <rect
       style="opacity:1;fill:#ffffff;fill-opacity:1;stroke:#8bf0ec;stroke-width:1.30122089;stroke-miterlimit:4;stroke-dasharray:none;stroke-dashoffset:0;stroke-opacity:1"
       id="rect5205-0-1-9-2-4-3-8-4-9-0-6-7-7-5-6-2-2-8-9-5-6-2-5-8-7-1-980-3-2-6-0-3-5-9-9-0-3-1"
       width="78.073769"
       height="78.073769"
       x="0.65061045"
       y="218.2756"
       rx="6.8791666"
       ry="6.8791666" />
    <rect
       style="display:inline;opacity:1;fill:#8bf0ec;fill-opacity:1;stroke:none;stroke-width:2.30172801;stroke-miterlimit:4;stroke-dasharray:none;stroke-dashoffset:0;stroke-opacity:1"
       id="rect5169-4-0-4-9-7-5-2-3-6-7-2-3-4-7-1-8-9-3-36-4-4-8-1-6-8-6-4-1-4-7-6-5-4-2-5-4-8-8-2-6-6-9-8"
       width="69.057289"
       height="69.057289"
       x="-291.84131"
       y="5.1587276"
       rx="4.7624993"
       ry="4.7624993"
       transform="rotate(-90)"
       inkscape:export-filename="C:\Users\sandi\AndroidStudioProjects\Mnemosis\app\src\main\res\drawable\dos.png"
       inkscape:export-xdpi="43.548504"
       inkscape:export-ydpi="43.548504" />
    <path
       style="display:inline;opacity:1;fill:#5cb85c;fill-opacity:1;stroke:#ffffff;stroke-width:0.26458332;stroke-miterlimit:4;stroke-dasharray:none;stroke-dashoffset:0;stroke-opacity:1"
       d="m 28.573545,222.45694 c -3.217971,0.3842 -1.102212,6.0401 -4.233411,5.8425 -2.68298,-0.3305 0.50935,-0.04 1.17927,0.9377 0.15555,0.227 0.0963,0.4857 0.09,0.8649 -0.0555,1.1066 -0.28512,4.6031 -0.12075,6.5369 -0.0219,5.1191 2.272239,6.0263 -0.24748,7.3479 -2.84801,0.9689 0.69095,-0.4781 1.53449,0.7098 0.143269,0.2019 0.32416,0.4218 0.25926,0.8046 0.55332,1.5695 0.766879,2.6073 -0.295989,3.3116 -2.264501,0.9562 -3.130851,3.7876 -3.264311,1.1763 -0.12555,-3.0277 -2.54517,-6.2753 -1.82158,-9.0245 1.06821,-0.667 2.4221,-1.3502 0.48424,-0.5043 -2.6272,0.8992 -3.56499,-3.2219 -4.74608,-4.7289 -1.99193,-2.3357 -5.50331,-6.227 -7.6154899,-5.453 -2.1121698,0.774 1.4130899,6.0814 -2.5823198,6.3268 0.6842599,-0.033 1.3886598,-0.05 1.8885001,0.2747 1.1958396,2.2213 2.4816496,4.5031 3.5898796,6.2983 1.26494,2.57 3.77474,3.6598 4.29854,5.5944 -0.5774,1.1823 -1.93863,2.695 -0.2741,0.8838 2.19117,-1.6349 4.31025,2.2558 6.22962,3.1531 -2.32062,3.9401 -3.19606,8.4861 -4.25055,12.863 -0.47864,0.6215 -1.8453,0.4713 -2.3017,0.3948 0.15497,0.03 0.42129,0.087 0.9685,0.2244 2.63984,1.1909 0.91765,4.9716 1.04488,7.6321 0.20656,4.1979 1.50401,8.2288 2.98605,12.1218 0.29622,0.8902 -1.02912,1.5535 -1.6138,1.7896 0.17199,-0.058 0.42757,-0.1381 0.79921,-0.2474 3.32837,-0.9446 1.75974,6.0953 5.56126,4.2795 2.27669,-0.601 6.36349,1.6687 6.905711,-1.4367 1.292659,-2.2202 1.050528,-5.1371 3.084338,-5.749 1.342292,0.2769 2.631281,0.6594 0.621001,-0.069 -2.417361,-1.2956 0.55708,-4.5533 0.132019,-6.7867 -0.207558,-2.4172 4.995561,-0.8915 1.584812,-1.612 -2.57778,-0.8805 -0.857401,-4.539 -1.249151,-6.8678 -0.10781,-2.6603 -0.338011,-5.3181 -0.760101,-7.9476 1.58763,-1.349 4.23903,-2.6335 5.424512,-1.9176 -0.676363,-1.9353 2.85219,-2.8317 3.926128,-4.3038 1.10527,-1.4692 3.06065,-3.5532 4.3731,-3.3874 0.155871,0.1715 0.36092,0.3358 0.62398,0.4913 0.223591,0.1757 0.359222,0.2724 0.230319,0.1202 -0.129669,-0.2192 -0.28235,-0.374 -0.451127,-0.4748 -0.0831,-0.086 -0.0883,-0.097 -0.199502,-0.2102 -0.48768,-0.5857 -0.573029,-1.1874 -0.424449,-1.786 0.51318,-1.3028 1.95712,-2.7428 2.34551,-4.0203 1.260689,-1.6954 1.22978,-5.5767 -0.911101,-5.4808 -0.396481,0.018 -0.865568,0.1718 -1.41192,0.5015 -1.16182,0.7814 -2.200359,2.9624 -3.19976,2.6746 -0.009,0 -0.0123,0 -0.02119,0 -0.222027,-0.077 -0.439959,-0.2069 -0.65178,-0.4038 -1.247507,-1.3658 -0.408868,-0.338 0.207772,0.5761 -0.0343,0.2146 -0.0903,0.4236 -0.16339,0.6281 -2.3e-4,0 -2.6e-4,1e-4 0,0 -0.498991,0.7213 -1.10091,0.6423 -3.03756,2.9541 -0.746299,1.2862 -1.879341,2.435 -3.10447,2.1922 -0.109881,-0.077 -0.215101,-0.1514 -0.31968,-0.2268 -0.25645,-0.2634 -0.622289,-0.5133 -1.124201,-0.7465 0.291361,0.352 0.5833,0.5942 0.873201,0.7578 0.0667,0.062 0.0653,0.064 0.146831,0.1397 0.440579,0.4797 0.587518,0.985 0.546989,1.4996 -0.244412,1.0764 -1.22718,2.2511 -1.810941,3.3921 -0.83286,1.1566 -1.53729,3.5361 -2.266159,4.8136 -0.815911,-1.0467 -0.671721,-3.0005 -1.2965,-4.5845 -1.28828,-3.266 -3.576159,-4.4369 -5.242791,-6.4777 1.458072,-3.6191 2.631131,-7.3948 2.89374,-11.3096 0.0962,-1.7538 0.47615,-0.8328 2.378041,-0.9389 1.901931,-0.1061 -2.31358,0.3017 -2.26024,-2.1128 0.169889,-2.9269 -0.653751,-5.902 -0.899861,-8.7001 1.642732,-1.0732 1.420262,-0.6261 -0.29064,-0.3807 -0.771559,-0.857 -1.332539,-2.271 -2.746309,-2.2188 v 0 z m 13.28928,37.0244 c 0.0968,0.277 0.27972,0.575 0.568327,0.8993 -0.0782,-0.4367 -0.280868,-0.7257 -0.568327,-0.8993 z"
       id="path4796-6-8-9-7"
       inkscape:connector-curvature="0"
       inkscape:export-filename="C:\Users\Sid\AndroidStudioProjects\Mnemosismemorygame\app\src\main\res\drawable\z_na20.png"
       inkscape:export-xdpi="43.548344"
       inkscape:export-ydpi="43.548344" />
    <path
       style="display:inline;opacity:1;fill:#ffc9ff;fill-opacity:1;fill-rule:nonzero;stroke:#ffffff;stroke-width:0.26458332;stroke-linejoin:miter;stroke-miterlimit:4;stroke-dasharray:none;stroke-opacity:1"
       d="m 10.059464,238.28324 c -2.4518298,0.3377 0.94086,3.2458 -1.5962499,2.328 -1.6330798,1.0957 1.1587202,3.3413 1.9812599,1.5621 -2.0018598,2.7836 2.69527,1.6512 2.53485,0.9232 1.34163,0.1603 1.81458,-0.5248 1.71602,-1.0413 -0.1228,-0.6436 -1.19842,-1.0746 -1.0724,-1.4467 0.89013,-1.9982 -2.50417,-3.1771 -2.11758,-0.7155 -0.0667,-0.734 -0.22938,-1.7773 -1.4459,-1.6098 z"
       id="path5634-5-1-5-7-8-8-0-5-0-2-4-2"
       inkscape:connector-curvature="0"
       sodipodi:nodetypes="scccsccs" />
    <path
       style="display:inline;opacity:1;fill:#ffc9ff;fill-opacity:1;fill-rule:nonzero;stroke:#ffffff;stroke-width:0.26458332;stroke-linejoin:miter;stroke-miterlimit:4;stroke-dasharray:none;stroke-opacity:1"
       d="m 27.155635,228.89514 c -1.759711,-1.7492 -1.451421,3.0611 -2.745291,0.6859 -1.95392,-0.2632 -1.35139,3.2777 0.44856,2.4892 -3.35253,0.7583 0.92508,3.0307 1.28862,2.3777 1.613171,2.3811 2.44936,-2.1828 2.136739,-1.4392 2.731172,0.2576 0.232592,-4.0487 -1.113489,-1.9446 0.42844,-0.6084 1.211559,-1.9253 -0.01511,-2.169 z"
       id="path5634-5-1-5-7-8-8-0-5-0-2-4-2-6"
       inkscape:connector-curvature="0" />
    <path
       style="display:inline;opacity:1;fill:#ffc9ff;fill-opacity:1;fill-rule:nonzero;stroke:#ffffff;stroke-width:0.26458332;stroke-linejoin:miter;stroke-miterlimit:4;stroke-dasharray:none;stroke-opacity:1"
       d="m 17.792334,257.76574 c -2.41572,0.9909 2.34063,2.5108 -0.34835,2.9947 -0.98495,1.8169 2.77773,2.8015 2.67714,0.5557 -1.32321,3.2454 4.89951,1.0014 1.83443,-0.6393 3.28685,1.6737 1.69586,-3.9853 0.36103,-2.1817 0.93435,-4.2001 -3.29047,-0.8202 -2.63017,-0.3609 -0.24729,-0.8787 -1.30585,-0.9007 -1.89408,-0.3685 z"
       id="path5634-5-1-5-7-8-8-0-5-0-2-4-2-5"
       inkscape:connector-curvature="0" />
    <path
       style="display:inline;opacity:1;fill:#5cb85c;fill-opacity:1;stroke:#ffffff;stroke-width:0.26458332;stroke-miterlimit:4;stroke-dasharray:none;stroke-dashoffset:0;stroke-opacity:1"
       d="m 66.105672,248.57984 h -0.0021 c -1.413772,-0.052 -1.974533,1.362 -2.746082,2.219 -1.710899,-0.2454 -1.933681,-0.6929 -0.290941,0.3803 -0.246107,2.7981 -1.069567,5.7734 -0.899689,8.7002 0.0533,2.4146 -4.162258,2.007 -2.26033,2.1131 1.901902,0.1061 2.281949,-0.8149 2.378152,0.939 0.262599,3.9147 1.435819,7.6902 2.893877,11.3093 -1.666629,2.0408 -3.954798,3.2116 -5.243089,6.4777 -0.624779,1.584 -0.480639,3.538 -1.296559,4.5847 -0.728871,-1.2774 -1.433139,-3.657 -2.266021,-4.8136 -0.58375,-1.141 -1.56631,-2.3156 -1.810729,-3.3921 -0.0405,-0.5145 0.106151,-1.0199 0.54673,-1.4996 0.0815,-0.075 0.0801,-0.078 0.146769,-0.1401 0.289901,-0.1635 0.58197,-0.4056 0.873332,-0.7575 -0.501912,0.2331 -0.868043,0.4832 -1.124482,0.7467 -0.10459,0.075 -0.209489,0.149 -0.319371,0.2263 -1.225129,0.2428 -2.358419,-0.9059 -3.104697,-2.1921 -1.936671,-2.3117 -2.538582,-2.2325 -3.037552,-2.9538 2.59e-4,0 2.41e-4,0 0,0 -0.0731,-0.2045 -0.129008,-0.4138 -0.163298,-0.6284 0.61663,-0.9141 1.455258,-1.9416 0.207748,-0.5757 -0.211831,0.1968 -0.42963,0.327 -0.65165,0.4036 -0.009,0 -0.0122,0.001 -0.02119,0 -0.999411,0.2878 -2.03798,-1.8933 -3.199821,-2.6748 -0.54633,-0.3296 -1.015309,-0.4834 -1.41179,-0.5012 -2.140871,-0.096 -2.17175,3.7853 -0.911061,5.4808 0.388411,1.2775 1.832422,2.7171 2.345611,4.0199 0.14856,0.5986 0.0629,1.2007 -0.424789,1.7864 -0.111202,0.1134 -0.116361,0.1239 -0.199472,0.2098 -0.16878,0.1008 -0.321469,0.2557 -0.451138,0.475 -0.128882,0.1522 0.007,0.056 0.230478,-0.1199 0.26307,-0.1556 0.46786,-0.3199 0.623731,-0.4915 1.312461,-0.1658 3.268099,1.9182 4.37337,3.3874 1.073949,1.4722 4.60225,2.3683 3.925861,4.3036 1.1855,-0.7159 3.836858,0.5688 5.424487,1.9177 -0.229999,1.4329 -0.401367,2.8742 -0.528658,4.3197 h 11.741409 c 2.63843,0 4.7625,-2.1241 4.7625,-4.7625 v -2.3296 c -0.61767,-2.0179 -1.382469,-3.9831 -2.462369,-5.8167 0.789811,-0.3692 1.6138,-1.2441 2.462369,-2.0335 v -10.4582 c -0.473631,0.2789 -1.021419,0.3659 -1.673799,0.1426 -1.937869,-0.8459 -0.583991,-0.1632 0.484209,0.5038 0.723579,2.7492 -1.69603,5.9971 -1.821599,9.0248 -0.133461,2.6113 -0.999892,-0.22 -3.26441,-1.1762 -1.06285,-0.7043 -0.849421,-1.7424 -0.29609,-3.3119 -0.0649,-0.3827 0.116149,-0.6028 0.259419,-0.8046 0.843549,-1.1879 4.38227,0.2594 1.534271,-0.7095 -2.519741,-1.3217 -0.22564,-2.2288 -0.247521,-7.3479 0.16436,-1.9339 -0.0649,-5.4305 -0.120409,-6.5371 -0.006,-0.3792 -0.0656,-0.638 0.0899,-0.865 0.669931,-0.9777 3.862229,-1.2679 1.179248,-0.9374 -3.13118,0.1975 -1.015338,-5.4584 -4.233328,-5.8426 z m -13.289629,37.0241 c -0.287441,0.1736 -0.49022,0.463 -0.568428,0.8997 0.288607,-0.3243 0.471649,-0.6228 0.568428,-0.8997 z"
       id="path4796-6-8-9-7-0"
       inkscape:connector-curvature="0" />
    <path
       style="display:inline;opacity:1;fill:#ffc9ff;fill-opacity:1;fill-rule:nonzero;stroke:#ffffff;stroke-width:0.26458332;stroke-linejoin:miter;stroke-miterlimit:4;stroke-dasharray:none;stroke-opacity:1"
       d="m 62.129723,263.23954 c -2.41572,0.991 2.340631,2.5108 -0.348351,2.9947 -0.984948,1.8169 2.777731,2.8015 2.677142,0.5557 -1.32321,3.2454 4.899509,1.0014 1.83443,-0.6392 3.28685,1.6736 1.69586,-3.9854 0.36103,-2.1818 0.934349,-4.2001 -3.29047,-0.8202 -2.63017,-0.3609 -0.247291,-0.8787 -1.305851,-0.9006 -1.894081,-0.3685 z"
       id="path5634-5-1-5-7-8-8-0-5-0-2-4-2-5-5"
       inkscape:connector-curvature="0" />
    <path
       style="display:inline;opacity:1;fill:#ffc9ff;fill-opacity:1;fill-rule:nonzero;stroke:#ffffff;stroke-width:0.26458332;stroke-linejoin:miter;stroke-miterlimit:4;stroke-dasharray:none;stroke-opacity:1"
       d="m 50.790443,273.44494 c -2.41572,0.9909 2.340631,2.5108 -0.34835,2.9946 -0.984949,1.817 2.777731,2.8016 2.677141,0.5558 -1.32321,3.2454 4.899509,1.0014 1.834431,-0.6393 3.28685,1.6736 1.69586,-3.9854 0.361029,-2.1818 0.934349,-4.2 -3.29047,-0.8201 -2.63017,-0.3608 -0.24729,-0.8787 -1.305851,-0.9007 -1.894081,-0.3685 z"
       id="path5634-5-1-5-7-8-8-0-5-0-2-4-2-5-3"
       inkscape:connector-curvature="0" />
  </g>
</svg>
