<?xml version="1.0" encoding="UTF-8" standalone="no"?>
<!-- Created with Inkscape (http://www.inkscape.org/) -->

<svg
   xmlns:dc="http://purl.org/dc/elements/1.1/"
   xmlns:cc="http://creativecommons.org/ns#"
   xmlns:rdf="http://www.w3.org/1999/02/22-rdf-syntax-ns#"
   xmlns:svg="http://www.w3.org/2000/svg"
   xmlns="http://www.w3.org/2000/svg"
   xmlns:sodipodi="http://sodipodi.sourceforge.net/DTD/sodipodi-0.dtd"
   xmlns:inkscape="http://www.inkscape.org/namespaces/inkscape"
   width="286.29199"
   height="59.014999"
   viewBox="0 0 75.748087 15.614386"
   version="1.1"
   id="svg1074"
   inkscape:version="0.92.4 (5da689c313, 2019-01-14)"
   sodipodi:docname="logo.svg">
  <defs
     id="defs1068" />
  <sodipodi:namedview
     id="base"
     pagecolor="#ffffff"
     bordercolor="#666666"
     borderopacity="1.0"
     inkscape:pageopacity="0.0"
     inkscape:pageshadow="2"
     inkscape:zoom="1.4"
     inkscape:cx="165.51943"
     inkscape:cy="0.089069857"
     inkscape:document-units="px"
     inkscape:current-layer="layer1"
     showgrid="false"
     units="px" />
  <metadata
     id="metadata1071">
    <rdf:RDF>
      <cc:Work
         rdf:about="">
        <dc:format>image/svg+xml</dc:format>
        <dc:type
           rdf:resource="http://purl.org/dc/dcmitype/StillImage" />
        <dc:title></dc:title>
        <dc:creator>
          <cc:Agent>
            <dc:title>Sandie Skeen</dc:title>
          </cc:Agent>
        </dc:creator>
        <dc:rights>
          <cc:Agent>
            <dc:title>Copyright - All rights reserved - Tous droits réservés</dc:title>
          </cc:Agent>
        </dc:rights>
        <dc:description>Toulouse, France</dc:description>
      </cc:Work>
    </rdf:RDF>
  </metadata>
  <g
     inkscape:label="Calque 1"
     inkscape:groupmode="layer"
     id="layer1"
     transform="translate(0,-281.3856)">
    <path
       style="font-style:normal;font-variant:normal;font-weight:normal;font-stretch:normal;font-size:6.3499999px;line-height:1.25;font-family:'Roboto Condensed';-inkscape-font-specification:'Roboto Condensed, ';letter-spacing:0px;word-spacing:0px;fill:#4c4c4c;fill-opacity:1;stroke:none;stroke-width:1.01409507;stroke-miterlimit:4;stroke-dasharray:none;stroke-opacity:1"
       d="M 5.4824219 0 C 2.4785659 0 0 2.478529 0 5.4824219 L 0 53.539062 C 0 56.542993 2.4785659 59.015625 5.4824219 59.015625 L 53.539062 59.015625 C 56.543012 59.015625 59.013672 56.542993 59.013672 53.539062 L 59.013672 5.4824219 C 59.013672 2.478529 56.543012 0 53.539062 0 L 5.4824219 0 z M 255.39062 0.001953125 L 255.39062 8.8535156 C 255.39063 9.3106117 255.41145 9.9029598 255.45312 10.628906 C 255.49483 11.354853 255.53645 11.925041 255.57812 12.341797 L 255.39062 12.341797 C 255.05717 11.683076 254.64601 11.098757 254.15625 10.587891 C 253.66649 10.063569 253.08162 9.6470812 252.4043 9.3378906 C 251.72697 9.0286749 250.93587 8.8730469 250.0293 8.8730469 C 247.8827 8.8730469 246.16322 9.8475459 244.87109 11.796875 C 243.57896 13.732799 242.93359 16.603655 242.93359 20.408203 C 242.93359 24.172461 243.56335 27.008955 244.82422 28.917969 C 246.09551 30.826958 247.81498 31.78125 249.98242 31.78125 C 250.90984 31.78125 251.71135 31.62755 252.38867 31.318359 C 253.07642 30.995714 253.66649 30.56512 254.15625 30.027344 C 254.65643 29.489618 255.06759 28.891168 255.39062 28.232422 L 255.5 28.232422 L 255.89062 31.378906 L 257.98438 31.378906 L 257.98438 0.001953125 L 255.39062 0.001953125 z M 99.058594 0.4765625 C 98.006071 0.4765625 97.134521 0.75208241 96.441406 1.3027344 C 95.773916 1.8258462 95.439453 2.5695496 95.439453 3.5332031 C 95.439453 4.4417763 95.76053 5.1585036 96.402344 5.6816406 C 97.069783 6.1772123 97.916487 6.4238281 98.943359 6.4238281 C 99.995882 6.4238281 100.85595 6.1772123 101.52344 5.6816406 C 102.19088 5.1585036 102.52539 4.4148002 102.52539 3.4511719 C 102.52539 2.5150585 102.20426 1.7848558 101.5625 1.2617188 C 100.94636 0.73860694 100.11114 0.4765625 99.058594 0.4765625 z M 264.78516 1.0097656 C 264.33708 1.0097656 263.96039 1.1917017 263.6582 1.5546875 C 263.36643 1.9042182 263.2207 2.4541998 263.2207 3.2070312 C 263.2207 3.946458 263.36643 4.4983423 263.6582 4.8613281 C 263.96039 5.2243139 264.33708 5.40625 264.78516 5.40625 C 265.21239 5.40625 265.57672 5.2243139 265.87891 4.8613281 C 266.19152 4.4983423 266.34766 3.946458 266.34766 3.2070312 C 266.34766 2.4541998 266.19152 1.9042182 265.87891 1.5546875 C 265.57672 1.1917017 265.21239 1.0097656 264.78516 1.0097656 z M 123.45508 1.3027344 L 117.56445 1.9648438 L 117.56445 9.3144531 C 116.84564 9.0942327 115.9588 8.984375 114.90625 8.984375 C 111.72298 8.984375 109.33578 9.9766222 107.74414 11.958984 C 106.15251 13.941347 105.35742 16.708043 105.35742 20.259766 C 105.35742 23.673813 105.94803 26.45401 107.12891 28.601562 C 108.30981 30.721575 110.22105 31.78125 112.86523 31.78125 C 113.99478 31.78125 115.00971 31.548135 115.9082 31.080078 C 116.8324 30.639562 117.53766 29.951738 118.02539 29.015625 C 118.25647 29.814063 118.6922 30.432505 119.33398 30.873047 C 119.97575 31.286023 120.77279 31.492188 121.72266 31.492188 C 122.28742 31.492187 122.83979 31.38233 123.37891 31.162109 C 123.94367 30.969379 124.36606 30.680383 124.64844 30.294922 C 124.21223 29.854405 123.90451 29.34577 123.72461 28.767578 C 123.5447 28.189386 123.45508 27.515063 123.45508 26.744141 L 123.45508 1.3027344 z M 201.74609 1.4726562 C 200.3185 1.4726562 199.05183 1.775883 197.94727 2.3808594 C 196.85312 2.9723554 195.99436 3.8316651 195.36914 4.9609375 C 194.75434 6.0768052 194.44727 7.4212524 194.44727 8.9941406 C 194.44727 10.136868 194.57216 11.151781 194.82227 12.039062 C 195.08277 12.926344 195.46271 13.706705 195.96289 14.378906 C 196.46307 15.051083 197.08242 15.655633 197.82227 16.193359 C 198.56212 16.717681 199.41762 17.202843 200.38672 17.646484 C 201.76221 18.278346 202.84672 18.87677 203.63867 19.441406 C 204.44104 19.992587 205.01355 20.60929 205.35742 21.294922 C 205.70129 21.967123 205.87305 22.808129 205.87305 23.816406 C 205.87305 24.865024 205.66486 25.7667 205.24805 26.519531 C 204.84165 27.258958 204.24117 27.829121 203.44922 28.232422 C 202.65727 28.622268 201.68921 28.818359 200.54297 28.818359 C 199.31336 28.818359 198.13517 28.642499 197.00977 28.292969 C 195.88437 27.929983 194.93192 27.539803 194.15039 27.123047 L 194.15039 30.410156 C 194.64015 30.705766 195.20745 30.954423 195.85352 31.15625 C 196.49958 31.357875 197.20741 31.513503 197.97852 31.621094 C 198.74962 31.728684 199.5687 31.78125 200.43359 31.78125 C 202.06959 31.78125 203.49241 31.459744 204.70117 30.814453 C 205.90994 30.169162 206.84677 29.235101 207.51367 28.011719 C 208.191 26.774906 208.5293 25.282835 208.5293 23.535156 L 208.5293 23.533203 C 208.5293 21.97372 208.28468 20.689893 207.79492 19.681641 C 207.30517 18.659908 206.59213 17.800649 205.6543 17.101562 C 204.71646 16.389046 203.5747 15.715821 202.23047 15.083984 C 201.00086 14.505893 200.01199 13.955937 199.26172 13.431641 C 198.52187 12.893889 197.97864 12.281335 197.63477 11.595703 C 197.30131 10.910046 197.13477 10.050762 197.13477 9.015625 C 197.13477 8.088003 197.31172 7.2874107 197.66602 6.6152344 C 198.02031 5.9430328 198.53231 5.4254606 199.19922 5.0625 C 199.87655 4.6860591 200.70408 4.4980469 201.68359 4.4980469 C 202.66311 4.4980469 203.6123 4.6456204 204.5293 4.9414062 C 205.45671 5.2371417 206.33109 5.6071403 207.1543 6.0507812 L 207.98242 3.1054688 C 207.11753 2.6080577 206.16509 2.2117763 205.12305 1.9160156 C 204.09143 1.620255 202.96528 1.4726562 201.74609 1.4726562 z M 84.439453 2.7890625 C 82.822143 2.7890625 81.319874 3.0934865 79.933594 3.6992188 C 78.573014 4.2774109 77.481649 5.1444222 76.660156 6.3007812 C 75.838689 7.4571655 75.427734 8.8462874 75.427734 10.470703 C 75.427734 11.902413 75.724041 13.143204 76.314453 14.189453 C 76.930592 15.235702 77.662597 16.102713 78.509766 16.791016 C 79.382585 17.479343 80.512157 18.263498 81.898438 19.144531 C 83.053663 19.887939 83.976807 20.535286 84.669922 21.085938 C 85.363037 21.609049 85.940234 22.240992 86.402344 22.984375 C 86.864429 23.700218 87.095703 24.526777 87.095703 25.462891 C 87.095703 26.509139 86.774601 27.349175 86.132812 27.982422 C 85.491024 28.588154 84.657707 28.890625 83.630859 28.890625 C 81.423086 28.890625 80.318359 27.459098 80.318359 24.595703 C 80.318359 23.989971 80.407985 23.259768 80.587891 22.40625 C 80.10013 22.103384 79.433106 21.953125 78.585938 21.953125 C 77.456388 21.953125 76.519857 22.324977 75.775391 23.068359 C 75.056575 23.811742 74.697266 24.788535 74.697266 26 C 74.697266 28.037417 75.505737 29.511349 77.123047 30.419922 C 78.766033 31.328495 80.780517 31.78125 83.167969 31.78125 C 86.043181 31.78125 88.38072 31.093427 90.177734 29.716797 C 91.974749 28.312627 92.873047 26.247229 92.873047 23.521484 C 92.873047 22.062259 92.565332 20.809921 91.949219 19.763672 C 91.358781 18.717423 90.62675 17.850412 89.753906 17.162109 C 88.906763 16.473782 87.788624 15.689627 86.402344 14.808594 C 85.221443 14.065186 84.284937 13.431315 83.591797 12.908203 C 82.924332 12.385091 82.360523 11.764696 81.898438 11.048828 C 81.436378 10.305445 81.205078 9.4673634 81.205078 8.53125 C 81.205078 7.6226768 81.447811 6.919425 81.935547 6.4238281 C 82.448983 5.9282565 83.129394 5.6816406 83.976562 5.6816406 C 84.952084 5.6816406 85.659294 5.9976121 86.095703 6.6308594 C 86.557788 7.2365665 86.789062 8.0900771 86.789062 9.1914062 C 86.789062 10.099979 86.697484 10.89761 86.517578 11.585938 C 87.05669 11.888778 87.725642 12.041016 88.521484 12.041016 C 89.676684 12.041016 90.613216 11.709616 91.332031 11.048828 C 92.050847 10.388041 92.410156 9.4536269 92.410156 8.2421875 C 92.410156 6.3149056 91.639918 4.9238306 90.099609 4.0703125 C 88.559301 3.2167944 86.672877 2.7890625 84.439453 2.7890625 z M 18.140625 3.5625 L 28.283203 3.5625 C 29.284298 6.472396 30.160581 8.5042478 30.822266 9.6445312 C 30.917948 9.8376651 31.009262 10.012951 31.103516 10.201172 C 32.683275 9.4048254 34.599179 8.3806992 36.863281 7.0664062 C 37.289499 6.8726559 37.884146 6.5305586 38.613281 6.0644531 C 36.992132 5.3455218 35.232748 4.5323555 33.306641 3.6035156 C 33.278067 3.592177 33.248264 3.5768622 33.21875 3.5625 L 42.166016 3.5625 C 40.749179 4.6193408 39.547995 5.4680458 38.615234 6.0644531 C 42.700914 7.8763285 45.815837 9.0371653 47.816406 9.546875 C 50.71287 10.474182 53.23434 11.214115 55.449219 11.826172 L 55.449219 51.732422 C 55.23662 51.328579 55.0289 50.931346 54.804688 50.507812 C 52.446236 46.117173 49.800768 41.619998 46.582031 36.291016 C 43.484399 31.179847 41.804882 28.564341 38.146484 22.570312 C 36.952882 20.618753 35.658438 18.471058 34.320312 16.150391 C 33.36901 14.519524 32.274649 12.532914 31.103516 10.201172 C 30.954137 10.275629 30.791153 10.360208 30.648438 10.431641 C 28.404328 11.564403 26.32726 12.563422 24.449219 13.441406 C 23.581032 13.847857 22.72457 14.240674 21.869141 14.634766 C 20.827678 10.291635 19.581097 6.6072874 18.140625 3.5625 z M 50.912109 3.5625 L 53.539062 3.5625 C 54.631078 3.5625 55.451172 4.3904786 55.451172 5.4824219 L 55.451172 7.8964844 C 54.100097 6.9532655 52.58898 5.515911 50.912109 3.5625 z M 214.0625 4.1542969 L 213.03125 8.953125 L 210.57812 10.265625 L 210.57812 11.898438 L 213.01562 11.898438 L 213.01562 25.005859 C 213.01562 26.740108 213.23422 28.098686 213.67188 29.080078 C 214.11995 30.061445 214.71523 30.759025 215.45508 31.175781 C 216.19493 31.579082 217.01726 31.78125 217.92383 31.78125 C 218.43443 31.78125 218.95489 31.720554 219.48633 31.599609 C 220.02819 31.478715 220.45172 31.331116 220.75391 31.15625 L 220.75391 28.554688 C 220.47255 28.689239 220.10628 28.804201 219.6582 28.898438 C 219.21013 28.992674 218.77294 29.039062 218.3457 29.039062 C 217.52249 29.039062 216.86151 28.695372 216.36133 28.009766 C 215.87157 27.324134 215.62695 26.289015 215.62695 24.904297 L 215.62695 11.898438 L 220.64453 11.898438 L 220.64453 9.2773438 L 215.62695 9.2773438 L 215.62695 4.1542969 L 214.0625 4.1542969 z M 278.47656 8.8730469 C 276.84056 8.8730469 275.42816 9.3238724 274.24023 10.224609 C 273.06273 11.111916 272.15713 12.409874 271.52148 14.117188 C 270.88584 15.811096 270.56836 17.867229 270.56836 20.287109 C 270.56836 22.102038 270.75572 23.721477 271.13086 25.146484 C 271.51641 26.571517 272.05249 27.77642 272.74023 28.757812 C 273.4384 29.739205 274.26268 30.491329 275.21094 31.015625 C 276.16961 31.526491 277.22094 31.78125 278.36719 31.78125 C 279.59679 31.78125 280.69692 31.526491 281.66602 31.015625 C 282.64553 30.491329 283.47827 29.739205 284.16602 28.757812 C 284.85376 27.77642 285.38138 26.571517 285.74609 25.146484 C 286.11081 23.721477 286.29297 22.102038 286.29297 20.287109 C 286.29297 17.880684 285.96312 15.830627 285.30664 14.136719 C 284.66058 12.429355 283.74977 11.125321 282.57227 10.224609 C 281.40518 9.3238724 280.03962 8.8730469 278.47656 8.8730469 z M 139.22266 8.984375 C 136.16774 8.984375 134.15132 10.333045 133.17578 13.03125 L 132.90625 9.3144531 L 128.09375 9.8105469 L 128.09375 31.171875 L 133.98438 31.171875 L 133.98438 18.896484 C 133.98437 16.859092 134.1774 15.221427 134.5625 13.982422 C 134.97322 12.743455 135.8085 12.123047 137.06641 12.123047 C 138.11897 12.123047 138.78603 12.550766 139.06836 13.404297 C 139.35058 14.230275 139.49219 15.455675 139.49219 17.080078 L 139.49219 27.15625 C 139.49219 28.587973 139.83808 29.674573 140.53125 30.417969 C 141.22438 31.133962 142.23929 31.492188 143.57422 31.492188 C 144.13899 31.492188 144.7028 31.382456 145.26758 31.162109 C 145.85805 30.969353 146.29384 30.680396 146.57617 30.294922 C 146.1399 29.85438 145.83225 29.34577 145.65234 28.767578 C 145.47244 28.189386 145.38281 27.515051 145.38281 26.744141 L 145.38281 16.75 C 145.38281 14.161931 144.90886 12.219816 143.95898 10.925781 C 143.03481 9.6317466 141.45613 8.984375 139.22266 8.984375 z M 158.11133 8.984375 C 155.80088 8.984375 153.81124 9.3966783 152.14258 10.222656 C 150.49962 11.048634 149.67773 12.247046 149.67773 13.816406 C 149.67773 14.835115 150.02564 15.61927 150.71875 16.169922 C 151.41189 16.693059 152.28339 16.955078 153.33594 16.955078 C 153.64399 16.955078 153.97851 16.927976 154.33789 16.873047 C 154.6971 16.790401 154.96658 16.680544 155.14648 16.542969 C 154.99253 15.66191 154.91602 15.001063 154.91602 14.560547 C 154.91602 13.541838 155.17211 12.742255 155.68555 12.164062 C 156.19896 11.558355 156.9176 11.255859 157.8418 11.255859 C 158.81732 11.255859 159.47291 11.60076 159.80664 12.289062 C 160.14037 12.97739 160.30664 13.967684 160.30664 15.261719 L 160.30664 18.855469 C 156.91799 18.855469 154.1065 19.323652 151.87305 20.259766 C 149.63962 21.195879 148.52344 22.956853 148.52344 25.544922 C 148.52344 27.499744 149.20385 29.029555 150.56445 30.130859 C 151.92506 31.232163 153.59362 31.78125 155.57031 31.78125 C 156.72554 31.78125 157.76526 31.56161 158.68945 31.121094 C 159.61362 30.680577 160.30549 29.979279 160.76758 29.015625 L 160.76953 29.013672 C 161.00059 29.81211 161.43634 30.43253 162.07812 30.873047 C 162.71991 31.286048 163.515 31.492188 164.46484 31.492188 C 165.02963 31.492187 165.58201 31.38233 166.12109 31.162109 C 166.68586 30.969379 167.1102 30.680358 167.39258 30.294922 C 166.95637 29.85438 166.64866 29.34577 166.46875 28.767578 C 166.28884 28.189411 166.19727 27.515063 166.19727 26.744141 L 166.19727 16.748047 C 166.19727 13.939707 165.5436 11.943665 164.23438 10.759766 C 162.9251 9.5758664 160.88384 8.984375 158.11133 8.984375 z M 179.4082 8.984375 C 176.17358 8.984375 173.69655 10.003598 171.97656 12.041016 C 170.28223 14.078433 169.43555 16.901009 169.43555 20.507812 C 169.43555 24.004455 170.21722 26.757676 171.7832 28.767578 C 173.37484 30.777455 175.71238 31.78125 178.79297 31.78125 C 179.94819 31.78125 181.06438 31.575086 182.14258 31.162109 C 183.24645 30.749108 184.14475 30.144141 184.83789 29.345703 C 185.53101 28.54724 185.87695 27.583922 185.87695 26.455078 C 185.87695 25.436369 185.54442 24.762022 184.87695 24.431641 C 184.38924 25.477123 183.68154 26.289288 182.75781 26.867188 C 181.85932 27.417839 180.85976 27.693359 179.75586 27.693359 C 178.26693 27.693359 177.20038 27.128844 176.55859 26 C 175.94256 24.871156 175.59663 23.329822 175.51953 21.375 C 176.00729 21.457646 176.6877 21.498047 177.56055 21.498047 C 180.35876 21.498047 182.56628 21.029863 184.18359 20.09375 C 185.8009 19.157637 186.60938 17.464091 186.60938 15.013672 C 186.60938 13.03131 185.92896 11.532381 184.56836 10.513672 C 183.20775 9.4949632 181.4876 8.984375 179.4082 8.984375 z M 224.06641 9.2773438 L 224.06641 23.755859 C 224.06641 25.611103 224.29541 27.129457 224.75391 28.3125 C 225.22282 29.495543 225.91699 30.370936 226.83398 30.935547 C 227.75098 31.500183 228.88558 31.78125 230.24023 31.78125 C 231.03218 31.78125 231.7784 31.647631 232.47656 31.378906 C 233.18515 31.123461 233.82011 30.73328 234.38281 30.208984 C 234.94552 29.684663 235.40352 29.039724 235.75781 28.273438 L 235.89844 28.273438 L 236.27344 31.378906 L 238.40039 31.378906 L 238.40039 9.2773438 L 235.78906 9.2773438 L 235.78906 20.912109 C 235.78906 22.659788 235.62251 24.139682 235.28906 25.349609 C 234.95561 26.546107 234.40913 27.451906 233.64844 28.070312 C 232.89817 28.688744 231.88652 28.998047 230.61523 28.998047 C 229.29185 28.998047 228.30817 28.5492 227.66211 27.648438 C 227.01604 26.734271 226.69336 25.355461 226.69336 23.513672 L 226.69336 9.2773438 L 224.06641 9.2773438 z M 263.45508 9.2773438 L 263.45508 31.378906 L 266.05078 31.378906 L 266.05078 9.2773438 L 263.45508 9.2773438 z M 95.939453 9.8105469 L 95.939453 27.15625 C 95.939453 28.58796 96.287329 29.676539 96.980469 30.419922 C 97.673609 31.135764 98.686555 31.492188 100.02148 31.492188 C 100.58625 31.492188 101.15203 31.38233 101.7168 31.162109 C 102.30726 30.969379 102.74301 30.680383 103.02539 30.294922 C 102.58916 29.854405 102.28147 29.34577 102.10156 28.767578 C 101.92191 28.189386 101.83203 27.515063 101.83203 26.744141 L 101.83203 9.8105469 L 95.939453 9.8105469 z M 178.83008 11.421875 C 179.6259 11.421875 180.21648 11.780251 180.60156 12.496094 C 181.01232 13.211936 181.21875 14.092423 181.21875 15.138672 C 181.21875 16.735573 180.79443 17.864603 179.94727 18.525391 C 179.12577 19.186102 177.90637 19.502074 176.28906 19.474609 L 175.51953 19.474609 C 175.54521 17.327057 175.78791 15.454323 176.25 13.857422 C 176.73776 12.233006 177.59785 11.421875 178.83008 11.421875 z M 114.79102 11.462891 C 115.76656 11.462891 116.68968 11.792338 117.5625 12.453125 L 117.5625 24.265625 C 117.5625 25.532119 117.33123 26.60527 116.86914 27.486328 C 116.40703 28.367386 115.70177 28.808594 114.75195 28.808594 C 113.44267 28.808594 112.56922 27.982059 112.13281 26.330078 C 111.72208 24.650582 111.51758 22.558208 111.51758 20.052734 C 111.51758 17.49218 111.72208 15.426782 112.13281 13.857422 C 112.54357 12.260521 113.43044 11.462891 114.79102 11.462891 z M 250.38867 11.65625 C 252.2956 11.65625 253.60912 12.410327 254.32812 13.916016 C 255.05755 15.421729 255.42187 17.578946 255.42188 20.388672 L 255.42188 20.994141 C 255.42188 23.642531 255.04194 25.638044 254.28125 26.982422 C 253.52056 28.3268 252.22266 29 250.38867 29 C 248.78393 29 247.58492 28.260053 246.79297 26.78125 C 246.01144 25.302422 245.62109 23.203922 245.62109 20.488281 C 245.62109 17.759236 246.01664 15.610048 246.80859 14.037109 C 247.60054 12.450766 248.79435 11.65625 250.38867 11.65625 z M 278.41406 11.697266 C 279.62283 11.697266 280.60845 12.047032 281.36914 12.746094 C 282.12983 13.445155 282.69192 14.439861 283.05664 15.730469 C 283.42135 17.007621 283.60352 18.525976 283.60352 20.287109 C 283.60352 22.061673 283.42135 23.602187 283.05664 24.90625 C 282.69192 26.210263 282.12462 27.217146 281.35352 27.929688 C 280.59283 28.642204 279.61761 29 278.42969 29 C 277.23134 29 276.25288 28.642204 275.49219 27.929688 C 274.7315 27.217146 274.16745 26.210263 273.80273 24.90625 C 273.43802 23.602187 273.25586 22.061673 273.25586 20.287109 C 273.25586 17.598353 273.66702 15.495681 274.49023 13.976562 C 275.32386 12.457419 276.63217 11.697266 278.41406 11.697266 z M 21.867188 14.634766 C 23.050222 19.56807 23.973742 25.337011 24.626953 31.949219 C 24.741771 37.653622 24.799488 42.981176 24.992188 47.388672 C 25.093297 49.558536 25.206887 51.601551 25.341797 53.541016 C 31.754993 51.384795 38.768485 48.271911 45.904297 44.998047 C 44.662329 45.549669 42.893654 46.910951 40.533203 48.914062 C 38.569478 50.662737 36.796198 52.865219 35.115234 55.451172 L 25.490234 55.451172 C 25.437869 54.82154 25.385546 54.197595 25.339844 53.541016 C 23.82035 54.051819 22.230484 54.673751 20.785156 55.066406 C 20.163649 53.909379 19.624428 52.562496 18.957031 51.34375 C 16.768999 47.372374 14.134918 42.855819 11.347656 37.976562 C 10.737193 36.912512 10.087881 35.772012 9.4082031 34.564453 C 7.7975015 35.598872 5.7975647 36.770562 3.5625 38.023438 L 3.5625 29.847656 C 4.5988225 29.646396 5.6219608 29.450048 6.5019531 29.304688 C 5.6497608 27.712902 4.6528032 25.751931 3.5625 23.503906 L 3.5625 22.851562 C 5.7948037 21.847153 8.1524804 20.793413 10.810547 19.611328 C 14.039756 18.176922 17.866616 16.476605 21.867188 14.634766 z M 9.4082031 34.564453 C 12.917319 32.310834 14.863738 30.610941 14.835938 29.628906 C 14.819761 29.061486 14.133732 28.74786 12.753906 28.693359 C 11.374176 28.638934 9.299497 28.844518 6.5019531 29.306641 C 6.8258435 29.910911 7.1324447 30.467146 7.4179688 30.978516 C 8.1100237 32.242238 8.7714627 33.433618 9.4082031 34.564453 z M 160.30664 20.919922 L 160.30664 24.388672 C 160.30664 25.655192 160.06198 26.730295 159.57422 27.611328 C 159.11211 28.492386 158.38008 28.931641 157.37891 28.931641 C 156.48041 28.931641 155.78857 28.602194 155.30078 27.941406 C 154.8387 27.280619 154.60742 26.427108 154.60742 25.380859 C 154.60742 22.407329 156.50723 20.919922 160.30664 20.919922 z M 139.83984 40.859375 C 138.09722 40.859375 136.73878 41.529979 135.76562 42.873047 C 134.79247 44.208026 134.30664 46.057415 134.30664 48.419922 L 134.30664 51.744141 C 134.34436 54.058093 134.85329 55.85087 135.83398 57.121094 C 136.82223 58.383254 138.16592 59.013672 139.86328 59.013672 C 141.62854 59.013672 142.9892 58.363148 143.94727 57.060547 C 144.90533 55.75792 145.38477 53.901245 145.38477 51.490234 L 145.38477 48.273438 C 145.36213 45.894779 144.86378 44.067399 143.89062 42.789062 C 142.92502 41.502612 141.57492 40.859375 139.83984 40.859375 z M 75.193359 41.101562 L 75.193359 58.771484 L 78.882812 58.771484 C 80.934736 58.771484 82.499357 58.135458 83.578125 56.865234 C 84.65689 55.586872 85.195312 53.779624 85.195312 51.441406 L 85.195312 48.480469 C 85.195312 46.142251 84.663287 44.329394 83.599609 43.042969 C 82.535927 41.748455 81.042814 41.101562 79.119141 41.101562 L 75.193359 41.101562 z M 88.410156 41.101562 L 88.410156 58.771484 L 97.269531 58.771484 L 97.269531 56.865234 L 90.480469 56.865234 L 90.480469 50.603516 L 96.308594 50.603516 L 96.308594 48.699219 L 90.480469 48.699219 L 90.480469 43.019531 L 97.15625 43.019531 L 97.15625 41.101562 L 88.410156 41.101562 z M 98.605469 41.101562 L 103.7207 58.771484 L 105.53125 58.771484 L 110.65625 41.101562 L 108.38281 41.101562 L 104.61328 55.361328 L 100.86914 41.101562 L 98.605469 41.101562 z M 112.89648 41.101562 L 112.89648 58.771484 L 121.75781 58.771484 L 121.75781 56.865234 L 114.96875 56.865234 L 114.96875 50.603516 L 120.79492 50.603516 L 120.79492 48.699219 L 114.96875 48.699219 L 114.96875 43.019531 L 121.64453 43.019531 L 121.64453 41.101562 L 112.89648 41.101562 z M 124.39453 41.101562 L 124.39453 58.771484 L 132.9375 58.771484 L 132.9375 56.865234 L 126.47656 56.865234 L 126.47656 41.101562 L 124.39453 41.101562 z M 148.60938 41.101562 L 148.60938 58.771484 L 150.67969 58.771484 L 150.67969 51.853516 L 154.00781 51.853516 C 155.52412 51.821138 156.69557 51.347836 157.52539 50.433594 C 158.36276 49.511238 158.7832 48.201002 158.7832 46.501953 C 158.7832 44.867635 158.34383 43.56103 157.46875 42.582031 C 156.59367 41.59497 155.39077 41.101562 153.85938 41.101562 L 148.60938 41.101562 z M 161.46484 41.101562 L 161.46484 58.771484 L 163.53516 58.771484 L 163.53516 51.853516 L 166.86133 51.853516 C 168.37764 51.821138 169.55104 51.347836 170.38086 50.433594 C 171.21823 49.511238 171.63672 48.201002 171.63672 46.501953 C 171.63672 44.867635 171.19931 43.56103 170.32422 42.582031 C 169.44913 41.59497 168.24624 41.101562 166.71484 41.101562 L 161.46484 41.101562 z M 174.31836 41.101562 L 174.31836 58.771484 L 183.17969 58.771484 L 183.17969 56.865234 L 176.39062 56.865234 L 176.39062 50.603516 L 182.2168 50.603516 L 182.2168 48.699219 L 176.39062 48.699219 L 176.39062 43.019531 L 183.06641 43.019531 L 183.06641 41.101562 L 174.31836 41.101562 z M 185.81641 41.101562 L 185.81641 58.771484 L 187.88672 58.771484 L 187.88672 51.890625 L 187.69336 45.044922 L 191.98242 58.771484 L 193.56641 58.771484 L 197.87891 44.996094 L 197.68555 51.890625 L 197.68555 58.771484 L 199.75586 58.771484 L 199.75586 41.101562 L 197.08594 41.101562 L 192.78711 55.519531 L 188.48633 41.101562 L 185.81641 41.101562 z M 203.33203 41.101562 L 203.33203 58.771484 L 212.19336 58.771484 L 212.19336 56.865234 L 205.40234 56.865234 L 205.40234 50.603516 L 211.23047 50.603516 L 211.23047 48.699219 L 205.40234 48.699219 L 205.40234 43.019531 L 212.08008 43.019531 L 212.08008 41.101562 L 203.33203 41.101562 z M 214.83008 41.101562 L 214.83008 58.771484 L 216.91211 58.771484 L 216.91211 45.154297 L 223.50781 58.771484 L 225.58984 58.771484 L 225.58984 41.101562 L 223.53125 41.101562 L 223.53125 54.779297 L 216.91211 41.101562 L 214.83008 41.101562 z M 227.76367 41.101562 L 227.76367 43.019531 L 232.08594 43.019531 L 232.08594 58.771484 L 234.15625 58.771484 L 234.15625 43.019531 L 238.49023 43.019531 L 238.49023 41.101562 L 227.76367 41.101562 z M 244.81641 41.101562 L 248.08594 58.771484 L 249.96484 58.771484 L 252.81641 45.894531 L 252.98633 44.851562 L 253.15625 45.894531 L 255.90625 58.771484 L 257.77344 58.771484 L 261.05469 41.101562 L 258.98242 41.101562 L 256.96875 53.189453 L 256.73242 55.228516 L 256.4043 53.431641 L 253.8457 41.101562 L 252.11523 41.101562 L 249.47852 53.431641 L 249.15039 55.179688 L 248.93555 53.201172 L 246.88672 41.101562 L 244.81641 41.101562 z M 263.44141 41.101562 L 263.44141 58.771484 L 272.30273 58.771484 L 272.30273 56.865234 L 265.51172 56.865234 L 265.51172 50.603516 L 271.33984 50.603516 L 271.33984 48.699219 L 265.51172 48.699219 L 265.51172 43.019531 L 272.18945 43.019531 L 272.18945 41.101562 L 263.44141 41.101562 z M 274.93945 41.101562 L 274.93945 58.771484 L 279.79297 58.771484 C 281.29419 58.771484 282.44867 58.318289 283.25586 57.412109 C 284.07059 56.50598 284.47852 55.259642 284.47852 53.673828 C 284.47852 52.613973 284.25563 51.707532 283.81055 50.955078 C 283.373 50.202574 282.77587 49.705536 282.02148 49.462891 C 282.6778 49.114973 283.19925 48.625221 283.58398 47.994141 C 283.96872 47.36306 284.16016 46.635794 284.16016 45.810547 C 284.16016 44.240934 283.77951 43.064103 283.01758 42.279297 C 282.2632 41.494516 281.13599 41.101562 279.63477 41.101562 L 274.93945 41.101562 z M 139.83984 42.861328 C 141.01668 42.861328 141.88734 43.318154 142.45312 44.232422 C 143.02646 45.138576 143.31445 46.525555 143.31445 48.394531 L 143.31445 51.708984 C 143.29182 53.51323 143.0016 54.850833 142.44336 55.724609 C 141.88512 56.598436 141.02503 57.035156 139.86328 57.035156 C 138.70153 57.035156 137.82475 56.561855 137.23633 55.615234 C 136.65545 54.668614 136.36523 53.294455 136.36523 51.490234 L 136.36523 48.322266 C 136.37278 46.526108 136.66717 45.166471 137.24805 44.244141 C 137.83647 43.321785 138.70072 42.861328 139.83984 42.861328 z M 77.263672 43.019531 L 79.119141 43.019531 C 80.469485 43.019531 81.476769 43.456277 82.140625 44.330078 C 82.812025 45.195766 83.148438 46.559034 83.148438 48.419922 L 83.148438 51.550781 C 83.13335 53.306473 82.790541 54.633184 82.119141 55.53125 C 81.44774 56.421253 80.383694 56.865234 78.927734 56.865234 L 77.263672 56.865234 L 77.263672 43.019531 z M 150.67969 43.019531 L 153.87109 43.019531 C 154.75372 43.019531 155.44769 43.337419 155.95312 43.976562 C 156.45856 44.615756 156.71094 45.46551 156.71094 46.525391 C 156.71094 47.625737 156.46691 48.471886 155.97656 49.0625 C 155.48621 49.653114 154.77972 49.949219 153.85938 49.949219 L 150.67969 49.949219 L 150.67969 43.019531 z M 163.53516 43.019531 L 166.72656 43.019531 C 167.60919 43.019531 168.30316 43.337419 168.80859 43.976562 C 169.31403 44.615756 169.56641 45.46551 169.56641 46.525391 C 169.56641 47.625737 169.32043 48.471886 168.83008 49.0625 C 168.33973 49.653114 167.63519 49.949219 166.71484 49.949219 L 163.53516 49.949219 L 163.53516 43.019531 z M 277.00977 43.019531 L 279.63477 43.019531 C 280.45704 43.019531 281.06697 43.240571 281.4668 43.685547 C 281.86662 44.12246 282.06836 44.827943 282.06836 45.798828 C 282.06836 46.656428 281.84548 47.343508 281.40039 47.861328 C 280.96285 48.379149 280.38463 48.638672 279.66797 48.638672 L 277.00977 48.638672 L 277.00977 43.019531 z M 277.00977 50.505859 L 279.88281 50.505859 C 281.55754 50.505859 282.39648 51.57137 282.39648 53.699219 C 282.39648 54.702507 282.16525 55.482754 281.70508 56.041016 C 281.24491 56.591189 280.62245 56.865234 279.83789 56.865234 L 277.00977 56.865234 L 277.00977 50.505859 z "
       transform="matrix(0.26458334,0,0,0.26458334,0,281.3856)"
       id="path847" />
  </g>
</svg>
